<?xml version="1.0" encoding="UTF-8"?>
<svg id="Layer_1" data-name="Layer 1" xmlns="http://www.w3.org/2000/svg" viewBox="0 0 855.22 647.3">
  <defs>
    <style>
      .cls-1 {
        fill: #f2f2f2;
      }

      .cls-1, .cls-2, .cls-3, .cls-4, .cls-5, .cls-6, .cls-7, .cls-8 {
        stroke-width: 0px;
      }

      .cls-2 {
        fill: #2f2e41;
      }

      .cls-3 {
        fill: #3f3d56;
      }

      .cls-4 {
        fill: #ccc;
      }

      .cls-5 {
        fill: #fff;
      }

      .cls-6 {
        fill: #ffb6b6;
      }

      .cls-7 {
        fill: #e6e6e6;
      }

      .cls-8 {
        fill: #005ea2;
      }
    </style>
  </defs>
  <g>
    <path class="cls-1" d="M798.1,0H118.87C93.95,0,73.69,20.26,73.69,45.18v465.46c0,24.92,20.26,45.18,45.18,45.18h679.23c24.92,0,45.18-20.26,45.18-45.18V45.18c0-24.92-20.26-45.18-45.18-45.18h0Z"/>
    <path class="cls-3" d="M724.41,35.85H45.18C20.26,35.85,0,56.11,0,81.03v465.46c0,24.92,20.26,45.18,45.18,45.18h679.23c24.92,0,45.18-20.26,45.18-45.18V81.03c0-24.92-20.26-45.18-45.18-45.18ZM764.83,409.49c0,97.99-79.43,177.42-177.42,177.42H45.18c-22.33,0-40.43-18.1-40.43-40.43V81.03c0-22.33,18.1-40.43,40.43-40.43h679.23c22.33,0,40.43,18.1,40.43,40.43v328.46Z"/>
  </g>
  <g>
    <path class="cls-4" d="M97.02,490.79l-4.02-2.53c2.61-4.15,5.31-8.18,8.01-11.97l3.87,2.76c-2.65,3.71-5.29,7.66-7.86,11.74h0Z"/>
    <path class="cls-4" d="M123.21,456.94l-3.4-3.32c7.25-7.43,14.88-13.81,22.67-18.95l2.62,3.96c-7.51,4.96-14.88,11.12-21.89,18.31ZM241.73,426.95c-5.67,0-10.84-.73-14.71-1.36l.77-4.69c3.92.64,8.64,1.3,13.94,1.3,4.68,0,9.28-.51,14.06-1.57l1.03,4.64c-5.12,1.13-10.06,1.68-15.09,1.68ZM170.65,426.32l-1.43-4.53c5.1-1.61,10.39-2.82,15.71-3.59,4.57-.66,8.94-.98,13.36-.98h.29v4.75h-.29c-4.19,0-8.33.31-12.68.93-5.07.73-10.11,1.88-14.96,3.42h0ZM283.88,412.59l-3.04-3.65c6.56-5.45,11.25-12.03,16.23-19l1.98-2.77,3.86,2.78-1.97,2.76c-5.16,7.23-10.03,14.06-17.06,19.9ZM321.97,369.04l-2.92-3.75c6.4-5,13.64-9.05,22.12-12.38,1.44-.57,2.82-1.08,4.15-1.53l1.53,4.5c-1.26.43-2.57.91-3.94,1.45-8.05,3.16-14.89,6.99-20.93,11.7ZM379.33,352.54c-1.6,0-3.11-.02-4.57-.03l.06-4.75c1.49.02,3.04.02,4.69.03,5.59,0,13.38-.16,24.06-1.4l.55,4.72c-11.03,1.28-18.94,1.41-24.78,1.43ZM433,346.32l-.94-4.66c8.53-1.73,18.46-3.78,28.29-6.32l1.19,4.6c-9.94,2.56-19.94,4.63-28.53,6.37ZM489.51,330.94l-1.78-4.41c9.53-3.84,17.8-8.17,25.29-13.24l2.66,3.93c-7.77,5.26-16.33,9.75-26.17,13.71ZM537.51,296.99l-3.86-2.78c1.33-1.84,2.47-3.63,3.58-5.37,3.27-5.12,6.65-10.42,14.71-16.92l.56-.45,2.94,3.73-.52.42c-7.45,6.02-10.48,10.76-13.69,15.78-1.14,1.79-2.33,3.64-3.73,5.59ZM580.13,261.37l-1.73-4.42c8.47-3.32,18.03-5.99,28.42-7.94l.88,4.67c-10.1,1.9-19.38,4.48-27.57,7.69h0Z"/>
    <path class="cls-4" d="M636.73,250.18l-.3-4.74c4.62-.29,9.44-.48,14.34-.57l.09,4.75c-4.83.09-9.59.27-14.13.56Z"/>
  </g>
  <g>
    <path class="cls-7" d="M149.99,87.33h-66.65c-3.35,0-6.08,2.73-6.08,6.08s2.73,6.1,6.08,6.1h66.65c3.35,0,6.08-2.73,6.08-6.1s-2.73-6.08-6.08-6.08Z"/>
    <path class="cls-7" d="M261.63,87.33h-66.65c-3.35,0-6.08,2.73-6.08,6.08s2.73,6.1,6.08,6.1h66.65c3.35,0,6.08-2.73,6.08-6.1s-2.73-6.08-6.08-6.08Z"/>
    <path class="cls-7" d="M373.27,87.33h-66.65c-3.35,0-6.08,2.73-6.08,6.08s2.73,6.1,6.08,6.1h66.65c3.35,0,6.08-2.73,6.08-6.1s-2.73-6.08-6.08-6.08Z"/>
  </g>
  <rect class="cls-7" x="77.2" y="487.15" width="605.69" height="4.75"/>
  <path class="cls-4" d="M650.89,140.36c-43.11,1.12-75.27,13.8-95.65,37.65-7.53,8.84-10.59,15.8-13.82,23.16-3.21,7.27-6.48,14.75-14.11,24.51v-8.08c4.73-6.94,7.27-12.73,9.76-18.36,3.37-7.7,6.58-14.96,14.56-24.3,21.28-24.94,54.63-38.17,99.12-39.33l.14,4.75h0Z"/>
  <path class="cls-8" d="M541.42,201.17c-3.21,7.27-6.48,14.75-14.11,24.51-.9,1.16-1.88,2.38-2.92,3.63-27.51,32.71-64.25,43.44-93.8,52.09-1.85.55-3.66,1.05-5.42,1.52-26.27,7.13-40.66,6.86-51.38,6.7-10.76-.19-17.86-.31-30.57,6.96-23.3,13.28-32.85,32.71-42.09,51.5-9.52,19.33-18.5,37.6-41.4,46.17-15.89,5.94-27.05,2.99-38.86-.1-10.14-2.68-28.42-68.75-44.61-78.38-33.42,7.01-53.73,116.22-79.07,174.7l-4.37-1.9c26.01-59.95,47.43-170.09,82.45-177.46,15.61-3.28,36.15,75.63,46.82,78.43,11.07,2.92,21.5,5.65,35.99.24,21.14-7.89,29.31-24.54,38.79-43.8,9.12-18.53,19.45-39.52,43.99-53.54,13.85-7.91,21.9-7.77,33.02-7.58,10.59.19,24.89.43,51.31-6.86,1.33-.38,2.68-.76,4.09-1.16,28.93-8.46,64.92-18.98,91.47-50.57,2.61-3.11,4.77-5.99,6.58-8.67,4.73-6.94,7.27-12.73,9.76-18.36,3.37-7.7,7.58-5.44,4.35,1.92Z"/>
  <path class="cls-8" d="M283.92,320.21s-47.94-.73-60.13,25.4c-11.1,23.79-24.25,89.15-17.14,92.92l18.74,200.34,52.81,4.15-9.2-241.09,14.92-81.73h0Z"/>
  <path class="cls-8" d="M415.67,284.24l-78.38-3.73-26.13,26.12-57.01,16.79,26.13,199.66-11.88,119.42s106.35,6.24,239.65,4.48l-21.13-155.63,4.75-162.34-54.63-18.66-21.38-26.12Z"/>
  <g>
    <path class="cls-6" d="M566.57,227.44c.85,8.23-.23,15.98-2.72,22.19l13.06,77.94-37.27,5.13-9.23-79.61c-3.7-5.57-6.34-12.93-7.19-21.16-1.94-18.81,6.19-35.07,18.16-36.3,11.97-1.24,23.25,13.01,25.19,31.82h0s0,0,0,0Z"/>
    <path class="cls-8" d="M501.66,351.18c-12.85-21.96-44.72-24.03-58.99-2.97-3.9,5.76-2.81,12.23-3.75,20-3.95,33.01,59.3,130.54,103.06,141.77,5.74,1.47,9.01,7.67,14.81,8.91h0c17.17,3.69,33.16-9.94,32.23-27.48l-11.89-224.96-49.94,17.04,3.2,116.79-28.74-49.12h0Z"/>
  </g>
  <g>
    <circle class="cls-6" cx="384.61" cy="205.31" r="69.04"/>
    <path class="cls-2" d="M448.92,154.61c-.59.14,9.09-9.29,9.5-9.5,9.5-4.75-.26,41.69-7.13,40.38-16.89-3.21-24.18-9.57-30.74,6.32-1.83,4.42-2.97,9.41-6.53,12.57-4.89,4.3-13.02,3.94-17.01,9.07-3.21,4.13-2.28,10.21.09,14.87,2.38,4.68,5.99,8.65,8.15,13.42,2.42,5.37-7.91,22.45-11.85,32.04v.02l-.02.06c-1.05,2.52-3.54-4.73-6.17-5.46-3.15-.87-7.78,6.56-12.79,5.21-.02,0-.05-.02-.07-.02-4.77-1.33-10.09-2.76-15.37-4.18h-.02c-14.85-4.04-18.6,1.76-19.31,1.59l-9.22-9.64c-3.16-2.3-2.81-9.74-5.04-11.73-1.82-1.63-6.37,2.14-7.71.57-6.57-7.7-8.08-15.39-11.96-30.59-3.54-13.9-10.88-55.49,4.2-57.36,14.23-1.78,3.82-21.59,18.15-20.85-.86-3.61.74-7.48,3.33-10.14,2.57-2.68,5.99-4.35,9.43-5.77,16.98-6.94,14.16-12.9,32.07-8.86,1.78-2.49,27.65-.83,30.88,0,.24.05-8,2.02,4.75,0-.48,2.92,7.6,4.2,7.13,7.13,1.78-2.4,20.93,11.38,21.38,14.25.59,3.59-4.82,1.76-1.21,2.3,2.14.33,5.8,4.68,5.44,6.84,1.54-2.09,3.09-4.16,4.66-6.25.29.02.55.07.83.12,7.22,1.38-1.06,24.98-.76,17.62.55-13.52,10.12-5.61,2.92-4.01h0Z"/>
  </g>
  <path class="cls-3" d="M713.43,490.51c.53,1.31,2.37,1.31,2.9,0,3.71-9.14,8.99-19.38,14.73-27.21.92-1.25-.35-2.93-1.81-2.4l-12.31,4.45v-76.21h-4.12v76.21l-12.32-4.45c-1.46-.53-2.73,1.15-1.81,2.4,5.74,7.83,11.02,18.07,14.74,27.21h0Z"/>
  <path class="cls-3" d="M789.43,567.4c-.4,1.36,1.04,2.5,2.27,1.8,8.59-4.85,19.09-9.59,28.46-12.14,1.5-.41,1.55-2.51.07-3l-12.41-4.17,47.4-59.68-3.23-2.56-47.4,59.68-6.87-11.15c-.82-1.32-2.85-.8-2.91.75-.37,9.7-2.6,21-5.38,30.47h0Z"/>
  <g>
    <path class="cls-7" d="M755.61,635.63h-80.1c-4.97,0-9.02-4.05-9.02-9.02-10.59-30.95-10.38-61.28,0-91.03,0-4.97,4.05-9.02,9.02-9.02h80.1c4.97,0,9.02,4.05,9.02,9.02v91.03c0,4.97-4.05,9.02-9.02,9.02h0Z"/>
    <path class="cls-5" d="M692.67,529.26c-12.97,0-23.49,10.52-23.49,23.49v71.93c0,4.56,3.7,8.26,8.26,8.26h44.29c22.2,0,40.2-18,40.2-40.2v-55.22c0-4.56-3.7-8.26-8.26-8.26h-61Z"/>
    <g>
      <path class="cls-7" d="M734.22,555.71h-37.5c-.95,0-1.71-.77-1.71-1.71s.77-1.71,1.71-1.71h37.5c.95,0,1.71.77,1.71,1.71s-.77,1.71-1.71,1.71Z"/>
      <path class="cls-7" d="M734.22,592.27h-37.5c-.95,0-1.71-.77-1.71-1.71s.77-1.71,1.71-1.71h37.5c.95,0,1.71.77,1.71,1.71s-.77,1.71-1.71,1.71Z"/>
      <path class="cls-7" d="M754.34,574h-77.75c-.95,0-1.71-.77-1.71-1.71s.77-1.71,1.71-1.71h77.75c.95,0,1.71.77,1.71,1.71s-.77,1.71-1.71,1.71Z"/>
    </g>
    <path class="cls-7" d="M755.26,607.14h-32.44c-.95,0-1.71-.77-1.71-1.71s.77-1.71,1.71-1.71h32.44c.95,0,1.71.77,1.71,1.71s-.77,1.71-1.71,1.71Z"/>
  </g>
</svg>