<?xml version="1.0" encoding="UTF-8"?>
<svg id="Layer_1" data-name="Layer 1" xmlns="http://www.w3.org/2000/svg" viewBox="0 0 854.09 633.33">
  <defs>
    <style>
      .cls-1 {
        fill: #f2f2f2;
      }

      .cls-1, .cls-2, .cls-3, .cls-4, .cls-5, .cls-6, .cls-7 {
        stroke-width: 0px;
      }

      .cls-2 {
        fill: #2f2e41;
      }

      .cls-3 {
        fill: #3f3d56;
      }

      .cls-4 {
        fill: #a0616a;
      }

      .cls-5 {
        fill: #fff;
      }

      .cls-6 {
        fill: #e6e6e6;
      }

      .cls-7 {
        fill: #005ea2;
      }
    </style>
  </defs>
  <path class="cls-1" d="M355.58,406.82c-113.98,0-206.38-84.64-206.38-189.04S241.6,28.74,355.58,28.74s206.38,84.64,206.38,189.04c-.13,104.36-92.45,188.93-206.38,189.04ZM355.58,31.71c-112.18,0-203.13,83.3-203.13,186.07s90.94,186.07,203.13,186.07,203.13-83.3,203.13-186.07h0c-.13-102.71-91-185.95-203.13-186.07h0Z"/>
  <path class="cls-3" d="M371.32,259.15h132.33c.9,0,1.63-.67,1.63-1.49s-.73-1.49-1.63-1.49h-132.33c-.9,0-1.63.67-1.63,1.49s.73,1.49,1.63,1.49Z"/>
  <path class="cls-5" d="M536.63,254.68c-23,.02-41.64,17.1-41.66,38.16v161.84c.03,21.07,18.66,38.14,41.66,38.16h274.18c23-.02,41.64-17.1,41.66-38.16v-161.84c-.03-21.07-18.66-38.14-41.66-38.16h-274.18Z"/>
  <path class="cls-3" d="M810.8,494.33h-274.18c-23.9-.02-43.26-17.76-43.29-39.65v-161.84c.03-21.89,19.39-39.63,43.29-39.65h274.18c23.9.02,43.26,17.76,43.29,39.65v161.84c-.03,21.89-19.39,39.63-43.29,39.65ZM536.63,256.17c-22.1.02-40.01,16.43-40.04,36.67v161.84c.02,20.25,17.94,36.65,40.04,36.67h274.18c22.1-.02,40.01-16.43,40.04-36.67v-161.84c-.02-20.25-17.94-36.65-40.04-36.67h-274.18Z"/>
  <path class="cls-4" d="M366.62,245.21c-8.52,1.36-14.32,8.68-13.07,16.52.14.76.34,1.52.61,2.25l-81.75,66,30.28,19.43,72.25-77.09c6.65-2.6,10.56-8.98,9.51-15.54-1.3-7.62-9.1-12.83-17.41-11.64h0c-.14.02-.28.04-.41.06Z"/>
  <path class="cls-3" d="M335.61,319.89s-18.44,19.46-40.9,41.49c-1.56,1.52-3.12,3.05-4.73,4.6-13.65,13.25-28.36,27-41.11,37.67-13.6,11.42-24.99,19.37-30.52,19.56-.46.03-.92-.02-1.37-.13-16.53-4.55-2.91.86-9.98,10.11-7.1,9.26-6.22-2.89-22.13-10.11-15.88-7.22-7.43-.04-13.76,11.36-1.97,3.57-19.22,2.84-41.97.16-2.57-19.87-6.31-37.02-6.31-37.02-.05-11.92,1.28-23.81,3.97-35.47,39.63-.65,72.41-1.03,74.08-.55,4.32,1.21,13.62-1.85,23.89-7.16,1.46-.76,4.23-2.52,7.88-4.99,3.23-2.17,7.13-4.88,11.47-7.92,4.88-3.45,13.18-5.34,15.88-11.36,7.83-17.36,5.15-4.41,7.25-5.21,2.39-.92,6.61-1.28,9.08-2.6,1.39-.56,2.18-1.92,1.9-3.29-.12-.56-.33-1.11-.62-1.62-2.24-4.12,1.17-4.53,4.39-4.96,1.33-.06,2.63-.41,3.79-1.03,12.92-9.44,22.7-16.69,22.7-16.69l3.51,3.27h.02s20.77,19.28,20.77,19.28l2.83,2.6Z"/>
  <path class="cls-2" d="M498.98,622.11l-85.05,3.12c-1.47,0,.42,1.29,0,0"/>
  <path class="cls-2" d="M413.93,625.23s-4.32-.1-11.21-.27c-10.17-.24-26-.6-41.84-.95t-.02,0c-5.96-.13-11.93-.27-17.58-.39-4.39-.1-8.6-.19-12.5-.28-11.68-.24-61.34-1.8-63.55-1.8-7.22,0,39.21,1.4,34.86-3.83-.67-.78-1.39-1.52-2.16-2.22-1.09-1.12-2.29-2.14-3.58-3.07-.91-.39,20.41-2.14,19.73.97-.37,1.69,1.27,7.45,0,8.72-21,.22-48.85-.58-48.85-.58-32.57,14.92-59.28,13.84-79.85,6.86-14.78-5.22-28.03-13.5-38.72-24.2-4.23-4.08-8.03-8.51-11.34-13.25l-2.68-.46s-3.61-110.72.55-118.21c6.48-11.67,102.38-2.98,102.38-2.98l42.25,44.66s-6.63-.6,10.37,4.78c18.4,5.85,46.31,5.09,73.04,13.87,8.26,2.71,16.62,5.48,24.93,8.25,1.67.55,3.35,1.12,5.02,1.67,10.81,3.62,21.43,7.23,31.48,10.69,1.41.49,2.81.98,4.19,1.46.03.01.06.01.08.03,32.74,11.4,58.5,21.17,62.76,25.07,4.55,4.17,6.79,7.54,7.31,42.34"/>
  <path class="cls-3" d="M457.45,79.03h132.33c.9,0,1.63-.67,1.63-1.49s-.73-1.49-1.63-1.49h-132.33c-.9,0-1.63.67-1.63,1.49s.73,1.49,1.63,1.49Z"/>
  <path class="cls-6" d="M636.61,197.41c-26.83-32.69-42.34-69.25-42.85-110.92-1.8-4.68.87-9.8,5.97-11.46l91.45-29.64c5.11-1.65,10.7.8,12.52,5.47l42.85,110.92c1.8,4.68-.87,9.81-5.97,11.46l-91.45,29.64c-5.11,1.65-10.7-.8-12.52-5.47Z"/>
  <path class="cls-5" d="M630.68,161.63c-16.14-14.95-23.04-41.6-27.55-71.31-1.69-4.38.82-9.18,5.59-10.74l78.59-25.47c4.78-1.54,10.02.75,11.72,5.12l38.13,98.71c1.69,4.38-.82,9.18-5.59,10.74l-48.69,15.78c-21.3,6.88-44.65-3.33-52.21-22.83Z"/>
  <path class="cls-7" d="M700.1,112.41l-61.22,20.02c-2.03.67-4.26-.3-4.99-2.16s.33-3.9,2.35-4.57h.01s61.22-20.02,61.22-20.02c2.03-.66,4.26.31,4.98,2.16.72,1.86-.33,3.9-2.36,4.57h0Z"/>
  <path class="cls-7" d="M645.16,109.57l-13.47,4.4c-2.03.66-4.26-.31-4.98-2.17-.72-1.86.34-3.89,2.36-4.56l13.47-4.4c2.03-.66,4.26.31,4.98,2.16.72,1.86-.33,3.9-2.36,4.57h0Z"/>
  <path class="cls-7" d="M711.63,142l-61.22,20.02c-2.03.66-4.26-.31-4.98-2.17-.72-1.86.33-3.9,2.36-4.56l61.22-20.02c2.03-.67,4.26.3,4.99,2.16s-.33,3.9-2.35,4.57h-.01s0,0,0,0Z"/>
  <path class="cls-7" d="M705.87,127.2l-61.22,20.02c-2.03.66-4.26-.31-4.98-2.17-.72-1.86.34-3.89,2.36-4.56l61.22-20.02c2.03-.66,4.26.31,4.98,2.17.72,1.86-.34,3.89-2.36,4.56Z"/>
  <ellipse class="cls-7" cx="598.96" cy="83.5" rx="16.25" ry="14.89"/>
  <path class="cls-3" d="M304.97,50.75h-132.33c-.9,0-1.63-.67-1.63-1.49s.73-1.49,1.63-1.49h132.33c.9,0,1.63.67,1.63,1.49s-.73,1.49-1.63,1.49Z"/>
  <path class="cls-6" d="M1.52,103.55C13.01,64.03,34.82,30.28,70.29,4.17,73.19-.01,79.24-1.26,83.82,1.39l81.94,47.57c4.57,2.66,5.93,8.2,3.03,12.4l-68.76,99.38c-2.9,4.19-8.96,5.43-13.53,2.78L4.55,115.95C-.02,113.29-1.37,107.74,1.52,103.55Z"/>
  <path class="cls-5" d="M28.58,77.18c2.86-20.86,21.48-42.3,44.21-63.89,2.72-3.92,8.39-5.08,12.67-2.6l70.42,40.88c4.28,2.49,5.55,7.68,2.84,11.61l-61.19,88.43c-2.72,3.92-8.39,5.08-12.67,2.6l-43.62-25.33c-19.06-11.09-24.72-34.23-12.65-51.71Z"/>
  <path class="cls-7" d="M113.71,96.79l-55-31.74c-1.82-1.05-2.37-3.26-1.22-4.93,1.15-1.67,3.56-2.17,5.38-1.12l55,31.74c1.82,1.05,2.37,3.26,1.22,4.93-1.15,1.67-3.56,2.17-5.38,1.12h0Z"/>
  <path class="cls-7" d="M82.21,55.45l-12.1-6.98c-1.82-1.05-2.37-3.26-1.22-4.93,1.15-1.67,3.56-2.17,5.38-1.12l12.1,6.98c1.82,1.05,2.37,3.26,1.22,4.93-1.15,1.67-3.56,2.17-5.38,1.12Z"/>
  <path class="cls-7" d="M95.43,123.37l-55-31.74c-1.82-1.05-2.37-3.26-1.22-4.93,1.15-1.67,3.56-2.17,5.38-1.12l55,31.74c1.82,1.05,2.37,3.26,1.22,4.93-1.15,1.67-3.56,2.17-5.38,1.12Z"/>
  <path class="cls-7" d="M104.57,110.08l-55-31.74c-1.82-1.05-2.37-3.26-1.22-4.93,1.15-1.67,3.56-2.17,5.38-1.12h0l55,31.74c1.82,1.05,2.37,3.26,1.22,4.93-1.15,1.67-3.56,2.17-5.38,1.12h0Z"/>
  <ellipse class="cls-7" cx="163.46" cy="55.22" rx="16.25" ry="14.89"/>
  <ellipse class="cls-7" cx="512.84" cy="263.61" rx="16.25" ry="14.89"/>
  <path class="cls-3" d="M280.46,509.22l-5.98,3.56-15.31,9.11-20.77,12.34-110.7,65.79s-13.68-25.54-1.15-47.75c1.61-2.81,2.92-5.76,3.92-8.8,5.07-15.93-4.68-22.83-4.68-22.83,0,0-16.25-14.48-.67-27.84,3.2-2.74,4.99-8.35,5.8-15.56,1.37-11.85.11-27.98-1.79-42.65-2.57-19.87-6.31-37.02-6.31-37.02-.05-11.92,1.28-23.81,3.97-35.47,2.97-12.56,7.75-24.5,14.82-34.41,2.59-3.68,5.58-7.11,8.92-10.24,4.67-4.39,10.15-8,16.17-10.67,9.04-3.99,24.52-1.59,38.17.15,2.75.34,5.41.67,7.93.91,2.5.27,5.01.41,7.52.43l5.66,18.9,2.15,7.16,1.07,3.59,2.44,8.16,1.01,3.33,16.22,54.24,13.24,44.24,7.31,24.44,10.94,36.54.1.34Z"/>
  <ellipse class="cls-4" cx="189.86" cy="250.07" rx="49.33" ry="45.18"/>
  <path class="cls-2" d="M180.62,287.41l-4.02,11.77c-8.91-4.03-17.94-8.13-25.36-14.19s-13.16-14.41-13.51-23.51c-.18-4.7,1.06-9.44.21-14.07-.96-5.24-4.49-9.78-6.11-14.88-3.12-11.02,2.75-22.52,13.98-27.4,8.18-3.29,17.53-2.37,26.42-3.16s18.8-4.48,21.31-12.33c.94-2.94.83-6.4,3.69-8.32,2.98-1.82,6.98-1.29,9.28,1.23,4.19,4.35,3.16,10.09,2.06,15.3,11.66-1.39,22.13-7.23,28.85-16.07,6.52,5.59,6.85,14.96.75,20.93-.04.04-.07.07-.11.11,5.77,0,10.79-3.62,12.13-8.76,3.4,4.31,6.9,8.8,7.99,14.02s-.94,11.4-6.17,13.71c-2.67.97-5.53,1.4-8.4,1.26l-21.92.38c-13.55.24-24.45,10.28-24.62,22.69h0c-6.38-.56-12.94-1.11-18.97,1.35-2.81,1.08-5.18,2.95-6.77,5.33-3.98,6.27-.03,12.79,3.47,18.49,3,4.87,5.83,10.75,3.35,15.86"/>
  <path class="cls-4" d="M460.41,458.02c-6.86-4.82-16.67-3.76-22.12,2.39-.52.61-.99,1.26-1.39,1.94l-108.38-10.36,4.92,33.56,110.85-3.56c6.6,2.72,14.36,1.03,18.92-4.12,5.24-6.04,4.14-14.82-2.46-19.62-.11-.08-.22-.16-.33-.23Z"/>
  <path class="cls-3" d="M411.14,455.75l-.38,4.58-2.21,27.01-.29,3.65s-32.15.05-67.9-1.22c-42.93-1.55-91.06-5.02-94.94-12.89-7.11-14.4-2.63-1.45-14.89-.25-12.26,1.18-1.7-6.19-6.21-21.91-4.49-15.72-4.84-5.17-18.38-2.05-9.03,2.09-47.59-56.52-72.24-95.7,1.13-6.04,3.4-11.86,6.7-17.19,5.95-9.58,25.3-16.43,38.61-23.1,42.8,43.07,105.25,106.16,106.45,108.64,1.82,3.79,10.46,8.18,21.58,11.79,5.24,1.72,28.78,5.96,52.15,9.97,26.07,4.48,51.95,8.65,51.95,8.65Z"/>
  <path class="cls-7" d="M716.19,330.55h-172.05c-2.05,0-3.71-1.51-3.72-3.39,0-1.88,1.65-3.4,3.7-3.41h172.07c2.05,0,3.71,1.53,3.7,3.41,0,1.87-1.66,3.39-3.7,3.39Z"/>
  <path class="cls-1" d="M803.29,361.63h-259.15c-2.05,0-3.71-1.51-3.72-3.39,0-1.88,1.65-3.4,3.7-3.41h259.16c2.05,0,3.71,1.53,3.7,3.41,0,1.87-1.66,3.39-3.7,3.39Z"/>
  <path class="cls-1" d="M803.29,385.89h-259.16c-2.05,0-3.71,1.52-3.71,3.4s1.66,3.4,3.71,3.4h259.16c2.05,0,3.71-1.52,3.71-3.4s-1.66-3.4-3.71-3.4h0Z"/>
  <path class="cls-1" d="M803.29,423.77h-259.15c-2.05,0-3.71-1.51-3.72-3.39,0-1.88,1.65-3.4,3.7-3.41h259.16c2.05,0,3.71,1.53,3.7,3.41,0,1.87-1.66,3.39-3.7,3.39Z"/>
</svg>