<svg width="120" height="151" viewBox="0 0 120 151" fill="none" xmlns="http://www.w3.org/2000/svg">
<g clip-path="url(#clip0_2389_11829)">
<rect width="119" height="150" transform="translate(0.623047 0.5)" fill="white"/>
<rect width="120" height="150" transform="translate(0.623047 0.5)" fill="#003363"/>
<path d="M21.8316 130.919C21.8316 131.677 21.7081 132.335 21.4611 132.894C21.2141 133.449 20.8133 133.878 20.2586 134.181C19.7083 134.481 18.9781 134.63 18.0681 134.63C17.1538 134.63 16.4214 134.478 15.8711 134.175C15.3208 133.867 14.9221 133.432 14.6751 132.868C14.4324 132.305 14.3111 131.633 14.3111 130.853V125.101H16.2416V130.996C16.2416 131.698 16.4106 132.212 16.7486 132.537C17.0866 132.858 17.5264 133.018 18.0681 133.018C18.4278 133.018 18.7463 132.949 19.0236 132.81C19.3009 132.667 19.5176 132.448 19.6736 132.153C19.8339 131.854 19.9141 131.469 19.9141 130.996V125.101H21.8316V130.919ZM29.2368 125.101H31.1348V134.5H29.4253L24.9598 128.032V134.5H23.0683V125.101H24.9468L29.2368 131.321V125.101ZM39.8803 134.5H37.9108L36.3833 130.879H34.4788V134.5H32.5873V125.101H36.5523C37.3019 125.101 37.9151 125.22 38.3918 125.458C38.8684 125.697 39.2194 126.028 39.4448 126.453C39.6701 126.873 39.7828 127.359 39.7828 127.909C39.7828 128.403 39.7048 128.821 39.5488 129.163C39.3971 129.501 39.1956 129.783 38.9443 130.008C38.6973 130.234 38.4264 130.418 38.1318 130.561L39.8803 134.5ZM36.2143 129.417C36.7213 129.417 37.1221 129.28 37.4168 129.007C37.7158 128.734 37.8653 128.383 37.8653 127.954C37.8653 127.521 37.7223 127.179 37.4363 126.927C37.1503 126.676 36.7884 126.55 36.3508 126.55H34.4788V129.417H36.2143ZM40.989 134.5V125.101H47.4435L47.437 126.7H42.8935V128.981H46.839V130.548H42.8805V132.881L47.5085 132.888V134.5H40.989ZM52.2094 134.63C51.7457 134.63 51.2907 134.572 50.8444 134.454C50.398 134.337 49.9907 134.162 49.6224 133.928C49.254 133.694 48.9485 133.401 48.7059 133.05C48.4675 132.699 48.3245 132.288 48.2769 131.815H50.2204C50.2854 132.101 50.4089 132.342 50.5909 132.537C50.7729 132.732 51.0025 132.881 51.2799 132.985C51.5572 133.089 51.8649 133.141 52.2029 133.141C52.5495 133.141 52.8659 133.098 53.1519 133.011C53.4379 132.925 53.6675 132.795 53.8409 132.621C54.0142 132.444 54.1009 132.223 54.1009 131.958C54.1009 131.72 54.0294 131.525 53.8864 131.373C53.7477 131.222 53.5592 131.098 53.3209 131.003C53.0825 130.908 52.8117 130.83 52.5084 130.769L50.8834 130.438C50.1727 130.303 49.6094 130.021 49.1934 129.592C48.7774 129.159 48.5629 128.583 48.5499 127.863C48.5455 127.274 48.7015 126.765 49.0179 126.336C49.3385 125.903 49.7719 125.569 50.3179 125.335C50.8682 125.101 51.4835 124.984 52.1639 124.984C52.9742 124.984 53.6545 125.112 54.2049 125.367C54.7595 125.619 55.1799 125.961 55.4659 126.394C55.7562 126.823 55.9057 127.302 55.9144 127.831H54.0099C53.9752 127.502 53.8755 127.239 53.7109 127.044C53.5462 126.849 53.3339 126.709 53.0739 126.622C52.8182 126.535 52.5257 126.492 52.1964 126.492C51.945 126.492 51.7154 126.52 51.5074 126.576C51.3037 126.633 51.1304 126.713 50.9874 126.817C50.8444 126.917 50.7339 127.036 50.6559 127.174C50.5779 127.313 50.5389 127.469 50.5389 127.642C50.5389 127.915 50.6299 128.136 50.8119 128.305C50.9939 128.474 51.334 128.613 51.8324 128.721L53.4444 129.053C54.0207 129.166 54.4779 129.332 54.8159 129.553C55.1582 129.774 55.4139 130.024 55.5829 130.301C55.7562 130.578 55.8689 130.862 55.9209 131.152C55.9772 131.438 56.0054 131.703 56.0054 131.945C56.0054 132.452 55.845 132.91 55.5244 133.317C55.208 133.72 54.766 134.041 54.1984 134.279C53.6307 134.513 52.9677 134.63 52.2094 134.63ZM56.1994 126.791V125.101H63.7199V126.791H60.9444V134.5H59.0399V126.791H56.1994ZM71.6592 134.5H69.6897L68.1622 130.879H66.2577V134.5H64.3662V125.101H68.3312C69.0808 125.101 69.694 125.22 70.1707 125.458C70.6473 125.697 70.9983 126.028 71.2237 126.453C71.449 126.873 71.5617 127.359 71.5617 127.909C71.5617 128.403 71.4837 128.821 71.3277 129.163C71.176 129.501 70.9745 129.783 70.7232 130.008C70.4762 130.234 70.2054 130.418 69.9107 130.561L71.6592 134.5ZM67.9932 129.417C68.5002 129.417 68.901 129.28 69.1957 129.007C69.4947 128.734 69.6442 128.383 69.6442 127.954C69.6442 127.521 69.5012 127.179 69.2152 126.927C68.9292 126.676 68.5673 126.55 68.1297 126.55H66.2577V129.417H67.9932ZM72.7679 125.101H74.6594V134.5H72.7679V125.101ZM79.9455 124.971C80.6518 124.971 81.2801 125.114 81.8305 125.4C82.3851 125.682 82.8315 126.067 83.1695 126.557C83.5118 127.047 83.7133 127.599 83.774 128.214H81.785C81.7243 127.889 81.6138 127.601 81.4535 127.35C81.2931 127.094 81.083 126.895 80.823 126.752C80.563 126.605 80.251 126.531 79.887 126.531C79.4493 126.531 79.0723 126.637 78.756 126.849C78.4396 127.062 78.197 127.404 78.028 127.876C77.859 128.349 77.7745 128.973 77.7745 129.748C77.7745 130.918 77.9608 131.766 78.3335 132.29C78.7105 132.81 79.2283 133.07 79.887 133.07C80.251 133.07 80.563 132.988 80.823 132.823C81.083 132.654 81.2931 132.433 81.4535 132.16C81.6138 131.883 81.7243 131.579 81.785 131.25H83.774C83.7176 131.696 83.6093 132.123 83.449 132.53C83.2886 132.933 83.0611 133.293 82.7665 133.609C82.4718 133.926 82.0926 134.175 81.629 134.357C81.1653 134.539 80.6041 134.63 79.9455 134.63C79.0701 134.63 78.314 134.426 77.677 134.019C77.04 133.612 76.5481 133.04 76.2015 132.303C75.8591 131.566 75.688 130.706 75.688 129.722C75.688 128.734 75.8591 127.887 76.2015 127.181C76.5438 126.47 77.0335 125.924 77.6705 125.543C78.3075 125.162 79.0658 124.971 79.9455 124.971ZM83.8397 126.791V125.101H91.3602V126.791H88.5847V134.5H86.6802V126.791H83.8397ZM92.0064 134.5V125.101H98.4609L98.4544 126.7H93.9109V128.981H97.8564V130.548H93.8979V132.881L98.5259 132.888V134.5H92.0064ZM99.6845 125.101C99.7322 125.101 99.8644 125.101 100.081 125.101C100.302 125.101 100.56 125.101 100.855 125.101C101.154 125.101 101.45 125.103 101.745 125.107C102.044 125.107 102.293 125.11 102.493 125.114C103.632 125.14 104.562 125.344 105.281 125.725C106 126.106 106.527 126.639 106.861 127.324C107.199 128.009 107.368 128.819 107.368 129.755C107.368 130.73 107.19 131.573 106.835 132.283C106.479 132.99 105.935 133.536 105.203 133.921C104.475 134.307 103.55 134.5 102.428 134.5H99.6845V125.101ZM101.596 126.635V132.966H102.467C103.004 132.966 103.491 132.862 103.929 132.654C104.371 132.446 104.724 132.106 104.989 131.633C105.253 131.161 105.385 130.531 105.385 129.742C105.385 129.01 105.268 128.416 105.034 127.961C104.8 127.502 104.466 127.166 104.033 126.953C103.6 126.741 103.086 126.635 102.493 126.635H101.596Z" fill="white"/>
<mask id="path-2-inside-1_2389_11829" fill="white">
<path d="M22.623 12.5H99.623V75.5H22.623V12.5Z"/>
</mask>
<path d="M22.623 15.5H99.623V9.5H22.623V15.5ZM99.623 72.5H22.623V78.5H99.623V72.5Z" fill="#F0F0F0" mask="url(#path-2-inside-1_2389_11829)"/>
<path d="M59.1046 47.48C59.1046 49.8133 58.7246 51.84 57.9646 53.56C57.2046 55.2667 55.9713 56.5867 54.2646 57.52C52.5713 58.44 50.3246 58.9 47.5246 58.9C44.7113 58.9 42.4579 58.4333 40.7646 57.5C39.0713 56.5533 37.8446 55.2133 37.0846 53.48C36.3379 51.7467 35.9646 49.68 35.9646 47.28V29.58H41.9046V47.72C41.9046 49.88 42.4246 51.46 43.4646 52.46C44.5046 53.4467 45.8579 53.94 47.5246 53.94C48.6313 53.94 49.6113 53.7267 50.4646 53.3C51.3179 52.86 51.9846 52.1867 52.4646 51.28C52.9579 50.36 53.2046 49.1733 53.2046 47.72V29.58H59.1046V47.48ZM87.3499 58.5H81.2899L76.5899 47.36H70.7299V58.5H64.9099V29.58H77.1099C79.4166 29.58 81.3033 29.9467 82.7699 30.68C84.2366 31.4133 85.3166 32.4333 86.0099 33.74C86.7033 35.0333 87.0499 36.5267 87.0499 38.22C87.0499 39.74 86.8099 41.0267 86.3299 42.08C85.8633 43.12 85.2433 43.9867 84.4699 44.68C83.7099 45.3733 82.8766 45.94 81.9699 46.38L87.3499 58.5ZM76.0699 42.86C77.6299 42.86 78.8633 42.44 79.7699 41.6C80.6899 40.76 81.1499 39.68 81.1499 38.36C81.1499 37.0267 80.7099 35.9733 79.8299 35.2C78.9499 34.4267 77.8366 34.04 76.4899 34.04H70.7299V42.86H76.0699Z" fill="white"/>
</g>
<defs>
<clipPath id="clip0_2389_11829">
<rect width="119" height="150" fill="white" transform="translate(0.623047 0.5)"/>
</clipPath>
</defs>
</svg>
