<?xml version="1.0" encoding="utf-8"?>
<!-- Generator: Adobe Illustrator 16.0.4, SVG Export Plug-In . SVG Version: 6.00 Build 0)  -->
<!DOCTYPE svg PUBLIC "-//W3C//DTD SVG 1.1//EN" "http://www.w3.org/Graphics/SVG/1.1/DTD/svg11.dtd">
<svg version="1.1" id="Capa_1" xmlns="http://www.w3.org/2000/svg" xmlns:xlink="http://www.w3.org/1999/xlink" x="0px" y="0px"
	 width="216px" height="146px" viewBox="0 0 216 146" enable-background="new 0 0 216 146" xml:space="preserve">
<path fill="#000" d="M64.2,17.2H52.7v-5.7c0-3-2.5-5.5-5.5-5.5h-14c-3,0-5.5,2.5-5.5,5.5v5.7H16.2c-5.2,0-9.5,4.3-9.5,9.5v32
			c0,5.2,4.3,9.5,9.5,9.5h1.1c0.3,3.4,3.1,6,6.5,6s6.2-2.6,6.5-6h20.1c0.3,3.4,3.1,6,6.5,6s6.2-2.6,6.5-6h0.9c5.2,0,9.5-4.3,9.5-9.5
			v-32C73.7,21.4,69.4,17.2,64.2,17.2z M27.3,61.2v-37h26v37H27.3z M34.7,13h11v4.2h-11V13z M13.7,58.7v-32c0-1.4,1.1-2.5,2.5-2.5
			h4.1v37h-4.1C14.8,61.2,13.7,60,13.7,58.7z M66.7,58.7c0,1.4-1.1,2.5-2.5,2.5h-3.9v-37h3.9c1.4,0,2.5,1.1,2.5,2.5V58.7z"/>
</svg>