<?xml version="1.0" encoding="UTF-8"?><svg id="Layer_1" xmlns="http://www.w3.org/2000/svg" viewBox="0 0 792 342"><defs><style>.cls-1{fill:#1d75bc;}.cls-1,.cls-2{stroke-width:0px;}.cls-2{fill:#231f20;}</style></defs><path class="cls-1" d="M282.27,118.01l-10.23,27.61c-19.19,21.32-36.55,44.84-51.75,70.2-.03.03-.06.08-.08.13-5.03,8.42-11.89,16.13-20.67,22.69-2.86,2.1-5.82,3.99-8.86,5.66-18.55,10.23-40.31,12.7-61.15,9.28.02-.05.03-.1.05-.14,12.43,1.51,25.32-.21,36.71-4.93,47.32-18.98,75.26-83.32,46.7-127.49.05-.05.08-.1.13-.14,12.32,17.47,18.65,38.16,17.84,58.17,15.9-22.42,32.92-42.8,51.32-61.04Z"/><polygon class="cls-2" points="322.5 253.39 272.78 253.39 281.37 228.48 313.83 228.48 322.5 253.39"/><polygon class="cls-2" points="368.76 253.39 340.9 253.39 332.23 228.49 297.69 129.4 297.25 129.4 263.06 228.49 254.47 253.39 226.36 253.39 261.59 158.17 270.27 134.74 282.33 102.14 312.78 102.14 315.42 109.26 368.76 253.39"/><path class="cls-2" d="M389.73,213.04c10.32,10.99,26.47,20.64,47.33,20.64s30.06-10.54,30.06-20.41c0-13.46-15.93-17.5-34.1-22.21-24.45-6.06-53.16-13.23-53.16-44.86,0-24.67,21.76-43.74,54.51-43.74,23.33,0,42.17,7.4,56.08,20.86l-15.03,19.51c-11.66-11.66-27.59-17.05-43.29-17.05s-25.35,7.4-25.35,18.62,15.25,15.48,32.97,19.96c24.67,6.28,54.06,13.91,54.06,46.43,0,24.9-17.5,46.21-57.87,46.21-27.59,0-47.55-9.64-60.79-23.78l14.58-20.19Z"/><path class="cls-2" d="M518.02,104.7h26.24v149.61h-26.24V104.7Z"/><path class="cls-2" d="M581.05,213.04c10.32,10.99,26.47,20.64,47.33,20.64s30.06-10.54,30.06-20.41c0-13.46-15.93-17.5-34.1-22.21-24.45-6.06-53.16-13.23-53.16-44.86,0-24.67,21.76-43.74,54.51-43.74,23.33,0,42.17,7.4,56.08,20.86l-15.03,19.51c-11.66-11.66-27.59-17.05-43.29-17.05s-25.35,7.4-25.35,18.62,15.25,15.48,32.97,19.96c24.67,6.28,54.06,13.91,54.06,46.43,0,24.9-17.5,46.21-57.87,46.21-27.59,0-47.55-9.64-60.79-23.78l14.58-20.19Z"/><path class="cls-1" d="M727.27,92.58v25.98h-15.62v-25.98h-22.62v-14.14h22.62v-24.91h15.62v24.91h22.62v14.14h-22.62Z"/><path class="cls-1" d="M663.78,69.9c-78.07-27.63-162.11-33.6-240.1-12.87-38.89,10.22-75.45,28.1-108.26,52.23l-2.63-7.12h-4.23c46.22-33.4,101.51-53.64,169.38-59.12,62.09-4.98,125.83,4.05,185.84,26.87Z"/><path class="cls-2" d="M102.17,276.93c5.35,0,9.12,3.91,9.12,9.23s-3.77,9.23-9.12,9.23-9.12-3.91-9.12-9.23,3.77-9.23,9.12-9.23ZM102.17,279.71c-3.61,0-5.91,2.75-5.91,6.45s2.3,6.45,5.91,6.45,5.91-2.78,5.91-6.45-2.33-6.45-5.91-6.45Z"/><path class="cls-2" d="M122.96,286.98c0-2.01-1.02-2.67-2.59-2.67-1.44,0-2.67.86-3.32,1.74v9.01h-2.81v-12.92h2.81v1.77c.86-1.02,2.51-2.09,4.55-2.09,2.78,0,4.17,1.5,4.17,4.15v9.09h-2.81v-8.08Z"/><path class="cls-2" d="M135.16,281.82c3.88,0,6.37,2.97,6.37,7.04v.67h-9.98c.21,1.95,1.68,3.56,4.12,3.56,1.26,0,2.75-.51,3.66-1.42l1.28,1.85c-1.28,1.23-3.18,1.87-5.24,1.87-3.88,0-6.77-2.7-6.77-6.79,0-3.74,2.73-6.77,6.55-6.77ZM131.52,287.55h7.28c-.05-1.52-1.1-3.42-3.64-3.42-2.41,0-3.5,1.85-3.64,3.42Z"/><path class="cls-2" d="M162.58,291.64h-8.45l-1.31,3.42h-3.42l7.01-17.84h3.91l7.01,17.84h-3.42l-1.31-3.42ZM155.01,288.88h6.69l-3.34-9.01-3.34,9.01Z"/><path class="cls-2" d="M175.07,281.82c2.51,0,4.04,1.07,4.95,2.3l-1.85,1.71c-.72-1.02-1.71-1.52-2.97-1.52-2.35,0-3.91,1.77-3.91,4.28s1.55,4.31,3.91,4.31c1.26,0,2.25-.54,2.97-1.52l1.85,1.71c-.91,1.23-2.43,2.3-4.95,2.3-3.93,0-6.69-2.86-6.69-6.79s2.75-6.77,6.69-6.77Z"/><path class="cls-2" d="M191.55,299.98v-6.71c-1.04,1.39-2.51,2.11-4.15,2.11-3.34,0-5.72-2.54-5.72-6.79s2.38-6.77,5.72-6.77c1.69,0,3.18.8,4.15,2.09v-1.77h2.81v17.84h-2.81ZM191.55,286.05c-.62-.96-2.01-1.74-3.32-1.74-2.22,0-3.64,1.79-3.64,4.28s1.42,4.31,3.64,4.31c1.31,0,2.7-.8,3.32-1.74v-5.11Z"/><path class="cls-2" d="M206.72,293.35c-.94,1.04-2.54,2.03-4.57,2.03-2.78,0-4.15-1.44-4.15-4.09v-9.15h2.81v8.13c0,2.01,1.02,2.62,2.59,2.62,1.42,0,2.65-.8,3.32-1.69v-9.07h2.81v12.92h-2.81v-1.71Z"/><path class="cls-2" d="M212.82,278.26c0-.96.8-1.74,1.74-1.74s1.74.78,1.74,1.74-.78,1.74-1.74,1.74-1.74-.78-1.74-1.74ZM213.17,282.14h2.81v12.92h-2.81v-12.92Z"/><path class="cls-2" d="M219.78,291.34c.91.94,2.7,1.82,4.39,1.82s2.54-.62,2.54-1.58c0-1.12-1.36-1.52-2.94-1.87-2.22-.48-4.87-1.07-4.87-3.96,0-2.11,1.82-3.93,5.08-3.93,2.19,0,3.85.78,5.03,1.82l-1.18,1.98c-.78-.88-2.22-1.55-3.82-1.55-1.47,0-2.41.54-2.41,1.44,0,.99,1.28,1.34,2.81,1.69,2.25.48,5,1.12,5,4.17,0,2.27-1.9,4.01-5.38,4.01-2.19,0-4.2-.7-5.54-2.01l1.28-2.03Z"/><path class="cls-2" d="M231.9,278.26c0-.96.8-1.74,1.74-1.74s1.74.78,1.74,1.74-.78,1.74-1.74,1.74-1.74-.78-1.74-1.74ZM232.25,282.14h2.81v12.92h-2.81v-12.92Z"/><path class="cls-2" d="M239.26,292.07v-7.46h-2.14v-2.46h2.14v-3.53h2.81v3.53h2.62v2.46h-2.62v6.77c0,.88.43,1.52,1.23,1.52.54,0,1.04-.21,1.26-.46l.67,2.11c-.51.48-1.34.83-2.65.83-2.17,0-3.32-1.18-3.32-3.32Z"/><path class="cls-2" d="M246.88,278.26c0-.96.8-1.74,1.74-1.74s1.74.78,1.74,1.74-.78,1.74-1.74,1.74-1.74-.78-1.74-1.74ZM247.23,282.14h2.81v12.92h-2.81v-12.92Z"/><path class="cls-2" d="M252.87,288.59c0-3.69,2.54-6.77,6.63-6.77s6.66,3.08,6.66,6.77-2.51,6.79-6.66,6.79-6.63-3.08-6.63-6.79ZM263.25,288.59c0-2.27-1.34-4.28-3.74-4.28s-3.72,2.01-3.72,4.28,1.34,4.31,3.72,4.31,3.74-2.01,3.74-4.31Z"/><path class="cls-2" d="M277.73,286.98c0-2.01-1.02-2.67-2.59-2.67-1.44,0-2.67.86-3.32,1.74v9.01h-2.81v-12.92h2.81v1.77c.86-1.02,2.51-2.09,4.55-2.09,2.78,0,4.17,1.5,4.17,4.15v9.09h-2.81v-8.08Z"/><path class="cls-2" d="M291.72,290.14c1.23,1.31,3.16,2.46,5.64,2.46s3.58-1.26,3.58-2.43c0-1.6-1.9-2.09-4.07-2.65-2.92-.72-6.34-1.58-6.34-5.35,0-2.94,2.59-5.22,6.5-5.22,2.78,0,5.03.88,6.69,2.49l-1.79,2.33c-1.39-1.39-3.29-2.03-5.16-2.03s-3.02.88-3.02,2.22,1.82,1.85,3.93,2.38c2.94.75,6.45,1.66,6.45,5.54,0,2.97-2.09,5.51-6.9,5.51-3.29,0-5.67-1.15-7.25-2.83l1.74-2.41Z"/><path class="cls-2" d="M306.14,288.59c0-3.69,2.54-6.77,6.63-6.77s6.66,3.08,6.66,6.77-2.51,6.79-6.66,6.79-6.63-3.08-6.63-6.79ZM316.52,288.59c0-2.27-1.34-4.28-3.74-4.28s-3.72,2.01-3.72,4.28,1.34,4.31,3.72,4.31,3.74-2.01,3.74-4.31Z"/><path class="cls-2" d="M322.27,277.22h2.81v17.84h-2.81v-17.84Z"/><path class="cls-2" d="M337.44,293.35c-.94,1.04-2.54,2.03-4.57,2.03-2.78,0-4.15-1.44-4.15-4.09v-9.15h2.81v8.13c0,2.01,1.02,2.62,2.59,2.62,1.42,0,2.65-.8,3.32-1.69v-9.07h2.81v12.92h-2.81v-1.71Z"/><path class="cls-2" d="M344.45,292.07v-7.46h-2.14v-2.46h2.14v-3.53h2.81v3.53h2.62v2.46h-2.62v6.77c0,.88.43,1.52,1.23,1.52.54,0,1.04-.21,1.26-.46l.67,2.11c-.51.48-1.34.83-2.65.83-2.17,0-3.32-1.18-3.32-3.32Z"/><path class="cls-2" d="M352.07,278.26c0-.96.8-1.74,1.74-1.74s1.74.78,1.74,1.74-.78,1.74-1.74,1.74-1.74-.78-1.74-1.74ZM352.42,282.14h2.81v12.92h-2.81v-12.92Z"/><path class="cls-2" d="M358.07,288.59c0-3.69,2.54-6.77,6.63-6.77s6.66,3.08,6.66,6.77-2.51,6.79-6.66,6.79-6.63-3.08-6.63-6.79ZM368.45,288.59c0-2.27-1.34-4.28-3.74-4.28s-3.72,2.01-3.72,4.28,1.34,4.31,3.72,4.31,3.74-2.01,3.74-4.31Z"/><path class="cls-2" d="M382.92,286.98c0-2.01-1.02-2.67-2.59-2.67-1.44,0-2.67.86-3.32,1.74v9.01h-2.81v-12.92h2.81v1.77c.86-1.02,2.51-2.09,4.55-2.09,2.78,0,4.17,1.5,4.17,4.15v9.09h-2.81v-8.08Z"/><path class="cls-2" d="M396.91,284.6h-2.14v-2.46h2.14v-.72c0-2.89,1.71-4.47,4.09-4.47.88,0,1.69.19,2.25.51l-.62,2.06c-.32-.19-.72-.27-1.12-.27-1.1,0-1.79.72-1.79,2.17v.72h2.62v2.46h-2.62v10.46h-2.81v-10.46Z"/><path class="cls-2" d="M403.68,288.59c0-3.69,2.54-6.77,6.63-6.77s6.66,3.08,6.66,6.77-2.51,6.79-6.66,6.79-6.63-3.08-6.63-6.79ZM414.06,288.59c0-2.27-1.34-4.28-3.74-4.28s-3.72,2.01-3.72,4.28,1.34,4.31,3.72,4.31,3.74-2.01,3.74-4.31Z"/><path class="cls-2" d="M419.82,282.14h2.81v1.9c.96-1.23,2.51-2.19,4.2-2.19v2.78c-.24-.05-.54-.08-.88-.08-1.18,0-2.75.8-3.32,1.71v8.8h-2.81v-12.92Z"/><path class="cls-2" d="M436.06,277.22h3.13v17.84h-3.13v-17.84Z"/><path class="cls-2" d="M451.62,286.98c0-2.01-1.02-2.67-2.59-2.67-1.44,0-2.67.86-3.32,1.74v9.01h-2.81v-12.92h2.81v1.77c.86-1.02,2.51-2.09,4.55-2.09,2.78,0,4.17,1.5,4.17,4.15v9.09h-2.81v-8.08Z"/><path class="cls-2" d="M458.63,292.07v-7.46h-2.14v-2.46h2.14v-3.53h2.81v3.53h2.62v2.46h-2.62v6.77c0,.88.43,1.52,1.23,1.52.54,0,1.04-.21,1.26-.46l.67,2.11c-.51.48-1.34.83-2.65.83-2.17,0-3.32-1.18-3.32-3.32Z"/><path class="cls-2" d="M472.36,281.82c3.88,0,6.37,2.97,6.37,7.04v.67h-9.98c.21,1.95,1.68,3.56,4.12,3.56,1.26,0,2.75-.51,3.66-1.42l1.28,1.85c-1.28,1.23-3.18,1.87-5.24,1.87-3.88,0-6.77-2.7-6.77-6.79,0-3.74,2.73-6.77,6.55-6.77ZM468.72,287.55h7.28c-.05-1.52-1.1-3.42-3.64-3.42-2.41,0-3.5,1.85-3.64,3.42Z"/><path class="cls-2" d="M482.66,296.35c1.04,1.2,2.38,1.66,4.09,1.66,1.85,0,3.83-.86,3.83-3.5v-1.55c-.99,1.28-2.46,2.14-4.15,2.14-3.29,0-5.72-2.38-5.72-6.63s2.41-6.63,5.72-6.63c1.63,0,3.1.75,4.15,2.11v-1.79h2.81v12.25c0,4.65-3.45,5.91-6.63,5.91-2.19,0-3.83-.48-5.4-1.93l1.31-2.03ZM490.58,286.05c-.62-.96-2.01-1.74-3.32-1.74-2.22,0-3.64,1.66-3.64,4.15s1.42,4.15,3.64,4.15c1.31,0,2.7-.78,3.32-1.74v-4.81Z"/><path class="cls-2" d="M497.03,282.14h2.81v1.9c.96-1.23,2.51-2.19,4.2-2.19v2.78c-.24-.05-.54-.08-.88-.08-1.18,0-2.75.8-3.32,1.71v8.8h-2.81v-12.92Z"/><path class="cls-2" d="M514.2,293.67c-.96,1.1-2.46,1.71-4.17,1.71-2.11,0-4.49-1.42-4.49-4.28s2.38-4.2,4.49-4.2c1.74,0,3.24.56,4.17,1.66v-1.93c0-1.5-1.23-2.41-3.02-2.41-1.44,0-2.7.53-3.83,1.63l-1.15-1.95c1.5-1.42,3.37-2.09,5.43-2.09,2.86,0,5.38,1.2,5.38,4.68v8.56h-2.81v-1.39ZM514.2,290.17c-.64-.88-1.85-1.34-3.08-1.34-1.58,0-2.75.91-2.75,2.33s1.18,2.3,2.75,2.3c1.23,0,2.43-.45,3.08-1.34v-1.95Z"/><path class="cls-2" d="M521.21,292.07v-7.46h-2.14v-2.46h2.14v-3.53h2.81v3.53h2.62v2.46h-2.62v6.77c0,.88.43,1.52,1.23,1.52.54,0,1.04-.21,1.26-.46l.67,2.11c-.51.48-1.34.83-2.65.83-2.17,0-3.32-1.18-3.32-3.32Z"/><path class="cls-2" d="M534.93,281.82c3.88,0,6.37,2.97,6.37,7.04v.67h-9.98c.21,1.95,1.68,3.56,4.12,3.56,1.26,0,2.75-.51,3.66-1.42l1.28,1.85c-1.28,1.23-3.18,1.87-5.24,1.87-3.88,0-6.77-2.7-6.77-6.79,0-3.74,2.73-6.77,6.55-6.77ZM531.3,287.55h7.28c-.05-1.52-1.1-3.42-3.64-3.42-2.41,0-3.5,1.85-3.64,3.42Z"/><path class="cls-2" d="M553.18,293.3c-.99,1.28-2.49,2.09-4.15,2.09-3.32,0-5.75-2.51-5.75-6.77s2.41-6.79,5.75-6.79c1.6,0,3.1.75,4.15,2.11v-6.71h2.81v17.84h-2.81v-1.77ZM553.18,286.05c-.64-.96-2.01-1.74-3.34-1.74-2.22,0-3.64,1.79-3.64,4.31s1.42,4.28,3.64,4.28c1.34,0,2.7-.75,3.34-1.71v-5.14Z"/><path class="cls-2" d="M567.17,290.14c1.23,1.31,3.16,2.46,5.64,2.46s3.58-1.26,3.58-2.43c0-1.6-1.9-2.09-4.07-2.65-2.92-.72-6.34-1.58-6.34-5.35,0-2.94,2.59-5.22,6.5-5.22,2.78,0,5.03.88,6.69,2.49l-1.79,2.33c-1.39-1.39-3.29-2.03-5.16-2.03s-3.02.88-3.02,2.22,1.82,1.85,3.93,2.38c2.94.75,6.45,1.66,6.45,5.54,0,2.97-2.09,5.51-6.9,5.51-3.29,0-5.67-1.15-7.25-2.83l1.74-2.41Z"/><path class="cls-2" d="M588.15,281.82c3.88,0,6.37,2.97,6.37,7.04v.67h-9.98c.21,1.95,1.68,3.56,4.12,3.56,1.26,0,2.75-.51,3.66-1.42l1.28,1.85c-1.28,1.23-3.18,1.87-5.24,1.87-3.88,0-6.77-2.7-6.77-6.79,0-3.74,2.73-6.77,6.55-6.77ZM584.51,287.55h7.28c-.05-1.52-1.1-3.42-3.64-3.42-2.41,0-3.5,1.85-3.64,3.42Z"/><path class="cls-2" d="M597.3,282.14h2.81v1.9c.96-1.23,2.51-2.19,4.2-2.19v2.78c-.24-.05-.54-.08-.88-.08-1.18,0-2.75.8-3.32,1.71v8.8h-2.81v-12.92Z"/><path class="cls-2" d="M604.71,282.14h3l3.77,9.68,3.77-9.68h3.02l-5.27,12.92h-3.02l-5.27-12.92Z"/><path class="cls-2" d="M619.69,278.26c0-.96.8-1.74,1.74-1.74s1.74.78,1.74,1.74-.78,1.74-1.74,1.74-1.74-.78-1.74-1.74ZM620.04,282.14h2.81v12.92h-2.81v-12.92Z"/><path class="cls-2" d="M632.37,281.82c2.51,0,4.04,1.07,4.95,2.3l-1.85,1.71c-.72-1.02-1.71-1.52-2.97-1.52-2.35,0-3.91,1.77-3.91,4.28s1.55,4.31,3.91,4.31c1.26,0,2.25-.54,2.97-1.52l1.85,1.71c-.91,1.23-2.43,2.3-4.95,2.3-3.93,0-6.69-2.86-6.69-6.79s2.75-6.77,6.69-6.77Z"/><path class="cls-2" d="M645.53,281.82c3.88,0,6.37,2.97,6.37,7.04v.67h-9.98c.21,1.95,1.68,3.56,4.12,3.56,1.26,0,2.75-.51,3.66-1.42l1.28,1.85c-1.28,1.23-3.18,1.87-5.24,1.87-3.88,0-6.77-2.7-6.77-6.79,0-3.74,2.73-6.77,6.55-6.77ZM641.89,287.55h7.28c-.05-1.52-1.1-3.42-3.64-3.42-2.41,0-3.5,1.85-3.64,3.42Z"/><path class="cls-2" d="M654.84,291.34c.91.94,2.7,1.82,4.39,1.82s2.54-.62,2.54-1.58c0-1.12-1.36-1.52-2.94-1.87-2.22-.48-4.87-1.07-4.87-3.96,0-2.11,1.82-3.93,5.08-3.93,2.19,0,3.85.78,5.03,1.82l-1.18,1.98c-.78-.88-2.22-1.55-3.82-1.55-1.47,0-2.41.54-2.41,1.44,0,.99,1.28,1.34,2.81,1.69,2.25.48,5,1.12,5,4.17,0,2.27-1.9,4.01-5.38,4.01-2.19,0-4.2-.7-5.54-2.01l1.28-2.03Z"/><path class="cls-1" d="M680.74,287.44v5.16h-3.1v-5.16h-4.49v-2.81h4.49v-4.95h3.1v4.95h4.49v2.81h-4.49Z"/><path class="cls-2" d="M205.78,107.67c-21.27-16.41-49.87-25.37-76.59-20.11-21.73,4.37-41.04,18.52-52.39,37.47-24.3,40.09-12.51,91.45,27.55,116.28,4.12,2.79,9.38,5.66,13.22,7.8-14.07-1.48-27.83-6.17-39.66-14.42-38.75-27.87-46.19-82.26-21.62-122.12,14.78-24.67,41.64-42.36,70.51-44.3,31.04-2.15,63.12,13.1,78.97,39.41h0Z"/></svg>