<?xml version="1.0" encoding="UTF-8"?><svg id="Layer_1" xmlns="http://www.w3.org/2000/svg" width="50" height="50" viewBox="0 0 1000 1000"><defs><style>.cls-1{fill:#fff;}.cls-1,.cls-2{stroke-width:0px;}.cls-2{fill:#00538f;}</style></defs><rect class="cls-2" width="1000" height="1000" rx="97.33" ry="97.33"/><path class="cls-1" d="M236.48,323.98c-46.74,0-84.77-38.02-84.77-84.76s38.03-84.78,84.77-84.78,84.77,38.03,84.77,84.78-38.03,84.76-84.77,84.76ZM236.48,196.51c-23.54,0-42.7,19.16-42.7,42.7s19.15,42.69,42.7,42.69,42.7-19.15,42.7-42.69-19.15-42.7-42.7-42.7Z"/><path class="cls-1" d="M352.94,459.13H121.04c-11.62,0-21.04-9.42-21.04-21.04v-28.56c0-70.38,57.25-127.63,127.62-127.63h18.74c70.37,0,127.62,57.25,127.62,127.63v28.56c0,11.61-9.42,21.04-21.04,21.04ZM142.07,417.06h189.83v-7.52c0-47.18-38.38-85.56-85.54-85.56h-18.74c-47.17,0-85.54,38.38-85.54,85.56v7.52Z"/><path class="cls-1" d="M762.5,323.98c-46.74,0-84.77-38.02-84.77-84.76s38.03-84.78,84.77-84.78,84.77,38.03,84.77,84.78-38.03,84.76-84.77,84.76ZM762.5,196.51c-23.54,0-42.7,19.16-42.7,42.7s19.15,42.69,42.7,42.69,42.7-19.15,42.7-42.69-19.15-42.7-42.7-42.7Z"/><path class="cls-1" d="M878.96,459.13h-149.99c-11.62,0-21.04-9.42-21.04-21.04s9.42-21.04,21.04-21.04h128.95v-7.52c0-47.18-38.38-85.56-85.54-85.56h-18.74c-47.17,0-85.54,38.38-85.54,85.56v28.56c0,11.61-9.42,21.04-21.04,21.04s-21.04-9.42-21.04-21.04v-28.56c0-70.38,57.25-127.63,127.62-127.63h18.74c70.37,0,127.62,57.25,127.62,127.63v28.56c0,11.61-9.42,21.04-21.04,21.04Z"/><path class="cls-1" d="M520.45,287.95c-9.07,0-17.45-5.92-20.16-15.05-.35-1.18-.59-2.36-.73-3.53-.13,1.11-.35,2.22-.66,3.31-3.18,11.18-14.81,17.64-25.99,14.46-40.53-11.55-68.84-49.17-68.84-91.48,0-52.58,42.78-95.36,95.36-95.36s95.36,42.79,95.36,95.36c0,41.9-28.1,79.48-68.35,91.42-1.99.59-4.01.86-5.99.86ZM499.42,142.37c-29.38,0-53.29,23.9-53.29,53.29,0,23.61,15.75,44.59,38.3,51.02,8.41,2.4,14.16,9.59,15.13,17.75.96-8.08,6.6-15.23,14.91-17.7,22.51-6.67,38.23-27.68,38.23-51.07,0-29.39-23.91-53.29-53.29-53.29Z"/><path class="cls-1" d="M647.06,459.13h-294.11c-11.62,0-21.04-9.42-21.04-21.04v-36.23c0-86.13,70.08-156.2,156.21-156.2h23.77c86.13,0,156.21,70.07,156.21,156.2v36.23c0,11.61-9.42,21.04-21.04,21.04ZM373.98,417.06h252.04v-15.19c0-62.93-51.2-114.13-114.14-114.13h-23.77c-62.93,0-114.14,51.2-114.14,114.13v15.19Z"/><path class="cls-1" d="M553.36,899.7h-108.04c-8.63,0-16.39-5.27-19.56-13.3l-33.15-83.82c-11.04-3.97-22.01-8.63-32.79-13.93l-81.41,35.17c-8,3.47-17.28,1.63-23.37-4.59l-76.4-78.03c-5.9-6.03-7.63-14.98-4.41-22.76l34.58-83.61c-5.46-11.56-10.07-22.79-13.93-33.99l-81.89-33.88c-7.86-3.25-12.99-10.93-12.99-19.43v-47.52c0-11.61,9.42-21.04,21.04-21.04s21.04,9.42,21.04,21.04v33.46l77.83,32.21c5.79,2.4,10.21,7.25,12.06,13.23,4.59,14.91,10.71,29.9,18.69,45.8,2.75,5.45,2.98,11.83.64,17.48l-32.89,79.52,56.57,57.77,77.23-33.36c5.85-2.53,12.57-2.27,18.2.73,14.57,7.74,29.59,14.12,44.62,18.96,5.99,1.93,10.81,6.44,13.12,12.29l31.47,79.56h79.46l31.61-79.59c2.32-5.83,7.13-10.34,13.11-12.26,14.83-4.78,29.45-10.98,44.7-19,5.64-2.96,12.29-3.2,18.12-.68l77.23,33.36,56.56-57.76-33.03-79.5c-2.37-5.7-2.11-12.16.71-17.67,7.46-14.56,13.81-29.97,18.84-45.81,1.88-5.9,6.27-10.68,12-13.05l77.83-32.21v-33.46c0-11.61,9.42-21.04,21.04-21.04s21.04,9.42,21.04,21.04v47.52c0,8.51-5.13,16.19-12.99,19.43l-81.96,33.91c-4.06,11.63-8.74,23.01-13.98,34.02l34.7,83.53c3.24,7.79,1.51,16.76-4.4,22.79l-76.4,78.03c-6.09,6.22-15.38,8.07-23.37,4.59l-81.44-35.18c-11.03,5.41-21.87,10.03-32.79,13.94l-33.3,83.85c-3.18,8.01-10.93,13.27-19.55,13.27Z"/><path class="cls-1" d="M499.42,683.92c-103.94,0-194.73-75.59-215.88-179.73-2.31-11.4,5.05-22.49,16.44-24.8,11.42-2.3,22.49,5.04,24.8,16.42,17.18,84.63,90.63,146.04,174.64,146.04s157.46-61.41,174.64-146.04c2.31-11.38,13.39-18.74,24.8-16.42,11.39,2.31,18.74,13.41,16.44,24.8-21.15,104.14-111.94,179.73-215.88,179.73Z"/></svg>