<?xml version="1.0" encoding="UTF-8"?><svg id="Layer_1" xmlns="http://www.w3.org/2000/svg" viewBox="0 0 1000 1000"><defs><style>.cls-1{fill:#fff;}.cls-1,.cls-2{stroke-width:0px;}.cls-2{fill:#00538f;}</style></defs><rect class="cls-2" width="1000" height="1000" rx="97.33" ry="97.33"/><path class="cls-1" d="M498.22,724.24v156.44c0,10.66-8.65,19.31-19.31,19.31h-117.42c-10.66,0-19.31-8.65-19.31-19.31v-66.29c0-7-3.27-13.57-8.84-17.78l-154.1-116.36-14.82-11.2c-16.63-12.54-26.4-32.16-26.4-52.99v-306.24c0-21.22,17.02-38.72,38.24-38.88,23.16-.17,34.27,14.95,37.54,37.88l24.66,172.41c.59,4.09-2.8,7.59-6.92,7.28-1.4-.1-2.8-.16-4.2-.16-19.63,0-38.97,9.98-50.06,28.72-7.88,13.33-9.93,28.98-5.97,43.95,3.94,14.96,13.49,27.5,26.86,35.29l127.44,74.28c.19.11.4.22.59.32l.08.03c4.61,2.23,10.22.59,12.86-3.88l.11-.18c2.8-4.73,1.22-10.84-3.54-13.62l-127.46-74.28c-18.08-10.56-24.19-33.75-13.65-51.84,10.38-17.83,33.45-24.33,51.8-13.66l169.11,98.56,27.41,15.97c34.25,19.94,55.28,56.58,55.28,96.19ZM523.98,724.24v156.44c0,10.66,8.65,19.31,19.31,19.31h117.42c10.66,0,19.31-8.65,19.31-19.31v-66.29c0-7,3.27-13.57,8.84-17.78l154.1-116.36,14.82-11.2c16.63-12.54,26.4-32.16,26.4-52.99v-306.24c0-21.22-17.02-38.72-38.24-38.88-23.16-.17-34.27,14.95-37.54,37.88l-24.66,172.41c-.59,4.09,2.8,7.59,6.92,7.28,1.4-.1,2.8-.16,4.2-.16,19.63,0,38.97,9.98,50.06,28.72,7.88,13.33,9.93,28.98,5.97,43.95-3.94,14.96-13.49,27.5-26.86,35.29l-127.44,74.28c-.19.11-.4.22-.59.32l-.08.03c-4.61,2.23-10.22.59-12.86-3.88l-.11-.18c-2.8-4.73-1.22-10.84,3.54-13.62l127.46-74.28c18.08-10.56,24.19-33.75,13.65-51.84-10.38-17.83-33.45-24.33-51.8-13.66l-169.11,98.56-27.41,15.97c-34.25,19.94-55.28,56.58-55.28,96.19ZM322.58,213.41l185.32,107.01c1.98,1.14,4.43,1.14,6.41,0l185.32-107.01c2.14-1.23,2.14-4.32,0-5.55l-185.32-107.01c-1.98-1.14-4.43-1.14-6.41,0l-185.32,107.01c-2.14,1.23-2.14,4.32,0,5.55ZM309.52,453.9l185.68,107.36c2.14,1.23,4.81-.31,4.81-2.77v-213.18c0-2.29-1.22-4.41-3.21-5.55l-185.67-107.04c-2.14-1.23-4.8.31-4.8,2.78v212.86c0,2.29,1.22,4.4,3.2,5.55ZM712.68,453.9l-185.68,107.36c-2.14,1.23-4.81-.31-4.81-2.77v-213.18c0-2.29,1.22-4.41,3.21-5.55l185.67-107.04c2.14-1.23,4.8.31,4.8,2.78v212.86c0,2.29-1.22,4.4-3.2,5.55Z"/></svg>