<?xml version="1.0" encoding="UTF-8"?><svg id="Layer_1" xmlns="http://www.w3.org/2000/svg" viewBox="0 0 1000 1000"><defs><style>.cls-1{fill:#fff;}.cls-1,.cls-2{stroke-width:0px;}.cls-2{fill:#00538f;}</style></defs><rect class="cls-2" width="1000" height="1000" rx="97.33" ry="97.33"/><path class="cls-1" d="M202.71,677.78c-7.5,0-13.58-6.08-13.58-13.58v-70.94c0-7.5,6.08-13.58,13.58-13.58s13.58,6.08,13.58,13.58v70.94c0,7.5-6.08,13.58-13.58,13.58Z"/><path class="cls-1" d="M449.44,754.31c-7.5,0-13.58-6.08-13.58-13.58v-72.78c0-7.5,6.08-13.58,13.58-13.58s13.58,6.08,13.58,13.58v72.78c0,7.5-6.08,13.58-13.58,13.58Z"/><path class="cls-1" d="M574.31,754.31c-7.5,0-13.58-6.08-13.58-13.58v-72.78c0-7.5,6.08-13.58,13.58-13.58s13.58,6.08,13.58,13.58v72.78c0,7.5-6.08,13.58-13.58,13.58Z"/><path class="cls-1" d="M511.87,543.29c-41.91,0-76.01-34.1-76.01-76.01s34.1-76.02,76.01-76.02,76.02,34.1,76.02,76.02-34.1,76.01-76.02,76.01ZM511.87,418.42c-26.94,0-48.85,21.92-48.85,48.86s21.92,48.85,48.85,48.85,48.86-21.92,48.86-48.85-21.92-48.86-48.86-48.86Z"/><path class="cls-1" d="M604.69,754.31h-185.63c-20.78,0-38.27-15.57-40.68-36.21l-8.22-70.43c-2.85-24.45,4.9-49.02,21.26-67.4,16.36-18.38,39.86-28.93,64.48-28.93,3.53,0,6.92,1.37,9.45,3.83,26.08,25.27,66.95,25.27,93.03,0,2.54-2.46,5.93-3.83,9.45-3.83,24.62,0,48.12,10.55,64.48,28.93,16.37,18.39,24.12,42.96,21.26,67.4l-8.22,70.44c-2.41,20.64-19.9,36.2-40.68,36.2ZM450.89,578.71c-15.02,1.28-29.08,8.27-39.18,19.61-11.21,12.6-16.53,29.44-14.57,46.19l8.22,70.44c.81,6.95,6.7,12.19,13.69,12.19h185.63c6.99,0,12.88-5.24,13.69-12.19l8.22-70.44c1.96-16.75-3.35-33.59-14.57-46.19-10.1-11.34-24.16-18.34-39.18-19.61-35.24,30.18-86.73,30.17-121.96,0Z"/><path class="cls-1" d="M696.17,677.78c-7.5,0-13.58-6.08-13.58-13.58v-72.78c0-7.5,6.08-13.58,13.58-13.58s13.58,6.08,13.58,13.58v72.78c0,7.5-6.08,13.58-13.58,13.58Z"/><path class="cls-1" d="M821.04,677.78c-7.5,0-13.58-6.08-13.58-13.58v-72.78c0-7.5,6.08-13.58,13.58-13.58s13.58,6.08,13.58,13.58v72.78c0,7.5-6.08,13.58-13.58,13.58Z"/><path class="cls-1" d="M758.61,466.77c-41.92,0-76.02-34.1-76.02-76.02s34.1-76.01,76.02-76.01,76.01,34.1,76.01,76.01-34.1,76.02-76.01,76.02ZM758.61,341.9c-26.94,0-48.86,21.92-48.86,48.85s21.92,48.86,48.86,48.86,48.85-21.92,48.85-48.86-21.92-48.85-48.85-48.85Z"/><path class="cls-1" d="M851.42,677.78h-176.01c-7.5,0-13.58-6.08-13.58-13.58s6.08-13.58,13.58-13.58h176.01c7,0,12.89-5.24,13.69-12.19l8.22-70.44c1.96-16.75-3.35-33.59-14.56-46.19-10.1-11.35-24.17-18.34-39.18-19.62-35.25,30.17-86.74,30.17-121.97,0-27.33,2.33-49.97,23.49-53.64,51.04-.99,7.43-7.92,12.63-15.26,11.67-7.44-.99-12.66-7.82-11.67-15.26,5.69-42.66,42.48-74.83,85.59-74.83,3.53,0,6.92,1.37,9.45,3.83,26.08,25.27,66.95,25.27,93.03,0,2.54-2.46,5.93-3.83,9.45-3.83,24.62,0,48.12,10.55,64.48,28.94,16.37,18.39,24.11,42.96,21.26,67.4l-8.22,70.44c-2.41,20.64-19.89,36.2-40.68,36.2Z"/><path class="cls-1" d="M327.58,677.78c-7.5,0-13.58-6.08-13.58-13.58v-72.78c0-7.5,6.08-13.58,13.58-13.58s13.58,6.08,13.58,13.58v72.78c0,7.5-6.08,13.58-13.58,13.58Z"/><path class="cls-1" d="M265.15,466.77c-41.91,0-76.01-34.1-76.01-76.02s34.1-76.01,76.01-76.01,76.01,34.1,76.01,76.01-34.1,76.02-76.01,76.02ZM265.15,341.9c-26.94,0-48.85,21.92-48.85,48.85s21.92,48.86,48.85,48.86,48.85-21.92,48.85-48.86-21.92-48.85-48.85-48.85Z"/><path class="cls-1" d="M348.35,677.78h-176.02c-20.78,0-38.26-15.57-40.67-36.21l-8.23-70.43c-2.85-24.45,4.9-49.02,21.26-67.41,16.36-18.38,39.86-28.93,64.48-28.93,3.53,0,6.92,1.37,9.45,3.83,26.08,25.27,66.95,25.27,93.03,0,2.54-2.46,5.93-3.83,9.45-3.83,43.1,0,79.89,32.17,85.58,74.83.99,7.43-4.23,14.27-11.67,15.26-7.35,1.02-14.27-4.23-15.26-11.67-3.67-27.55-26.3-48.71-53.64-51.04-35.24,30.17-86.73,30.17-121.97,0-15.02,1.28-29.08,8.27-39.18,19.61-11.22,12.6-16.53,29.44-14.57,46.2l8.23,70.44c.81,6.95,6.7,12.19,13.69,12.19h176.02c7.5,0,13.58,6.08,13.58,13.58s-6.08,13.58-13.58,13.58Z"/><path class="cls-1" d="M511.87,279.65c-1.83,0-3.66-.37-5.38-1.11l-138.95-59.94-139.93,39.48c-7.22,2.01-14.72-2.16-16.76-9.38-2.04-7.22,2.16-14.72,9.38-16.76l144.57-40.79c3.01-.85,6.2-.63,9.07.6l137.61,59.37,224.67-111.07c6.73-3.31,14.88-.56,18.2,6.15,3.32,6.73.57,14.87-6.15,18.2l-230.3,113.86c-1.89.93-3.96,1.41-6.02,1.41Z"/><path class="cls-1" d="M723.85,226.6c-1.3,0-2.62-.19-3.93-.58-7.18-2.17-11.25-9.74-9.08-16.92l14.29-47.41-46.89-12.67c-7.24-1.95-11.52-9.41-9.57-16.65,1.96-7.25,9.42-11.52,16.65-9.57l60.39,16.32c3.54.95,6.55,3.3,8.33,6.51,1.78,3.21,2.19,7,1.13,10.52l-18.33,60.8c-1.77,5.87-7.16,9.67-13,9.67Z"/><path class="cls-1" d="M758.92,851.73h-493.78c-7.5,0-13.58-6.08-13.58-13.58v-129.51c0-7.5,6.08-13.58,13.58-13.58s13.58,6.08,13.58,13.58v115.93h466.62v-115.93c0-7.5,6.08-13.58,13.58-13.58s13.58,6.08,13.58,13.58v129.51c0,7.5-6.08,13.58-13.58,13.58Z"/><path class="cls-1" d="M511.87,851.73c-7.5,0-13.58-6.08-13.58-13.58v-43.85c0-7.5,6.08-13.58,13.58-13.58s13.58,6.08,13.58,13.58v43.85c0,7.5-6.08,13.58-13.58,13.58Z"/><path class="cls-1" d="M512.03,341.9c-1.77,0-3.53-.35-5.2-1.03l-146.22-60.65-66.29,13.45c-7.33,1.51-14.52-3.26-16.01-10.61-1.49-7.35,3.26-14.52,10.61-16.01l70.36-14.28c2.65-.52,5.41-.26,7.91.76l144.37,59.88,141.16-69.71c6.73-3.33,14.88-.56,18.19,6.16,3.32,6.73.56,14.87-6.16,18.19l-146.69,72.44c-1.89.93-3.95,1.41-6.02,1.41Z"/></svg>