<?xml version="1.0" encoding="UTF-8"?><svg id="Layer_1" xmlns="http://www.w3.org/2000/svg" viewBox="0 0 1000 1000"><defs><style>.cls-1{fill:#fff;}.cls-1,.cls-2{stroke-width:0px;}.cls-2{fill:#00538f;}</style></defs><rect class="cls-2" y="0" width="1000" height="1000" rx="97.33" ry="97.33"/><g id="g2987"><g id="g17240"><path id="path17151" class="cls-1" d="M677.99,360.42c-2.68,2.68-5.41,5.32-8.09,8,4.35,19.79-14.57,41.59-35.38,38.28-.96-.06-1.92-.21-2.85-.37l-5.74,5.7c41.72,30.34,68.46,76.9,68.47,128.98,0,91.46-82.19,165.69-183.38,165.69-45.24,0-86.72-14.88-118.73-39.47h95.62v-55.74H187.21l-.04,55.74h103.8c22.12,31.43,52.24,57.77,87.76,76.69-46.05,22.64-85.17,57.27-113.26,99.75v.13h477.78v-2.66c-26.82-39.56-63.1-72.14-105.73-94.33,79.95-40.23,134.12-117.27,134.12-205.8,0-72.52-36.45-137.43-93.65-180.58h0ZM265.46,860.67v36.71c.58.88,1.16,1.75,1.74,2.62h476.03v-39.33h-477.77Z"/><path id="rect17158" class="cls-1" d="M446.64,378.81c-4.61,4.61-4.61,12.03,0,16.64l75.09,75.09c4.61,4.61,12.03,4.61,16.64,0l75.48-75.48c-9.11-12.06-10.42-30.64,1.17-41.72,10.77-13.13,30.93-12.82,43.57-3.02l68.78-68.78c4.61-4.61,4.61-12.03,0-16.64l-75.09-75.09c-4.61-4.61-12.03-4.61-16.64,0l-189,189Z"/><path id="rect17160" class="cls-1" d="M398.01,451.11c-4.61,4.61-4.61,12.03,0,16.64l51.43,51.43c4.61,4.61,12.03,4.61,16.64,0l37.01-37.01-68.07-68.07-37.01,37.01Z"/><path id="rect17162" class="cls-1" d="M670.93,178.18l68.07,68.07,74.73-74.73c4.61-4.61,4.61-12.03,0-16.64l-51.43-51.43c-4.61-4.61-12.03-4.61-16.64,0l-74.73,74.73Z"/><path id="path17220" class="cls-1" d="M654.68,358.65c8.99,8.99,8.99,23.56,0,32.54-8.99,8.99-23.56,8.99-32.54,0h0c-8.99-8.99-8.99-23.56,0-32.54,8.99-8.99,23.56-8.99,32.54,0Z"/></g></g></svg>