<?xml version="1.0" encoding="UTF-8"?><svg id="Layer_1" xmlns="http://www.w3.org/2000/svg" viewBox="0 0 1000 1000"><defs><style>.cls-1{fill:#fff;}.cls-1,.cls-2{stroke-width:0px;}.cls-2{fill:#00538f;}</style></defs><rect class="cls-2" width="1000" height="1000" rx="97.33" ry="97.33"/><path class="cls-1" d="M552.77,147.31c-47.3,46.15-71.32,116.34-62.98,201.11,126.67-184.15,293.58-254.09,293.58-254.09-97.41-19.97-178.25,1.9-230.6,52.98Z"/><path class="cls-1" d="M783.37,94.33c-.08.05-.14.1-.22.15-3.89,2.04-197.8,104.7-305.29,343.43-123.8-115.64-264.09-131.1-266.95-131.41-.06-.01-.11-.02-.17-.04,23.42,116.78,115.01,166.53,213.56,123.64,15.07,15.39,27.55,30.47,38.08,44.61-3.63,9.34-7.08,18.94-10.43,28.66h65.16c7.07-33.91,18.51-74.69,37.16-119.13,160.85,5.35,260.9-114.43,229.09-289.91Z"/><path class="cls-1" d="M366.95,282.62c-45.07-18.83-100.64-12.52-156.21,23.84,0,0,120.84,2.36,244.79,85.53-15.68-54.69-47.86-92.36-88.58-109.37Z"/><path class="cls-1" d="M154.06,547.53c-10.79,198.99,148.02,365.47,345.95,365.47s356.73-166.24,345.92-365.47H154.06ZM251.12,672.48c25.8,19.11,58.36,35.08,96.16,46.74,11.66,37.8,27.65,70.38,46.76,96.18-64.09-27.4-115.53-78.83-142.92-142.92ZM476.95,835.9c-34.33-12.3-64.63-51.29-85.28-105.58,28.02,5.65,57.97,9.13,89.36,10.15v95.64c-1.35-.09-2.73-.09-4.07-.2ZM518.99,836.1v-95.64c31.39-1.01,61.33-4.49,89.34-10.14-20.65,54.29-50.95,93.27-85.27,105.58-1.35.11-2.72.11-4.07.2ZM605.96,815.41c19.12-25.8,35.1-58.38,46.76-96.18,37.79-11.66,70.36-27.64,96.16-46.74-27.39,64.1-78.83,115.54-142.92,142.93ZM769.58,585.5c-2.66,37.75-65.99,74.21-105.77,89.34,5.65-28.01,9.13-57.95,10.14-89.34h95.63ZM636.01,585.5c-1.32,36.47-6.36,71.16-14.39,102.63-31.47,8.03-66.16,13.07-102.63,14.39v-117.02h117.02ZM481.03,585.5v117.02c-36.47-1.32-71.18-6.36-102.65-14.39-8.03-31.47-13.07-66.16-14.39-102.63h117.04ZM326.04,585.5c1.01,31.39,4.49,61.33,10.14,89.34-40-15.22-103.19-52.49-105.77-89.34h95.63Z"/></svg>