<?xml version="1.0" encoding="UTF-8"?><svg id="Layer_1" xmlns="http://www.w3.org/2000/svg" viewBox="0 0 1000 1000"><defs><style>.cls-1{fill:#fff;}.cls-1,.cls-2{stroke-width:0px;}.cls-2{fill:#00538f;}</style></defs><rect class="cls-2" width="1000" height="1000" rx="97.33" ry="97.33"/><path class="cls-1" d="M295.41,596.05s1.32.23,3.3.58c2,.26,4.66.6,7.32.93,1.33.17,2.66.34,3.91.49,1.25.13,2.42.2,3.42.28,2,.15,3.34.26,3.34.26,2.36.16,4.6-.35,6.37-1.52,1.76-1.18,3.05-2.88,3.57-4.88,0,0,.83-3.34,1.67-6.68.8-3.34,1.6-6.68,1.6-6.68.77-3.37,2.12-6.5,3.84-9.28,1.73-2.81,3.85-5.4,6.24-7.52,1.19-1.06,2.45-2.02,3.77-2.87,1.31-.86,2.68-1.7,4.11-2.36,2.85-1.36,5.91-2.12,9.11-2.6l.23-.02.23-.03c1.6-.2,3.2-.25,4.79-.15.79.06,1.57.12,2.35.19.78.08,1.56.19,2.32.35,1.54.3,3.06.73,4.55,1.29.74.27,1.48.59,2.22.93.72.31,1.43.64,2.14,1.02,5.62,2.93,10.68,7.81,13.8,13.9,0,0,1.57,3.05,3.13,6.09,1.61,3.03,3.22,6.07,3.22,6.07.98,1.81,2.64,3.15,4.64,3.85.99.35,2.08.56,3.2.57,1.1-.02,2.24-.2,3.37-.58,0,0,1.27-.44,3.17-1.08,1.91-.65,4.47-1.47,6.95-2.49,2.49-.99,4.99-1.97,6.87-2.72.94-.35,1.71-.69,2.24-.94.54-.24.85-.38.85-.38,4.34-1.95,6.82-6.25,5.85-10.27,0,0-.81-3.36-1.63-6.71-.85-3.34-1.71-6.67-1.71-6.67-.89-3.35-1.15-6.76-.93-10.05.11-1.64.35-3.26.7-4.83.35-1.59.78-3.17,1.33-4.68.56-1.51,1.22-2.96,1.98-4.34.77-1.36,1.64-2.66,2.56-3.96.94-1.27,1.98-2.45,3.13-3.54,1.15-1.08,2.42-2.05,3.71-3.01l.19-.14.19-.13c5.33-3.67,11.49-5.45,17.93-5.38,6.33-.03,13.09,1.93,18.69,5.87,0,0,2.8,1.96,5.61,3.92,2.84,1.94,5.67,3.88,5.67,3.88,1.72,1.15,3.8,1.56,5.89,1.26,1.05-.15,2.09-.48,3.09-.97.97-.53,1.89-1.22,2.71-2.08,0,0,.93-.98,2.31-2.43,1.39-1.46,3.26-3.38,4.98-5.43,1.76-2.02,3.51-4.05,4.83-5.58.67-.75,1.17-1.42,1.54-1.88.36-.46.57-.73.57-.73,2.93-3.74,3.16-8.67.4-11.81,0,0-2.27-2.59-4.55-5.19-2.3-2.55-4.6-5.12-4.6-5.12-2.34-2.56-4.15-5.46-5.47-8.47-.67-1.51-1.18-3.05-1.61-4.61-.46-1.58-.79-3.17-.99-4.76-.77-6.35.18-12.72,3.21-18.44l.1-.2.1-.2c1.46-2.89,3.51-5.35,5.68-7.58,1.11-1.1,2.33-2.1,3.63-3.01.65-.46,1.32-.89,2.01-1.3.69-.41,1.35-.81,2.06-1.18,5.59-2.96,12.49-4.36,19.28-3.47,0,0,3.4.44,6.79.88,3.42.39,6.83.79,6.83.79,2.05.23,4.09-.39,5.8-1.64.86-.62,1.64-1.4,2.3-2.3.61-.92,1.1-1.97,1.43-3.1,0,0,.37-1.3.92-3.23.53-1.94,1.33-4.51,1.89-7.14.6-2.61,1.2-5.23,1.66-7.2.22-.98.41-1.8.51-2.38.1-.57.16-.9.16-.9.85-4.68-1.31-9.17-5.14-10.65,0,0-.8-.31-2-.78-1.21-.46-2.82-1.07-4.44-1.69-3.23-1.18-6.46-2.38-6.46-2.38-3.27-1.18-6.23-2.89-8.82-4.94-2.61-2.06-4.72-4.45-6.65-7.08-1.89-2.63-3.3-5.47-4.23-8.45-1.06-2.99-1.59-6.12-1.5-9.36v-.23s0-.23,0-.23c-.09-3.24.44-6.37,1.5-9.36.93-2.99,2.34-5.83,4.23-8.45,1.93-2.63,4.04-5.02,6.65-7.08,2.59-2.05,5.54-3.76,8.82-4.94,0,0,3.23-1.19,6.46-2.39,1.62-.61,3.23-1.23,4.44-1.68,1.2-.47,2-.78,2-.78,3.83-1.48,5.99-5.96,5.14-10.65,0,0-.06-.33-.16-.91-.1-.58-.29-1.39-.51-2.38-.46-1.96-1.06-4.58-1.66-7.2-.56-2.63-1.36-5.19-1.89-7.13-.55-1.94-.92-3.23-.92-3.23-.32-1.14-.81-2.18-1.43-3.1-.66-.91-1.43-1.69-2.3-2.31-1.71-1.24-3.75-1.85-5.8-1.63,0,0-3.41.39-6.83.79-3.39.44-6.79.87-6.79.87-6.79.89-13.68-.51-19.28-3.47-.71-.36-1.37-.77-2.06-1.18-.69-.41-1.36-.85-2.01-1.3-1.31-.91-2.52-1.92-3.63-3.02-2.17-2.23-4.22-4.69-5.68-7.58l-.1-.2-.1-.19c-3.03-5.71-3.98-12.1-3.21-18.44.2-1.6.53-3.19.99-4.77.43-1.56.94-3.09,1.61-4.6,1.32-3.02,3.13-5.91,5.47-8.47,0,0,2.3-2.56,4.6-5.12,2.27-2.59,4.55-5.18,4.55-5.18,2.76-3.14,2.52-8.07-.4-11.81,0,0-.21-.26-.57-.72-.37-.46-.87-1.13-1.54-1.89-1.31-1.51-3.07-3.55-4.83-5.57-1.72-2.05-3.59-3.97-4.98-5.43s-2.31-2.43-2.31-2.43c-.81-.85-1.73-1.56-2.71-2.08-1-.5-2.05-.82-3.09-.98-2.1-.31-4.17.1-5.89,1.26,0,0-2.84,1.93-5.67,3.87-2.8,1.97-5.61,3.93-5.61,3.93-5.6,3.94-12.36,5.91-18.69,5.87-6.44.06-12.6-1.72-17.93-5.39l-.19-.13-.19-.13c-1.3-.97-2.56-1.93-3.71-3.01-1.14-1.09-2.18-2.27-3.13-3.55-.92-1.3-1.8-2.59-2.56-3.96-.77-1.37-1.43-2.82-1.98-4.34-.55-1.5-.98-3.09-1.33-4.68-.35-1.56-.59-3.18-.7-4.83-.23-3.29.04-6.69.93-10.05,0,0,.85-3.34,1.71-6.66.81-3.36,1.63-6.71,1.63-6.71.97-4.02-1.51-8.32-5.85-10.27,0,0-.31-.14-.85-.38-.53-.25-1.3-.58-2.24-.94-1.88-.73-4.38-1.72-6.87-2.71-2.48-1.02-5.04-1.84-6.95-2.5-1.9-.64-3.17-1.07-3.17-1.07-1.13-.38-2.26-.57-3.37-.59-1.12.02-2.21.23-3.2.57-2.01.71-3.66,2.04-4.64,3.86,0,0-1.61,3.03-3.22,6.07-1.56,3.05-3.13,6.09-3.13,6.09-3.13,6.09-8.19,10.96-13.8,13.9-.7.37-1.42.71-2.14,1.02-.73.34-1.47.64-2.22.93-1.49.56-3.01.99-4.55,1.29-.77.15-1.54.27-2.32.34-.78.06-1.56.13-2.35.19-1.59.1-3.18.05-4.79-.16l-.23-.02-.23-.03c-3.21-.48-6.26-1.23-9.11-2.6-1.43-.66-2.8-1.5-4.11-2.36-1.32-.84-2.58-1.81-3.77-2.87-2.39-2.12-4.5-4.7-6.24-7.52-1.72-2.78-3.07-5.9-3.84-9.28,0,0-.8-3.34-1.6-6.67-.84-3.34-1.67-6.68-1.67-6.68-.52-2-1.81-3.7-3.57-4.88-1.76-1.17-4-1.68-6.37-1.52,0,0-1.34.1-3.34.26-1.01.09-2.18.15-3.42.29-1.25.15-2.58.32-3.91.48-2.66.35-5.32.68-7.32.94-1.98.35-3.3.57-3.3.57-2.33.42-4.38,1.52-5.83,3.03-.73.76-1.31,1.61-1.7,2.54-.39.95-.61,1.96-.62,3,0,0-.02,3.45-.04,6.9.02,3.44.05,6.88.05,6.88.04,3.47-.52,6.83-1.52,9.96-.51,1.57-1.13,3.06-1.85,4.52-.71,1.48-1.52,2.9-2.42,4.23-3.63,5.25-8.57,9.4-14.62,11.67l-.21.08-.21.09c-6.05,2.27-12.46,2.53-18.7.93-3.09-.75-6.13-1.99-8.99-3.7-1.43-.85-2.8-1.82-4.11-2.91-1.3-1.07-2.52-2.25-3.65-3.56,0,0-2.26-2.58-4.5-5.16-2.3-2.55-4.59-5.11-4.59-5.11-1.39-1.52-3.31-2.42-5.41-2.62-1.06-.11-2.15-.03-3.25.21-1.08.27-2.13.74-3.13,1.37,0,0-1.13.73-2.82,1.81-1.68,1.1-3.98,2.49-6.14,4.08-2.18,1.56-4.37,3.11-6.01,4.28-.82.57-1.49,1.08-1.95,1.45-.46.36-.73.56-.73.56-3.73,2.93-5.12,7.7-3.21,11.37,0,0,1.6,3.06,3.18,6.12,1.63,3.04,3.26,6.07,3.26,6.07,1.66,3.05,2.73,6.29,3.3,9.53.28,1.62.43,3.25.46,4.85.06,1.64,0,3.27-.17,4.88-.77,6.34-3.22,12.31-7.52,17.13l-.15.18-.14.17c-2.1,2.47-4.7,4.36-7.33,6-1.35.81-2.77,1.49-4.25,2.06-.74.29-1.49.55-2.26.78-.77.23-1.51.47-2.29.65-6.15,1.52-13.16,1.24-19.54-1.26,0,0-3.19-1.24-6.39-2.48-3.22-1.2-6.43-2.41-6.43-2.41-1.94-.71-4.06-.61-6.03.19-.98.4-1.93.96-2.76,1.69-.82.74-1.55,1.64-2.14,2.67,0,0-.67,1.16-1.67,2.91-.5.87-1.08,1.89-1.71,2.98-.64,1.09-1.21,2.3-1.84,3.49-1.22,2.39-2.44,4.78-3.36,6.57-.47.89-.78,1.67-1.04,2.2-.24.53-.38.84-.38.84-1.96,4.34-1.01,9.19,2.43,11.57,0,0,2.83,1.97,5.66,3.95,2.84,1.93,5.7,3.87,5.7,3.87,2.88,1.93,5.33,4.3,7.34,6.91,1.01,1.31,1.89,2.67,2.67,4.08.82,1.43,1.52,2.9,2.11,4.39.59,1.5,1.05,3.02,1.39,4.55.17.77.31,1.54.4,2.31.12.78.24,1.57.31,2.35.14,1.57.14,3.15,0,4.72-.15,1.57-.45,3.13-.78,4.72l-.1.44c-.36,1.58-.87,3.09-1.51,4.54-.32.73-.67,1.43-1.06,2.13-.35.7-.72,1.39-1.13,2.05-1.61,2.68-3.76,5.08-6.17,7.2-4.7,4.22-10.99,7.24-17.88,8,0,0-3.4.39-6.79.79-3.41.44-6.81.87-6.81.87-2.04.27-3.86,1.35-5.21,2.97-.68.81-1.24,1.75-1.65,2.79-.41,1.03-.69,2.16-.7,3.34,0,0-.14,5.35-.27,10.7.13,5.35.27,10.7.27,10.7,0,1.18.29,2.3.7,3.34.41,1.04.98,1.98,1.65,2.79,1.35,1.62,3.17,2.69,5.21,2.97,0,0,3.4.44,6.81.88,3.39.39,6.79.78,6.79.78,6.89.77,13.18,3.79,17.88,8.01,2.42,2.11,4.56,4.52,6.17,7.2.41.67.77,1.35,1.13,2.05.39.69.73,1.4,1.06,2.13.64,1.45,1.14,2.97,1.51,4.54l.1.44c.33,1.59.64,3.15.78,4.72.14,1.57.14,3.14,0,4.71-.06.79-.19,1.58-.31,2.35-.1.77-.23,1.55-.4,2.31-.34,1.54-.8,3.06-1.39,4.55-.59,1.5-1.29,2.97-2.11,4.39-.78,1.42-1.66,2.78-2.67,4.09-2.01,2.61-4.46,4.98-7.34,6.91,0,0-2.85,1.93-5.7,3.87-2.83,1.97-5.66,3.95-5.66,3.95-3.43,2.39-4.38,7.23-2.43,11.56,0,0,.14.31.38.85.26.53.57,1.31,1.04,2.2.92,1.79,2.14,4.17,3.36,6.57.63,1.18,1.2,2.4,1.84,3.49.63,1.09,1.21,2.11,1.71,2.98,1,1.74,1.67,2.91,1.67,2.91.6,1.02,1.32,1.92,2.14,2.67.83.73,1.79,1.29,2.76,1.69,1.97.79,4.09.89,6.03.18,0,0,3.22-1.2,6.43-2.41,3.2-1.24,6.39-2.48,6.39-2.48,6.38-2.49,13.39-2.78,19.54-1.25.78.19,1.52.42,2.29.65.77.23,1.52.49,2.26.77,1.48.58,2.91,1.27,4.25,2.06,2.64,1.65,5.23,3.55,7.33,6.01l.14.17.15.17c4.3,4.83,6.75,10.79,7.52,17.14.18,1.6.23,3.23.17,4.87-.02,1.61-.18,3.23-.46,4.86-.57,3.24-1.64,6.48-3.3,9.53,0,0-1.63,3.03-3.26,6.07-1.59,3.05-3.18,6.12-3.18,6.12-1.91,3.68-.52,8.44,3.21,11.37,0,0,.27.21.73.57.46.36,1.13.87,1.95,1.45,1.64,1.16,3.83,2.72,6.01,4.27,2.16,1.6,4.46,2.99,6.14,4.09,1.69,1.09,2.82,1.81,2.82,1.81,1,.64,2.05,1.11,3.13,1.37,1.1.25,2.19.31,3.25.22,2.1-.2,4.03-1.1,5.41-2.63,0,0,2.3-2.55,4.59-5.11,2.25-2.58,4.5-5.16,4.5-5.16,1.13-1.31,2.35-2.49,3.65-3.55,1.31-1.09,2.68-2.06,4.11-2.92,2.85-1.71,5.9-2.95,8.99-3.69,6.24-1.61,12.64-1.35,18.7.93l.42.16c6.05,2.26,10.98,6.42,14.62,11.68.89,1.33,1.71,2.75,2.42,4.23.72,1.45,1.34,2.94,1.85,4.51,1.01,3.13,1.56,6.49,1.52,9.97l-.05,6.88c.02,3.45.04,6.9.04,6.9,0,1.04.23,2.05.62,3,.39.93.98,1.78,1.7,2.54,1.45,1.51,3.5,2.61,5.83,3.02ZM287.87,491.87c-.32-.12-.59-.23-.81-.32-.44-.18-.68-.27-.68-.27,0,0-.95-.37-2.6-1.02-.83-.34-1.86-.68-2.97-1.22-1.13-.52-2.41-1.09-3.8-1.72-1.42-.59-2.85-1.41-4.42-2.19-.78-.39-1.59-.8-2.41-1.22-.81-.44-1.61-.93-2.44-1.4-1.64-.97-3.4-1.88-5.06-3.01-.85-.54-1.69-1.09-2.55-1.64l-1.29-.82-1.24-.89c-6.73-4.62-12.98-9.91-17.32-14.23-.55-.53-1.09-1.02-1.59-1.52-.48-.5-.93-.98-1.37-1.43-.85-.89-1.6-1.68-2.22-2.33-.3-.32-.58-.61-.81-.86-.23-.26-.42-.48-.57-.67-.32-.36-.48-.55-.48-.55,0,0-.67-.77-1.84-2.13-1.22-1.31-2.74-3.36-4.64-5.75-3.69-4.88-8.25-11.67-12.02-18.9-3.8-7.2-6.91-14.76-8.73-20.6-.24-.72-.48-1.41-.7-2.07-.19-.67-.36-1.31-.53-1.9-.34-1.19-.64-2.23-.88-3.09-.25-.85-.44-1.52-.53-1.99-.1-.47-.16-.72-.16-.72,0,0-.23-.99-.63-2.72-.1-.44-.22-.92-.34-1.43-.12-.52-.26-1.1-.35-1.71-.22-1.22-.47-2.59-.73-4.1-.12-.76-.31-1.53-.39-2.34-.1-.82-.21-1.67-.31-2.54-.2-1.74-.51-3.56-.6-5.48-.07-.95-.14-1.92-.23-2.91-.06-.98-.19-1.97-.18-2.97-.05-2.01-.11-4.05-.16-6.1.05-2.05.11-4.09.16-6.1,0-1.01.12-2,.18-2.98.08-.98.15-1.96.23-2.91.1-1.92.4-3.73.6-5.47.1-.87.22-1.72.31-2.54.08-.82.27-1.6.39-2.35.27-1.5.52-2.88.73-4.09.09-.62.23-1.18.35-1.71.12-.52.24-1,.34-1.43.39-1.73.63-2.72.63-2.72,0,0,.06-.26.16-.72.09-.48.28-1.14.53-2,.24-.86.54-1.89.88-3.09.17-.6.35-1.23.53-1.9.23-.66.46-1.35.7-2.08,1.82-5.83,4.92-13.39,8.73-20.6,3.77-7.23,8.33-14.01,12.02-18.9,1.9-2.39,3.42-4.44,4.64-5.75,1.17-1.35,1.84-2.13,1.84-2.13,0,0,.16-.19.48-.55.15-.19.35-.41.57-.68.23-.25.52-.53.81-.85.62-.65,1.37-1.43,2.22-2.34.44-.45.89-.93,1.37-1.43.5-.49,1.04-.98,1.59-1.51,4.34-4.32,10.59-9.61,17.32-14.23l1.24-.89,1.29-.81c.85-.55,1.7-1.1,2.55-1.64,1.66-1.14,3.42-2.04,5.06-3.01.83-.48,1.63-.96,2.44-1.39.82-.42,1.63-.82,2.41-1.22,1.56-.78,3-1.6,4.42-2.18,1.39-.64,2.67-1.22,3.8-1.72,1.11-.54,2.14-.88,2.97-1.22,1.65-.66,2.6-1.03,2.6-1.03,0,0,.23-.09.68-.27.23-.08.49-.19.81-.32.33-.1.71-.23,1.13-.37.85-.28,1.87-.63,3.05-1.03.59-.2,1.21-.41,1.87-.64.66-.21,1.37-.39,2.1-.6,5.83-1.82,13.82-3.54,21.92-4.5,8.09-.98,16.29-1.14,22.43-.86.77,0,1.5.07,2.19.13.69.05,1.35.1,1.97.15,1.24.1,2.33.18,3.22.24.89.08,1.58.2,2.05.25.48.06.73.1.73.1,0,0,1.01.12,2.78.35.44.06.93.12,1.47.19.53.1,1.1.19,1.71.31,1.22.22,2.6.47,4.11.73.75.12,1.52.31,2.32.5.81.19,1.64.38,2.49.57.85.2,1.73.4,2.63.6.88.26,1.78.52,2.7.77,1.83.53,3.75,1.02,5.62,1.71.95.32,1.9.64,2.87.97l1.44.48,1.42.56c.94.37,1.89.75,2.84,1.12.94.38,1.89.72,2.8,1.15,1.82.85,3.63,1.63,5.36,2.45,1.69.87,3.34,1.71,4.9,2.51,1.55.81,2.95,1.68,4.29,2.43.66.38,1.3.74,1.91,1.09.58.38,1.14.74,1.66,1.07,1.05.67,1.96,1.26,2.71,1.73.76.48,1.35.86,1.72,1.15.39.27.6.43.6.43,0,0,.83.59,2.28,1.62.73.54,1.64,1.11,2.6,1.9.97.77,2.08,1.64,3.28,2.59,4.75,3.85,10.81,9.36,16.2,15.49,5.43,6.1,10.27,12.72,13.43,17.95.4.64.83,1.25,1.17,1.85.35.61.68,1.18.99,1.72.61,1.08,1.16,2.01,1.6,2.79.46.76.77,1.39.97,1.81.23.43.34.65.34.65,0,0,.47.91,1.27,2.5.87,1.56,1.85,3.91,3.13,6.68.16.35.32.7.48,1.06.15.38.29.75.44,1.13.3.77.61,1.56.93,2.38.32.81.65,1.64.99,2.5.29.87.6,1.76.89,2.67.6,1.81,1.3,3.66,1.8,5.6.27.97.55,1.93.82,2.91l.42,1.47.34,1.49c.23.99.46,1.97.69,2.97.22.99.51,1.97.64,2.96.35,1.97.7,3.92,1.04,5.79.24,1.89.47,3.73.69,5.46.06.44.11.87.16,1.29.03.42.06.84.1,1.26.06.82.12,1.61.18,2.39.06.76.11,1.48.17,2.18.03.35.06.68.08,1.02,0,.33.02.65.02.96.03,1.26.06,2.34.07,3.23.06,1.79.09,2.81.09,2.81,0,0-.03,1.02-.09,2.81-.02.89-.04,1.97-.07,3.22,0,.31-.02.63-.02.97-.02.33-.05.66-.08,1.01-.06.7-.11,1.43-.17,2.19-.06.77-.11,1.56-.18,2.39-.03.41-.06.83-.1,1.26-.05.42-.1.85-.16,1.28-.23,1.74-.45,3.57-.69,5.46-.34,1.89-.68,3.83-1.04,5.79-.14,1-.43,1.97-.64,2.97-.23.98-.45,1.97-.69,2.97l-.34,1.49-.42,1.47c-.27.97-.56,1.94-.82,2.91-.5,1.94-1.19,3.79-1.8,5.6-.3.9-.6,1.79-.89,2.66-.34.86-.67,1.69-.99,2.51-.32.81-.64,1.6-.93,2.37-.15.39-.3.76-.44,1.13-.16.37-.32.73-.48,1.07-1.28,2.77-2.26,5.13-3.13,6.68-.81,1.59-1.27,2.49-1.27,2.49,0,0-.11.23-.34.66-.21.43-.52,1.05-.97,1.81-.44.77-.99,1.71-1.6,2.79-.31.54-.64,1.11-.99,1.72-.34.6-.77,1.2-1.17,1.85-3.17,5.23-8,11.84-13.43,17.95-5.39,6.12-11.45,11.64-16.2,15.49-1.2.95-2.3,1.81-3.28,2.58-.96.8-1.88,1.37-2.6,1.9-1.45,1.04-2.28,1.63-2.28,1.63,0,0-.21.15-.6.43-.38.29-.97.67-1.72,1.14-.75.48-1.66,1.07-2.71,1.74-.52.33-1.08.68-1.66,1.07-.61.35-1.25.71-1.91,1.09-1.34.74-2.74,1.62-4.29,2.43-1.56.8-3.21,1.64-4.9,2.51-1.73.82-3.54,1.6-5.36,2.44-.9.44-1.85.78-2.8,1.16-.94.36-1.89.74-2.84,1.11l-1.42.57-1.44.48c-.97.32-1.92.64-2.87.97-1.88.69-3.8,1.18-5.62,1.71-.92.26-1.82.52-2.7.77-.89.2-1.77.4-2.63.6-.85.2-1.68.39-2.49.58-.8.19-1.57.38-2.32.49-1.51.27-2.88.52-4.11.73-.6.11-1.18.21-1.71.31-.53.06-1.02.13-1.47.19-1.77.22-2.78.35-2.78.35,0,0-.25.03-.73.1-.48.05-1.17.17-2.05.24-.89.07-1.97.15-3.22.24-.62.05-1.28.1-1.97.15-.69.06-1.43.13-2.19.13-6.13.28-14.34.11-22.43-.86-8.1-.96-16.09-2.68-21.92-4.5-.73-.22-1.44-.39-2.1-.61-.66-.23-1.28-.44-1.87-.64-1.18-.39-2.2-.74-3.05-1.02-.42-.15-.8-.27-1.13-.38Z"/><path class="cls-1" d="M587.85,724.66s-3.33-.96-6.66-1.83c-3.34-.89-6.68-1.69-6.68-1.69-3.38-.81-6.47-2.18-9.28-3.86-2.88-1.69-5.38-3.72-7.56-5.96-4.42-4.49-7.42-9.73-8.6-15.68l-.04-.21-.05-.2c-1.25-5.95-.53-11.93,1.78-17.8,1.12-2.9,2.63-5.75,4.62-8.43,1.93-2.66,4.25-5.12,7.03-7.2,0,0,2.76-2.05,5.48-4.17,2.73-2.11,5.42-4.3,5.42-4.3,1.61-1.31,2.57-3.22,2.83-5.4.25-2.18-.16-4.63-1.47-6.8,0,0-.72-1.23-1.81-3.09-.52-.93-1.2-1.99-1.93-3.11-.73-1.13-1.51-2.33-2.3-3.53-1.6-2.38-3.32-4.66-4.57-6.41-.63-.87-1.21-1.55-1.59-2.05-.39-.49-.62-.77-.62-.77-1.57-1.97-3.59-3.36-5.75-3.89-2.14-.56-4.28-.38-6.08.63,0,0-3.01,1.66-5.98,3.38-2.98,1.74-5.91,3.55-5.91,3.55-2.97,1.81-6.15,3.06-9.32,3.85-3.17.77-6.45,1.2-9.54,1.12-6.31-.04-12.11-1.66-17.16-5.01l-.17-.12-.18-.11c-5.07-3.34-8.83-8.04-11.34-13.83-1.28-2.8-2.17-6-2.7-9.22-.52-3.23-.61-6.65-.1-10.08,0,0,.51-3.41.94-6.84.43-3.4.78-6.82.78-6.82.21-2.05-.45-4.11-1.81-5.85-1.34-1.77-3.41-3.09-5.84-3.76,0,0-.34-.1-.94-.27-.61-.15-1.46-.43-2.51-.66-2.09-.47-4.87-1.16-7.68-1.69-1.41-.25-2.82-.5-4.14-.73-1.32-.23-2.56-.44-3.63-.56-2.14-.27-3.55-.45-3.55-.45-2.51-.35-4.93.23-6.83,1.32-1.9,1.09-3.29,2.72-3.86,4.71,0,0-.95,3.33-1.83,6.66-.89,3.34-1.68,6.68-1.68,6.68-.82,3.38-2.18,6.47-3.87,9.28-1.69,2.88-3.71,5.39-5.95,7.56-4.49,4.42-9.73,7.42-15.68,8.61l-.21.03-.21.05c-5.94,1.25-11.93.54-17.8-1.78-2.9-1.12-5.75-2.64-8.43-4.62-2.66-1.93-5.12-4.25-7.2-7.03,0,0-2.05-2.76-4.16-5.48-2.12-2.73-4.3-5.42-4.3-5.42-1.31-1.62-3.22-2.57-5.4-2.84-2.17-.25-4.63.16-6.8,1.47,0,0-1.23.73-3.09,1.81-.94.52-1.99,1.2-3.12,1.93-1.12.73-2.32,1.52-3.52,2.3-2.38,1.6-4.67,3.32-6.41,4.57-.87.63-1.55,1.21-2.05,1.6-.49.39-.77.61-.77.61-1.97,1.57-3.36,3.59-3.9,5.75-.56,2.14-.37,4.28.63,6.08,0,0,1.66,3.01,3.39,5.98,1.74,2.98,3.54,5.92,3.54,5.92,1.81,2.97,3.07,6.14,3.85,9.32.77,3.17,1.2,6.45,1.12,9.54-.04,6.31-1.65,12.11-5,17.16l-.12.17-.11.19c-3.34,5.06-8.04,8.82-13.84,11.33-2.8,1.28-6,2.18-9.22,2.7-3.23.52-6.64.61-10.08.1,0,0-3.41-.51-6.83-.94-3.4-.43-6.83-.77-6.83-.77-2.05-.22-4.1.45-5.84,1.8-1.77,1.34-3.09,3.41-3.77,5.84,0,0-.1.35-.26.95-.16.6-.44,1.46-.66,2.51-.47,2.1-1.16,4.88-1.7,7.69-.25,1.41-.5,2.82-.73,4.14-.23,1.32-.44,2.55-.56,3.62-.27,2.14-.44,3.55-.44,3.55-.35,2.51.23,4.93,1.31,6.83,1.1,1.9,2.72,3.29,4.71,3.86,0,0,3.34.96,6.67,1.83,3.34.89,6.67,1.69,6.67,1.69,3.38.81,6.48,2.17,9.29,3.86,2.87,1.69,5.38,3.71,7.55,5.96,4.42,4.49,7.43,9.73,8.61,15.68l.03.2.05.21c1.25,5.94.54,11.93-1.77,17.8-1.12,2.9-2.64,5.75-4.63,8.43-1.93,2.66-4.24,5.12-7.04,7.2,0,0-2.76,2.05-5.48,4.17-2.72,2.11-5.42,4.3-5.42,4.3-1.62,1.31-2.57,3.22-2.83,5.4-.25,2.17.15,4.63,1.46,6.8,0,0,.73,1.23,1.8,3.09.53.93,1.21,1.99,1.94,3.11.73,1.13,1.51,2.32,2.3,3.52,1.59,2.39,3.32,4.67,4.57,6.41.62.87,1.21,1.55,1.59,2.05.39.49.61.77.61.77,1.58,1.97,3.59,3.37,5.75,3.9,2.13.56,4.28.37,6.08-.63,0,0,3.01-1.66,5.97-3.39,2.99-1.73,5.92-3.54,5.92-3.54,2.97-1.81,6.14-3.07,9.32-3.85,3.17-.77,6.46-1.2,9.54-1.12,6.31.04,12.11,1.66,17.16,5.01l.18.12.18.1c5.06,3.34,8.82,8.05,11.33,13.84,1.28,2.8,2.18,6,2.71,9.22.52,3.23.6,6.65.1,10.08,0,0-.51,3.41-.93,6.83-.43,3.41-.78,6.83-.78,6.83-.22,2.05.45,4.1,1.81,5.84,1.34,1.78,3.4,3.09,5.83,3.77,0,0,.35.1.95.26.6.16,1.46.44,2.51.66,2.09.47,4.87,1.17,7.69,1.7,1.41.25,2.82.5,4.14.73,1.32.23,2.55.44,3.63.56,2.13.27,3.55.45,3.55.45,2.5.35,4.92-.24,6.83-1.32,1.91-1.1,3.3-2.72,3.86-4.71,0,0,.96-3.34,1.84-6.67.88-3.34,1.68-6.67,1.68-6.67.81-3.38,2.18-6.47,3.86-9.29,1.69-2.87,3.72-5.38,5.96-7.55,4.49-4.42,9.73-7.42,15.68-8.61l.21-.03.2-.05c5.95-1.25,11.93-.54,17.8,1.77,2.9,1.13,5.75,2.64,8.44,4.63,2.65,1.93,5.12,4.25,7.19,7.03,0,0,2.05,2.76,4.17,5.48,2.11,2.72,4.29,5.42,4.29,5.42,1.31,1.62,3.22,2.57,5.4,2.83,2.18.25,4.63-.15,6.8-1.46,0,0,1.24-.73,3.09-1.8.93-.53,1.99-1.2,3.11-1.94,1.13-.73,2.33-1.52,3.53-2.3,2.38-1.59,4.67-3.31,6.41-4.57.88-.62,1.56-1.21,2.05-1.59.49-.39.77-.61.77-.61,1.97-1.58,3.36-3.59,3.89-5.75.56-2.13.38-4.28-.62-6.08,0,0-1.67-3.01-3.39-5.97-1.74-2.99-3.54-5.92-3.54-5.92-1.81-2.97-3.07-6.14-3.86-9.32-.77-3.17-1.2-6.46-1.12-9.54.04-6.31,1.66-12.11,5.01-17.16l.12-.18.11-.18c3.34-5.06,8.04-8.82,13.83-11.33,2.8-1.28,6-2.18,9.22-2.7,3.23-.52,6.65-.61,10.09-.1,0,0,3.4.51,6.83.93,3.4.44,6.83.78,6.83.78,2.05.22,4.1-.45,5.84-1.81,1.77-1.34,3.09-3.4,3.76-5.83,0,0,.1-.35.27-.95.15-.6.43-1.46.66-2.51.47-2.1,1.16-4.88,1.69-7.69.25-1.41.5-2.82.73-4.14.23-1.32.44-2.55.56-3.63.27-2.13.45-3.55.45-3.55.35-2.51-.23-4.93-1.31-6.83-1.1-1.91-2.72-3.3-4.72-3.86ZM511.71,720.76c-.19,3.23-.52,6.66-1.21,10.06-.69,3.38-1.56,6.73-2.65,9.78-1.1,3.05-2.26,5.86-3.46,8.16-.29.58-.57,1.14-.83,1.67-.3.52-.57,1.01-.83,1.47-.26.46-.5.89-.73,1.3-.22.4-.46.74-.66,1.06-.8,1.29-1.26,2.02-1.26,2.02,0,0-.5.71-1.37,1.95-.23.31-.44.67-.73,1.02-.27.36-.58.76-.9,1.18-.32.42-.66.86-1.02,1.34-.39.45-.79.92-1.22,1.42-1.65,2-3.78,4.17-6.16,6.37-2.39,2.2-5.13,4.31-7.96,6.27-2.85,1.96-5.89,3.6-8.78,5.05-1.48.64-2.88,1.36-4.28,1.87-.69.27-1.36.54-2.01.8-.67.22-1.31.44-1.93.64-1.22.45-2.37.75-3.38,1.04-.52.15-.98.28-1.42.41-.45.1-.87.19-1.23.27-1.48.35-2.34.54-2.34.54,0,0-.85.16-2.36.42-.37.06-.78.15-1.23.23-.45.06-.95.11-1.47.18-1.05.13-2.22.31-3.52.37-.64.05-1.32.1-2.02.16-.69.02-1.42.03-2.16.05-1.48.08-3.05-.02-4.67-.04-3.23-.2-6.66-.53-10.05-1.21-3.38-.7-6.74-1.56-9.79-2.66-3.05-1.1-5.86-2.26-8.16-3.46-.58-.29-1.14-.56-1.67-.83-.52-.29-1.01-.56-1.47-.83-.46-.26-.89-.5-1.29-.73-.4-.21-.75-.46-1.07-.65-1.29-.81-2.02-1.27-2.02-1.27,0,0-.71-.5-1.95-1.37-.31-.22-.67-.44-1.02-.72-.36-.28-.76-.59-1.17-.91-.43-.32-.87-.66-1.35-1.02-.45-.39-.92-.8-1.42-1.22-2-1.65-4.17-3.78-6.37-6.16-2.2-2.39-4.3-5.13-6.27-7.97-1.96-2.84-3.6-5.88-5.05-8.78-.64-1.48-1.36-2.88-1.87-4.28-.27-.68-.54-1.35-.8-2.01-.22-.67-.44-1.31-.64-1.92-.45-1.22-.75-2.38-1.04-3.39-.15-.51-.28-.98-.41-1.42-.1-.45-.19-.86-.27-1.23-.35-1.48-.54-2.33-.54-2.33,0,0-.15-.85-.42-2.36-.06-.37-.14-.78-.23-1.23-.06-.46-.11-.95-.18-1.47-.13-1.05-.31-2.23-.37-3.52-.05-.65-.1-1.32-.16-2.02,0-.7-.03-1.43-.05-2.17-.08-1.48.02-3.04.05-4.66.19-3.23.52-6.66,1.2-10.06.7-3.38,1.56-6.73,2.66-9.78,1.1-3.05,2.26-5.86,3.46-8.16.29-.59.56-1.14.83-1.67.29-.52.56-1.01.83-1.47.26-.47.5-.89.73-1.3.22-.4.46-.74.65-1.06.81-1.29,1.27-2.02,1.27-2.02,0,0,.5-.71,1.37-1.95.22-.31.44-.68.72-1.03.28-.35.59-.75.91-1.17.32-.42.66-.86,1.02-1.34.39-.45.8-.92,1.22-1.42,1.65-2.01,3.78-4.17,6.16-6.38,2.38-2.2,5.13-4.3,7.96-6.26,2.85-1.96,5.89-3.61,8.78-5.06,1.48-.64,2.88-1.35,4.28-1.86.68-.27,1.35-.54,2.01-.8.67-.23,1.31-.44,1.93-.64,1.21-.45,2.37-.75,3.38-1.04.51-.15.98-.28,1.42-.41.45-.11.86-.19,1.23-.27,1.48-.35,2.33-.55,2.33-.55,0,0,.85-.15,2.36-.41.37-.07.78-.15,1.24-.23.45-.05.94-.1,1.47-.17,1.04-.13,2.22-.31,3.52-.38.64-.05,1.31-.1,2.02-.15.69-.02,1.42-.03,2.16-.05,1.48-.09,3.05.02,4.67.04,3.22.2,6.66.53,10.05,1.21,3.38.69,6.73,1.56,9.78,2.65,3.05,1.1,5.86,2.26,8.16,3.46.59.29,1.14.57,1.68.84.51.29,1,.56,1.46.83.47.25.89.49,1.3.72.39.22.74.46,1.07.66,1.28.8,2.01,1.27,2.01,1.27,0,0,.72.49,1.95,1.36.31.23.68.44,1.03.73.36.27.75.58,1.17.91.42.31.86.65,1.34,1.02.45.39.93.8,1.42,1.22,2.01,1.65,4.17,3.78,6.38,6.16,2.2,2.39,4.3,5.13,6.27,7.96,1.95,2.85,3.6,5.89,5.05,8.78.64,1.48,1.35,2.88,1.86,4.27.27.69.54,1.36.8,2.01.23.66.44,1.31.64,1.92.45,1.22.75,2.37,1.04,3.38.15.52.29.99.41,1.43.1.44.19.86.27,1.23.35,1.48.55,2.33.55,2.33,0,0,.15.85.41,2.36.07.37.14.78.23,1.23.05.46.1.95.17,1.47.14,1.05.31,2.22.38,3.52.05.65.1,1.32.15,2.02.02.7.04,1.42.05,2.16.09,1.48-.02,3.05-.04,4.67Z"/><path class="cls-1" d="M895.2,565.91s-3.15-1.46-6.31-2.85c-3.16-1.4-6.33-2.75-6.33-2.75-3.2-1.35-6.07-3.25-8.54-5.46-1.22-1.1-2.4-2.3-3.49-3.57-1.08-1.26-2.06-2.59-2.93-3.96-3.45-5.52-5.54-11.77-5.44-18.41v-.23s0-.23,0-.23c-.1-6.63,1.99-12.89,5.44-18.41.87-1.38,1.85-2.71,2.93-3.97,1.09-1.26,2.27-2.46,3.49-3.57,2.47-2.22,5.34-4.1,8.54-5.46,0,0,3.17-1.34,6.33-2.74,3.16-1.39,6.31-2.85,6.31-2.85,1.9-.88,3.29-2.51,4.08-4.57.78-2.06.98-4.55.35-7.03,0,0-.39-1.39-.98-3.48-.3-1.04-.64-2.26-1.02-3.56-.19-.65-.37-1.33-.59-2.01-.23-.68-.46-1.36-.68-2.05-.93-2.73-1.82-5.49-2.59-7.51-.8-2.02-1.32-3.37-1.32-3.37-1.81-4.8-6.37-7.59-10.4-6.78,0,0-3.39.66-6.75,1.38-3.37.72-6.7,1.49-6.7,1.49-3.35.77-6.84.95-10.17.62-1.67-.17-3.31-.45-4.9-.85-.8-.19-1.58-.43-2.35-.68-.8-.24-1.58-.52-2.35-.81-3.09-1.17-5.82-2.82-8.45-4.72-1.3-.96-2.49-2.04-3.6-3.21-1.17-1.14-2.24-2.38-3.2-3.73l-.14-.19-.14-.19c-.93-1.38-1.85-2.73-2.59-4.17-.77-1.43-1.35-2.95-1.89-4.46-.56-1.5-.98-3.05-1.29-4.65-.31-1.6-.49-3.24-.62-4.84-.24-3.23.04-6.61.75-9.87.69-3.25,1.89-6.46,3.68-9.44,0,0,1.77-2.95,3.51-5.94,1.73-2.99,3.42-6.02,3.42-6.02,1.02-1.83,1.2-3.97.62-6.1-.57-2.12-1.89-4.24-3.84-5.88,0,0-1.13-.89-2.83-2.23-1.72-1.32-3.93-3.17-6.31-4.8-2.36-1.66-4.68-3.38-6.5-4.55-1.82-1.17-3.04-1.95-3.04-1.95-4.26-2.84-9.61-2.4-12.39.61,0,0-2.35,2.52-4.66,5.08-2.3,2.55-4.55,5.13-4.55,5.13-2.28,2.62-4.99,4.79-7.88,6.47-2.9,1.71-5.95,2.86-9.15,3.74-3.17.85-6.37,1.14-9.61,1.14-1.61-.02-3.2-.21-4.79-.48-1.61-.23-3.21-.6-4.78-1.14l-.22-.07-.22-.07c-1.56-.57-3.09-1.11-4.54-1.84-1.46-.71-2.83-1.59-4.15-2.5-1.33-.89-2.59-1.89-3.78-2.99-1.18-1.1-2.29-2.35-3.34-3.55-2.1-2.47-3.86-5.33-5.21-8.43-1.35-3.04-2.27-6.32-2.59-9.78,0,0-.3-3.42-.67-6.86-.35-3.43-.78-6.87-.78-6.87-.25-2.05-1.36-3.99-3.08-5.33-1.72-1.37-4.03-2.28-6.57-2.47,0,0-1.44-.14-3.6-.17-2.15-.05-5.04-.12-7.91-.19-2.88.07-5.75.15-7.91.19-2.16.03-3.6.17-3.6.17-2.54.19-4.84,1.1-6.56,2.47-1.72,1.34-2.84,3.28-3.09,5.33,0,0-.43,3.43-.78,6.87-.37,3.43-.67,6.86-.67,6.86-.31,3.47-1.23,6.74-2.59,9.78-1.34,3.1-3.11,5.96-5.2,8.43-1.06,1.2-2.16,2.46-3.34,3.55-1.18,1.1-2.45,2.1-3.78,2.99-1.32.91-2.69,1.79-4.15,2.5-1.44.73-2.98,1.27-4.54,1.84l-.22.07-.22.07c-1.57.54-3.17.91-4.77,1.14-1.6.27-3.19.47-4.8.48-3.25,0-6.44-.29-9.61-1.14-3.19-.88-6.25-2.03-9.15-3.74-2.89-1.68-5.59-3.85-7.88-6.47,0,0-2.25-2.59-4.55-5.13-2.3-2.55-4.66-5.08-4.66-5.08-2.78-3.01-8.11-3.45-12.39-.61,0,0-1.22.78-3.04,1.95-1.82,1.17-4.14,2.89-6.49,4.55-2.39,1.64-4.6,3.48-6.32,4.8-1.7,1.34-2.83,2.23-2.83,2.23-1.95,1.64-3.26,3.76-3.84,5.88-.58,2.13-.4,4.27.62,6.1,0,0,1.69,3.03,3.42,6.02,1.72,2.99,3.5,5.94,3.5,5.94,1.79,2.97,2.99,6.19,3.68,9.44.72,3.26.99,6.64.76,9.87-.14,1.6-.32,3.24-.62,4.84-.31,1.6-.74,3.15-1.3,4.65-.54,1.51-1.13,3.03-1.89,4.46-.75,1.43-1.67,2.79-2.59,4.17l-.14.19-.13.19c-.97,1.35-2.03,2.59-3.21,3.73-1.11,1.17-2.3,2.25-3.59,3.21-2.64,1.9-5.37,3.55-8.45,4.72-.77.3-1.56.57-2.34.81-.78.25-1.56.48-2.35.68-1.6.4-3.23.68-4.91.85-3.33.33-6.82.14-10.17-.62,0,0-3.34-.77-6.7-1.49-3.36-.72-6.74-1.38-6.74-1.38-4.04-.81-8.59,1.97-10.4,6.78,0,0-.52,1.35-1.31,3.37-.77,2.02-1.66,4.78-2.59,7.51-.23.69-.46,1.37-.68,2.05-.21.68-.39,1.35-.59,2.01-.37,1.31-.72,2.52-1.02,3.56-.58,2.09-.98,3.48-.98,3.48-.62,2.47-.43,4.96.35,7.03.8,2.06,2.18,3.69,4.08,4.57,0,0,3.15,1.46,6.31,2.85,3.16,1.4,6.33,2.74,6.33,2.74,3.2,1.36,6.07,3.25,8.54,5.46,1.22,1.11,2.4,2.31,3.49,3.57,1.09,1.27,2.06,2.59,2.93,3.97,3.45,5.52,5.54,11.77,5.44,18.41v.47c.1,6.63-1.99,12.89-5.44,18.41-.87,1.38-1.85,2.71-2.93,3.96-1.09,1.27-2.27,2.47-3.49,3.57-2.47,2.22-5.34,4.11-8.54,5.46,0,0-3.18,1.35-6.33,2.75-3.16,1.39-6.31,2.85-6.31,2.85-1.9.88-3.28,2.51-4.08,4.57-.78,2.05-.98,4.55-.35,7.03,0,0,.39,1.39.98,3.48.3,1.04.64,2.26,1.02,3.56.19.64.38,1.32.59,2.01.23.67.46,1.35.68,2.04.93,2.74,1.82,5.49,2.59,7.52.79,2.02,1.31,3.36,1.31,3.36,1.81,4.8,6.37,7.6,10.4,6.78,0,0,3.38-.66,6.74-1.38,3.37-.71,6.7-1.48,6.7-1.48,3.35-.77,6.84-.95,10.17-.62,1.68.16,3.31.45,4.91.85.8.19,1.57.43,2.35.68.79.24,1.57.52,2.34.81,3.09,1.17,5.82,2.82,8.45,4.72,1.29.97,2.48,2.05,3.59,3.22,1.18,1.14,2.24,2.37,3.21,3.72l.13.19.14.19c.93,1.38,1.85,2.72,2.59,4.17.77,1.43,1.35,2.95,1.89,4.46.56,1.5.99,3.05,1.3,4.65.3,1.6.48,3.23.62,4.83.23,3.22-.04,6.6-.76,9.87-.69,3.25-1.89,6.45-3.68,9.44,0,0-1.77,2.95-3.5,5.94-1.73,2.99-3.42,6.02-3.42,6.02-1.02,1.83-1.2,3.97-.62,6.1.57,2.12,1.89,4.24,3.84,5.87,0,0,1.13.89,2.83,2.24,1.72,1.31,3.93,3.17,6.32,4.8,2.35,1.66,4.67,3.38,6.49,4.55,1.82,1.17,3.04,1.95,3.04,1.95,4.27,2.83,9.61,2.4,12.39-.62,0,0,2.35-2.51,4.66-5.07,2.3-2.55,4.55-5.13,4.55-5.13,2.29-2.62,4.99-4.79,7.88-6.48,2.9-1.7,5.95-2.85,9.15-3.74,3.18-.84,6.37-1.14,9.61-1.14,1.61.02,3.21.22,4.8.49,1.6.23,3.2.6,4.77,1.14l.22.07.22.08c1.56.57,3.1,1.1,4.54,1.84,1.46.7,2.83,1.59,4.15,2.5,1.33.88,2.59,1.89,3.78,2.99,1.18,1.1,2.29,2.35,3.34,3.55,2.09,2.47,3.86,5.32,5.2,8.43,1.35,3.04,2.28,6.32,2.59,9.78,0,0,.3,3.42.67,6.86.35,3.42.78,6.87.78,6.87.25,2.05,1.36,3.99,3.09,5.33,1.72,1.37,4.02,2.27,6.56,2.46,0,0,1.44.14,3.6.18,2.16.05,5.04.12,7.91.19,2.88-.07,5.76-.15,7.91-.19,2.16-.03,3.6-.18,3.6-.18,2.54-.19,4.85-1.09,6.57-2.46,1.72-1.34,2.83-3.28,3.08-5.33,0,0,.43-3.44.78-6.87.37-3.43.67-6.86.67-6.86.31-3.47,1.23-6.74,2.59-9.78,1.35-3.11,3.11-5.95,5.21-8.43,1.05-1.21,2.15-2.46,3.34-3.55,1.19-1.1,2.45-2.11,3.78-2.99,1.32-.91,2.69-1.8,4.15-2.5,1.45-.73,2.98-1.27,4.54-1.84l.22-.08.22-.07c1.57-.53,3.17-.91,4.78-1.14,1.6-.27,3.18-.47,4.79-.49,3.25,0,6.44.3,9.61,1.14,3.2.89,6.25,2.04,9.15,3.74,2.89,1.69,5.6,3.86,7.88,6.48,0,0,2.25,2.58,4.55,5.13,2.3,2.55,4.66,5.07,4.66,5.07,2.78,3.02,8.12,3.45,12.39.62,0,0,1.22-.78,3.04-1.95,1.82-1.17,4.14-2.89,6.5-4.55,2.38-1.64,4.59-3.49,6.31-4.8,1.7-1.35,2.83-2.24,2.83-2.24,1.95-1.64,3.26-3.76,3.84-5.87.58-2.13.4-4.27-.62-6.1,0,0-1.68-3.03-3.42-6.02-1.73-2.99-3.51-5.94-3.51-5.94-1.79-2.98-2.99-6.19-3.68-9.44-.71-3.27-.99-6.65-.75-9.87.13-1.6.31-3.24.62-4.83.31-1.6.73-3.15,1.29-4.65.54-1.51,1.13-3.03,1.89-4.46.75-1.44,1.67-2.79,2.59-4.17l.14-.19.14-.19c.96-1.35,2.03-2.59,3.2-3.72,1.11-1.17,2.3-2.25,3.6-3.22,2.63-1.9,5.37-3.55,8.45-4.72.77-.29,1.55-.56,2.35-.81.77-.25,1.56-.48,2.35-.68,1.59-.4,3.23-.69,4.9-.85,3.33-.33,6.82-.15,10.17.62,0,0,3.34.77,6.7,1.48,3.36.72,6.75,1.38,6.75,1.38,4.03.82,8.58-1.97,10.4-6.78,0,0,.52-1.34,1.32-3.36.77-2.03,1.65-4.78,2.59-7.52.23-.68.46-1.37.68-2.04.22-.68.39-1.36.59-2.01.37-1.31.72-2.52,1.02-3.56.59-2.09.98-3.48.98-3.48.62-2.47.43-4.97-.35-7.03-.79-2.06-2.18-3.69-4.08-4.57ZM814.55,531.46c0,.44-.02.93-.03,1.46-.02.54-.02,1.12-.08,1.73-.09,1.22-.2,2.61-.31,4.13-.15,1.5-.4,3.13-.6,4.84-.07.86-.28,1.73-.43,2.63-.16.89-.32,1.81-.48,2.74-.17.93-.43,1.85-.64,2.8-.23.94-.42,1.91-.67,2.87-.27.95-.55,1.91-.82,2.88l-.41,1.45c-.13.48-.32.95-.48,1.43-2.48,7.66-5.97,14.96-9.07,20.16-.73,1.33-1.52,2.47-2.17,3.51-.67,1.03-1.22,1.96-1.75,2.66-1.02,1.43-1.61,2.26-1.61,2.26,0,0-.14.2-.42.59-.26.39-.69.93-1.24,1.63-.55.69-1.21,1.54-1.97,2.51-.78.95-1.72,1.98-2.7,3.13-4.02,4.53-9.84,10.2-16.42,14.89-6.54,4.75-13.65,8.63-19.2,11.02-1.35.67-2.68,1.1-3.8,1.57-1.14.45-2.13.87-2.97,1.12-1.68.56-2.63.89-2.63.89,0,0-.24.09-.68.23-.44.18-1.11.34-1.96.58-.85.24-1.88.53-3.05.88-1.18.31-2.55.59-4.01.94-5.9,1.3-13.92,2.39-22.04,2.39s-16.14-1.09-22.03-2.39c-1.47-.35-2.84-.64-4.02-.94-1.18-.35-2.2-.64-3.05-.88-.85-.24-1.52-.4-1.96-.58-.45-.15-.69-.23-.69-.23,0,0-.95-.32-2.62-.89-.85-.25-1.83-.67-2.97-1.12-1.13-.47-2.45-.9-3.8-1.57-5.55-2.39-12.67-6.26-19.19-11.02-6.59-4.69-12.41-10.36-16.42-14.89-.99-1.15-1.92-2.18-2.71-3.13-.75-.97-1.42-1.81-1.97-2.51-.55-.69-.98-1.23-1.24-1.63-.27-.39-.42-.59-.42-.59,0,0-.59-.83-1.6-2.26-.54-.7-1.08-1.63-1.76-2.66-.65-1.04-1.44-2.18-2.17-3.51-3.09-5.2-6.58-12.51-9.07-20.16-.15-.48-.35-.95-.48-1.43l-.41-1.45c-.27-.97-.55-1.93-.81-2.88-.26-.96-.45-1.93-.68-2.87-.21-.95-.46-1.87-.63-2.8-.17-.93-.33-1.85-.49-2.74-.14-.89-.35-1.76-.43-2.63-.2-1.72-.45-3.34-.6-4.84-.11-1.52-.23-2.9-.31-4.13-.06-.61-.06-1.19-.08-1.73,0-.53-.02-1.02-.03-1.46-.05-1.77-.07-2.79-.07-2.79,0,0,.02-1.02.07-2.79.02-.44.02-.94.03-1.47.02-.53.02-1.11.08-1.72.09-1.22.2-2.61.31-4.13.14-1.51.39-3.13.6-4.84.07-.86.29-1.73.43-2.63.16-.89.32-1.81.49-2.74.17-.93.42-1.85.63-2.8.23-.93.42-1.9.68-2.87.27-.94.55-1.9.81-2.87l.41-1.45c.13-.48.32-.96.48-1.43,2.48-7.66,5.98-14.97,9.07-20.16.73-1.33,1.51-2.47,2.17-3.51.68-1.03,1.22-1.96,1.76-2.66,1.02-1.43,1.6-2.26,1.6-2.26,0,0,.15-.2.42-.59.26-.39.69-.93,1.24-1.63.55-.69,1.22-1.54,1.97-2.51.79-.96,1.72-1.98,2.71-3.13,4.01-4.53,9.83-10.2,16.42-14.89,6.53-4.75,13.64-8.63,19.19-11.02,1.35-.67,2.68-1.1,3.8-1.57,1.14-.45,2.13-.87,2.97-1.13,1.67-.56,2.62-.88,2.62-.88,0,0,.24-.09.69-.24.44-.17,1.1-.33,1.96-.58.85-.23,1.87-.53,3.05-.87,1.18-.31,2.55-.59,4.02-.94,5.89-1.31,13.92-2.39,22.03-2.39s16.14,1.08,22.04,2.39c1.47.35,2.83.64,4.01.94,1.18.34,2.2.64,3.05.87.85.25,1.52.41,1.96.58.44.15.68.24.68.24,0,0,.95.32,2.63.88.84.26,1.82.68,2.97,1.13,1.13.47,2.45.9,3.8,1.57,5.55,2.39,12.67,6.26,19.2,11.02,6.58,4.69,12.4,10.36,16.42,14.89.98,1.15,1.92,2.18,2.7,3.13.76.97,1.42,1.81,1.97,2.51.55.69.98,1.23,1.24,1.63.27.39.42.59.42.59,0,0,.59.83,1.61,2.26.53.7,1.08,1.63,1.75,2.66.65,1.04,1.44,2.18,2.17,3.51,3.09,5.19,6.58,12.5,9.07,20.16.15.48.35.95.48,1.43l.41,1.45c.27.97.55,1.93.82,2.87.25.97.44,1.93.67,2.87.21.95.47,1.88.64,2.8.16.93.32,1.85.48,2.74.15.9.35,1.77.43,2.63.2,1.72.45,3.34.6,4.84.1,1.51.22,2.9.31,4.13.06.61.06,1.19.08,1.72,0,.53.02,1.02.03,1.47.05,1.77.07,2.79.07,2.79,0,0-.02,1.02-.07,2.79Z"/></svg>