<?xml version="1.0" encoding="UTF-8"?><svg id="Layer_1" xmlns="http://www.w3.org/2000/svg" width="50" height="50" viewBox="0 0 1000 1000"><defs><style>.cls-1{fill:#fff;}.cls-1,.cls-2{stroke-width:0px;}.cls-2{fill:#00538f;}</style></defs><rect class="cls-2" width="1000" height="1000" rx="97.33" ry="97.33"/><path class="cls-1" d="M692.7,559.27c-15.74-19.6-27.5-16.73-51.76-21.24-12.77-15.75-32.48-40.08-54.77-68.29-.22-8.15,6.02-35.6,1.83-40.83l-23.35-29.07c-4.45-5.55-12.56-6.43-18.11-1.98l-43.14,34.65-186.26-231.9,2.78-33.51-107.11-92.22-10.05,8.07-10.84,8.71-10.04,8.07,66.95,124.48,33.32,4.51,186.26,231.89-43.14,34.65c-5.54,4.45-6.43,12.56-1.97,18.11l23.35,29.07c4.2,5.23,32.35,5.05,40.26,7.02,22.74,27.84,42.25,52.33,54.87,68.21-.84,24.66-6.18,35.53,9.57,55.12l192.87,240.12c14.01,17.44,38.86,20.75,55.5,7.39l81.11-65.15c16.64-13.36,18.76-38.34,4.75-55.79l-192.86-240.11ZM757.18,910.03l-194.3-241.9c10.97-8.38,26.67-6.53,35.36,4.29l162.38,202.16c8.69,10.83,7.1,26.55-3.45,35.46ZM818.58,860.75c-10.99,8.82-27.05,7.07-35.87-3.91l-162.38-202.16c-8.82-10.99-7.07-27.05,3.91-35.87,10.99-8.82,27.05-7.07,35.87,3.92l162.38,202.17c8.82,10.98,7.07,27.04-3.91,35.86ZM844.59,807.14l-162.38-202.17c-8.81-10.96-7.08-26.96,3.83-35.8l194.33,241.94c-10.98,8.75-26.97,6.98-35.78-3.97Z"/><path class="cls-1" d="M504.98,418.03l35.11-28.2c4.1-3.29,9.25-5.11,14.51-5.11,7.07,0,13.66,3.16,18.08,8.67l23.35,29.07c5.26,6.56,4.08,17.65,1.72,35.2-.41,3.01-.85,6.28-1.09,8.74,3.51,4.44,6.96,8.78,10.33,13.01l132.34-142.88c48.06,15.24,101.21,4.04,136.13-33.53,38.82-41.75,40.92-106.04,14.67-155.14-2.32-4.34-3.62-4.29-8.52-4.01-3.47.2-5.51,3.69-5.51,3.69l-32.78,62.87c-10.8,20.72-36.35,28.76-57.07,17.95l-35-18.25c-20.72-10.8-28.76-36.35-17.95-57.07l36.45-69.91s3.52-5.94,2.4-7.59c-2.54-3.75-5.51-4.21-10.05-4.04-30.79,1.17-61.87,13.84-90.25,38.73-41.23,36.15-46.32,91.11-26.31,138.8l-147.97,159.75,7.42,9.24Z"/><path class="cls-1" d="M481.37,558.99c-2.45-.29-5.74-.57-8.77-.82-17.64-1.48-28.73-2.71-33.99-9.27l-23.35-29.07c-3.83-4.77-5.59-10.73-4.99-16.81l-134.4,145.1c-48.06-15.24-101.2-4.04-136.13,33.53-38.82,41.75-40.92,106.04-14.66,155.13,2.32,4.34,3.62,4.29,8.53,4.02,3.47-.2,5.5-3.69,5.5-3.69l32.78-62.87c10.8-20.71,36.35-28.75,57.07-17.95l35.01,18.25c20.71,10.8,28.76,36.35,17.95,57.07l-36.45,69.92s-3.52,5.94-2.4,7.58c2.54,3.75,5.51,4.21,10.05,4.04,30.79-1.17,61.87-13.83,90.25-38.72,41.23-36.15,46.32-91.12,26.31-138.8l135.9-146.73c-7.38-9.17-15.54-19.27-24.21-29.9Z"/></svg>