<?xml version="1.0" encoding="UTF-8"?><svg id="Layer_1" xmlns="http://www.w3.org/2000/svg" width="50" height="50" viewBox="0 0 1000 1000"><defs><style>.cls-1{fill:#fff;}.cls-1,.cls-2{stroke-width:0px;}.cls-2{fill:#00538f;}</style></defs><rect class="cls-2" width="1000" height="1000" rx="100" ry="100"/><path class="cls-1" d="M893.49,441.48c-.93,0-1.84.06-2.74.14l-41.1-107.97c10.94-6.92,18.22-19.1,18.22-33,0-21.6-17.5-39.09-39.09-39.09-9.52,0-18.23,3.4-25.01,9.05l-128.37-103.05c1.53-3.54,2.39-7.45,2.39-11.56,0-16.12-13.07-29.19-29.19-29.19-13.01,0-24.02,8.52-27.78,20.28l-217.04-8.89c-2.99-16.24-17.19-28.55-34.31-28.55-19.28,0-34.9,15.62-34.9,34.91,0,3.52.53,6.92,1.5,10.12l-152.83,87.2c-5.28-5.25-12.55-8.49-20.58-8.49-16.12,0-29.18,13.06-29.18,29.18,0,7.52,2.87,14.36,7.55,19.54l-36.08,56.7c-4.15-1.56-8.64-2.46-13.34-2.46-20.93-.01-37.88,16.95-37.88,37.88s15.29,36.13,34.75,37.73l14.8,119.28c-10.57,4.38-18.01,14.8-18.01,26.96,0,16.12,13.06,29.19,29.18,29.19,9.57,0,18.04-4.62,23.36-11.74l97.25,37.95c-.28,1.8-.47,3.63-.47,5.51,0,19.85,16.08,35.92,35.93,35.92,8.91,0,17.05-3.26,23.32-8.63l47.25,35.59c-1.31,3.32-2.06,6.93-2.06,10.71,0,16.12,13.07,29.19,29.18,29.19s28.61-12.54,29.13-28.19l92.86-22.29c6.37,13.87,20.34,23.52,36.6,23.52,2.2,0,4.35-.23,6.45-.56l60.23,162.46c-7.34,5.3-12.13,13.9-12.13,23.65,0,16.13,13.06,29.19,29.18,29.19s29.18-13.06,29.18-29.19c0-4.68-1.13-9.08-3.08-13l20.34-18.27c4.54,2.92,9.93,4.63,15.73,4.63,16.12,0,29.19-13.07,29.19-29.19,0-14.93-11.21-27.22-25.68-28.95l-6.34-42.3c11.91-4.88,20.3-16.58,20.3-30.24,0-.13-.02-.25-.02-.38l80.35-20.64c5.03,8.76,14.46,14.68,25.29,14.68,12.18,0,22.61-7.46,26.98-18.06l2.65.32-2.2-1.56c1.12-3.09,1.76-6.42,1.76-9.9,0-10.83-5.92-20.27-14.7-25.3l11.74-45.84c.14,0,.27.02.41.02,18.19,0,32.92-14.74,32.92-32.92,0-8.92-3.56-17-9.32-22.93l39.05-62.06c2.66.8,5.49,1.24,8.41,1.24,16.12,0,29.18-13.07,29.18-29.19s-13.06-29.17-29.18-29.17ZM822.43,550.66c-16.14,0-29.52,11.62-32.34,26.93l-93.56,5.16,175.03-91.84-38.67,61.46c-3.29-1.1-6.8-1.72-10.46-1.72ZM368.2,663.52c-6.7,0-12.85,2.28-17.78,6.07l-47.26-35.6c.36-.78.68-1.58.98-2.38l180.87,25.07-91.27,21.9c-4.97-8.98-14.54-15.07-25.54-15.07ZM236.1,361.07c5.11,15.91,18.48,28.11,35.07,31.52l-2.05,55.03-140.63-64.9c.46-1.99.74-4.03.87-6.12l106.74-15.52ZM864.36,471.72c.06,1.75.26,3.46.62,5.12l-176,92.34c-1.04-1.24-2.18-2.38-3.37-3.47l68.91-120.06,109.85,26.06ZM306.27,616.24c-.43-5.45-2.07-10.54-4.67-15.03l56.34-51.48c8.39,6.68,19,10.7,30.56,10.7,10.45,0,20.12-3.29,28.08-8.85l77.19,80.02c-2.12,3.03-3.82,6.37-5.05,9.94l-182.46-25.29ZM391.33,171.79l89.83,71.12c-3.61,6.59-5.67,14.15-5.67,22.2,0,2.48.25,4.89.63,7.27l-90.64,30.69-6.49-124.91c4.56-1.29,8.75-3.47,12.34-6.36ZM632.34,180.24c1.69,1.14,3.51,2.08,5.43,2.85l-9.66,86.53-60.26-6.97c-.41-7.78-2.73-15.04-6.52-21.33l71.02-61.07ZM789.86,303.97c.2,2.42.64,4.77,1.26,7.05l-120.4,60.93c-8.29-12.17-20.93-21.1-35.66-24.7l6.74-60.41,148.05,17.14ZM526.8,614.36c-8.06,0-15.55,2.39-21.84,6.46l-77.21-80.04c1.94-2.58,3.63-5.35,5.04-8.3l118.5,35.31-17.81,47.16c-2.18-.36-4.41-.6-6.69-.6ZM521.73,311.36c7.11,0,13.81-1.65,19.83-4.52l38.33,54.54c-7.8,7.15-13.77,16.27-16.98,26.63l-90.35-15.73,34.31-63.41c4.67,1.59,9.65,2.49,14.85,2.49ZM560.34,403.32c-.04.88-.13,1.75-.13,2.63,0,6.17.93,12.11,2.65,17.72l-133.37,60.49c-3.01-4.54-6.77-8.52-11.07-11.83l46.36-85.65,95.57,16.64ZM404.76,464.93c-3.51-1.23-7.19-2.12-11.01-2.52l-4.61-88.9,59.5,10.36-43.87,81.06ZM437.19,517.67c.27-2.1.46-4.22.46-6.39,0-4.49-.65-8.82-1.78-12.96l133.45-60.53c5.62,9.05,13.5,16.52,22.93,21.56l-35.46,93.92-119.59-35.6ZM606.78,464.78c4.48,1.05,9.12,1.67,13.92,1.67,1.74,0,3.46-.12,5.17-.26l20.34,93.42c-7.02,3.23-12.83,8.62-16.56,15.34l-57.95-17.25,35.09-92.92ZM661.37,556.29l-20.33-93.41c16.68-5.96,29.94-19,36.21-35.54l61.51,14.59-66.59,116.02c-3.41-1.07-7.03-1.66-10.8-1.66ZM619.64,345.5c-9.76.17-18.96,2.64-27.07,6.91l-38.28-54.48c5.48-5.44,9.59-12.25,11.81-19.87l60.29,6.98-6.75,60.46ZM481.04,287.09c3.03,5.6,7.21,10.48,12.18,14.38l-36.8,68-68.12-11.86-2-38.44,94.73-32.08ZM372.61,354.88l-45.17-7.86c0-.09.01-.18.01-.27,0-2.54-.26-5-.65-7.43l44.22-14.97,1.59,30.54ZM286.69,393.12c17.71-2.29,32.29-14.45,38.06-30.82l48.69,8.48,4.8,92.43c-12.68,2.69-23.55,10.26-30.54,20.67l-63.3-29.21,2.29-61.55ZM341.23,498c-1.18,4.23-1.86,8.67-1.86,13.27,0,9.98,2.99,19.25,8.1,27l-56.33,51.48c-3.46-2.43-7.36-4.25-11.57-5.35l4.21-112.92,57.45,26.52ZM548.01,620.44l18.2-48.2,59.03,17.59c-.06.87-.13,1.75-.13,2.64,0,2.67.31,5.27.86,7.78l-66.58,30.77c-3.07-4.23-6.93-7.82-11.38-10.59ZM746.81,427.89l-65.94-15.64c.21-2.07.33-4.17.33-6.29,0-7.07-1.28-13.83-3.51-20.14l120.44-60.95c1.46,1.85,3.1,3.56,4.87,5.11l-56.19,97.91ZM791.63,288.54l-148.1-17.14,9.67-86.61c4.6-.73,8.83-2.52,12.46-5.13l128.41,103.08c-.96,1.85-1.78,3.79-2.44,5.8ZM622.23,168.45l-71,61.06c-8.01-6.64-18.29-10.65-29.51-10.65-11.89-.01-22.7,4.52-30.89,11.9l-89.88-71.16c.89-1.87,1.63-3.83,2.18-5.87l217.07,8.89c.47,2.04,1.16,3.98,2.03,5.83ZM363.48,178.94l6.71,129.29-48.31,16.36c-3.7-6.87-9.07-12.69-15.56-16.96l56.57-128.78c.2.04.39.06.59.09ZM121.98,396.81l146.52,67.62-4.45,119.39c-2.78.5-5.44,1.31-7.96,2.42l-136.37-186.67c.8-.88,1.55-1.8,2.26-2.76ZM566.94,651.75c-.17-2.3-.52-4.55-1.06-6.73l66.6-30.7c6.61,8.71,17.04,14.36,28.82,14.36,9.39,0,17.91-3.6,24.34-9.46l80.52,56.97-199.22-24.43ZM876.24,447.16c-3.41,2.51-6.27,5.72-8.33,9.45l-105.35-24.99,53.9-93.91c3.88,1.28,8.01,2.01,12.32,2.01,2.17,0,4.28-.22,6.35-.56l41.11,108ZM348.68,172.58l-56.59,128.83c-3.67-.92-7.49-1.47-11.44-1.47-12.91,0-24.6,5.22-33.07,13.68l-57.54-41.05c1.14-3.12,1.79-6.48,1.79-10,0-2.49-.34-4.88-.93-7.18l152.88-87.23c1.49,1.62,3.13,3.1,4.9,4.42ZM154.1,290.48c2.71.83,5.57,1.28,8.55,1.28,6.97,0,13.37-2.45,18.39-6.53l57.57,41.06c-2.87,5.89-4.55,12.45-4.7,19.41l-106.76,15.53c-1.97-5.37-5.08-10.17-9.09-14.09l36.05-56.66ZM143.47,561.21c.1-.99.15-1.99.15-3,0-14.68-10.84-26.78-24.94-28.84l-14.81-119.31c1.13-.39,2.24-.82,3.33-1.32l136.37,186.67c-1.04,1.18-2.03,2.41-2.91,3.73l-97.18-37.93ZM547.81,688.98c3.96-2.43,7.48-5.5,10.39-9.11l67.59,35.44c-.62,2.52-.99,5.14-.99,7.85,0,17.04,13.05,31.03,29.71,32.54l6.34,42.3c-10.21,4.54-17.34,14.76-17.34,26.66,0,4.68,1.13,9.08,3.08,13l-20.35,18.27c-4.54-2.91-9.93-4.62-15.73-4.62-.84,0-1.67.06-2.49.13l-60.23-162.45ZM657.48,690.47c-9.77,0-18.5,4.3-24.49,11.09l-64.9-34.03,185.98,22.8-67.76,17.41c-5.51-10.28-16.34-17.27-28.82-17.27ZM795.24,658.48c-6.8.13-13.03,2.56-17.92,6.57l-82.68-58.49c1.1-2.61,1.87-5.39,2.33-8.27l93.95-5.19c2.55,8.46,8.39,15.47,16.05,19.55l-11.73,45.83Z"/></svg>