<?xml version="1.0" encoding="UTF-8"?><svg id="Layer_1" xmlns="http://www.w3.org/2000/svg" viewBox="0 0 511.56 479.01"><defs><style>.cls-1{fill:#2f2e41;}.cls-1,.cls-2,.cls-3,.cls-4,.cls-5,.cls-6,.cls-7{stroke-width:0px;}.cls-2{fill:#3f3d56;}.cls-3{fill:#fff;}.cls-4{fill:#ffb6b6;}.cls-5{fill:#e6e6e6;}.cls-6{fill:#005ea2;}.cls-7{isolation:isolate;opacity:.1;}</style></defs><polygon class="cls-1" points="454.49 392.27 454.48 392.44 466.49 479.01 378.85 479.01 367.49 425.84 362.49 477.65 272.49 476.96 282.05 408.95 290.18 377.42 290.18 377.41 291.4 372.67 452.1 372.67 452.31 374.38 454.49 392.27"/><path class="cls-4" d="M222.88,472.97c9.28,1.66,18.96-8.58,21.62-22.87,1.16-6.25.79-12.25-.78-17.15l1.42-8.24,23.88-110.81s43.98-86.19,43.98-101.15c0-14.96-12.72-22.3-12.72-22.3l-17.21.16-53.98,129.17-9.72,95.45-1.57,13.1c-3.23,4.05-5.74,9.52-6.9,15.78-2.66,14.29,2.71,27.22,11.99,28.87h0Z"/><polygon class="cls-4" points="397.99 135.95 381.99 98.95 329.99 107.95 326.49 151.48 397.99 135.95"/><polygon class="cls-7" points="397.99 135.95 381.99 98.95 329.99 107.95 326.49 151.48 397.99 135.95"/><path class="cls-5" d="M510.99,212.95s-37-69-44-76c-3.12-3.12-8.01-3.16-12.49-2.25l-51.51-17.75-17.46-9.81-1.15,18.66-57.32,10.29c.32-11.38,1.92-15.71,1.92-15.71l-21,24.57-41,20,.02.18c-3.01,1.05-5.86,2.85-8.02,5.82-8,11-30,145-30,145l47,10,6.4-40.14,4.6,36.14,3.5,67.5s64,55,95,35,69-19,69-19l.95-31.29c.67-1.08,1.05-1.71,1.05-1.71l-1-110.98v-29.53c7.62,10.61,16.81,19.74,27.5,24.02,35,14,28-43,28-43Z"/><circle class="cls-4" cx="350.56" cy="66.62" r="47.84"/><path class="cls-1" d="M384.87,80.14s4.16-14.56,13.52-13.52c9.36,1.04,11.44-7.28,9.36-11.44s-6.24-24.96-6.24-24.96c0,0,2.08-14.56-10.4-16.64-12.48-2.08-16.64-4.16-18.72-8.32-2.08-4.16-33.28-8.32-43.68-2.08-10.4,6.24-18.72,18.21-26,21.59-7.28,3.37-13.52,9.61-9.36,20.01,4.16,10.4,10.19,30.74,10.19,30.74,0,0,10.61-3.7,12.69,2.54s-6.24-2.08,4.16-18.72c10.4-16.64,10.4-33.28,27.04-27.04,16.64,6.24,35.36,4.16,33.28,16.64-2.08,12.48,4.16,31.2,4.16,31.2Z"/><path class="cls-3" d="M381.95,459.38H18.63c-10.27,0-18.63-8.36-18.63-18.63v-192.99c0-10.27,8.36-18.63,18.63-18.63h363.32c10.27,0,18.63,8.36,18.63,18.63v192.99c0,10.27-8.36,18.63-18.63,18.63h0Z"/><path class="cls-2" d="M381.95,459.38H18.63c-10.27,0-18.63-8.36-18.63-18.63v-192.99c0-10.27,8.36-18.63,18.63-18.63h363.32c10.27,0,18.63,8.36,18.63,18.63v192.99c0,10.27-8.36,18.63-18.63,18.63h0ZM18.63,232.24c-8.56,0-15.52,6.96-15.52,15.52v192.99c0,8.56,6.96,15.52,15.52,15.52h363.32c8.56,0,15.52-6.96,15.52-15.52v-192.99c0-8.56-6.96-15.52-15.52-15.52H18.63Z"/><circle class="cls-2" cx="353.91" cy="247.79" r="4.67"/><circle class="cls-2" cx="366.35" cy="247.79" r="4.67"/><circle class="cls-2" cx="378.8" cy="247.79" r="4.67"/><path class="cls-5" d="M26.45,323.25c-1.29,0-2.33,1.05-2.33,2.33,0,.63.24,1.21.68,1.64.44.45,1.02.7,1.65.7h349.24c1.29,0,2.33-1.05,2.33-2.33,0-.63-.24-1.21-.68-1.64-.44-.45-1.02-.7-1.65-.7H26.45Z"/><path class="cls-6" d="M332.13,322.47v6.22H26.45c-.86,0-1.63-.34-2.19-.92-.58-.56-.92-1.34-.92-2.19,0-1.71,1.4-3.11,3.11-3.11h305.68Z"/><path class="cls-5" d="M371.8,310.8h-31.12c-3.43,0-6.22-2.79-6.22-6.22s2.79-6.22,6.22-6.22h31.12c3.43,0,6.22,2.79,6.22,6.22s-2.79,6.22-6.22,6.22Z"/><path class="cls-5" d="M167.99,278.13H28.78c-3.43,0-6.22-2.79-6.22-6.22s2.79-6.22,6.22-6.22h139.21c3.43,0,6.22,2.79,6.22,6.22s-2.79,6.22-6.22,6.22Z"/><path class="cls-5" d="M26.45,393.26c-1.29,0-2.33,1.05-2.33,2.33,0,.63.24,1.21.68,1.64.44.45,1.02.7,1.65.7h349.24c1.29,0,2.33-1.05,2.33-2.33,0-.63-.24-1.21-.68-1.64-.44-.45-1.02-.7-1.65-.7H26.45Z"/><path class="cls-6" d="M212.33,392.48v6.22H26.45c-.86,0-1.63-.34-2.19-.92-.58-.56-.92-1.34-.92-2.19,0-1.71,1.4-3.11,3.11-3.11h185.88Z"/><path class="cls-5" d="M371.8,380.82h-31.12c-3.43,0-6.22-2.79-6.22-6.22s2.79-6.22,6.22-6.22h31.12c3.43,0,6.22,2.79,6.22,6.22s-2.79,6.22-6.22,6.22Z"/><ellipse class="cls-6" cx="426.27" cy="70.44" rx="48.73" ry="47.7"/><path class="cls-3" d="M442.81,46.38c-6.49,11.81-12.97,23.62-19.46,35.44-4.13-7.3-8.25-14.62-12.39-21.92-1.43-2.52-5.32-.25-3.89,2.27,4.8,8.46,9.56,16.95,14.36,25.41.82,1.45,3.08,1.48,3.89,0,7.13-12.98,14.25-25.95,21.38-38.93,1.4-2.54-2.49-4.82-3.89-2.27Z"/><path class="cls-4" d="M493.54,196.17l-48.55-23.22s-1.95-15.54-11.05-21.09c-1.55-3.69-3.33-7.75-4.95-10.96-4-7.95,2-22.95-3-22.95s-12.39,15.78-12,20c.3,3.24,2.98,8.9,3.53,13.86-6.1,2.3-11.02,6.24-14.25,9.38-2.8,2.72-3.84,6.77-2.74,10.51,3.17,10.85,11.09,33.25,22.46,33.25,15,0,19-3,19-3,0,0,31,39,54,42s-2.45-47.78-2.45-47.78h0Z"/></svg>