<?xml version="1.0" encoding="UTF-8"?>
<svg id="Layer_1" data-name="Layer 1" xmlns="http://www.w3.org/2000/svg" version="1.1" viewBox="0 0 829.5 510.2">
  <defs>
    <style>
      .cls-1 {
        fill: #1d75bc;
      }

      .cls-1, .cls-2, .cls-3 {
        stroke-width: 0px;
      }

      .cls-4 {
        isolation: isolate;
      }

      .cls-2 {
        fill: #fff;
      }

      .cls-3 {
        fill: #231f20;
      }
    </style>
  </defs>
  <rect class="cls-2" x="2.5" y="2.5" width="824.5" height="505.2"/>
  <path class="cls-1" d="M824.5,5v500.2H5V5h819.5M829.5,0H0v510.2h829.5V0h0Z"/>
  <path class="cls-1" d="M301,140.9l-10.2,27.6c-19.2,21.3-36.6,44.8-51.8,70.2,0,0,0,0,0,.1-5,8.4-11.9,16.1-20.7,22.7-2.9,2.1-5.8,4-8.9,5.7-18.6,10.2-40.3,12.7-61.2,9.3,0,0,0-.1,0-.1,12.4,1.5,25.3-.2,36.7-4.9,47.3-19,75.3-83.3,46.7-127.5,0,0,0-.1.1-.1,12.3,17.5,18.6,38.2,17.8,58.2,15.9-22.4,32.9-42.8,51.3-61h0Z"/>
  <polygon class="cls-3" points="341.2 276.3 291.5 276.3 300.1 251.4 332.6 251.4 341.2 276.3"/>
  <polygon class="cls-3" points="387.5 276.3 359.6 276.3 351 251.4 316.4 152.3 316 152.3 281.8 251.4 273.2 276.3 245.1 276.3 280.3 181.1 289 157.7 301.1 125.1 331.5 125.1 334.1 132.2 387.5 276.3"/>
  <path class="cls-3" d="M408.5,235.9c10.3,11,26.5,20.6,47.3,20.6s30.1-10.5,30.1-20.4-15.9-17.5-34.1-22.2c-24.5-6.1-53.2-13.2-53.2-44.9s21.8-43.7,54.5-43.7,42.2,7.4,56.1,20.9l-15,19.5c-11.7-11.7-27.6-17.1-43.3-17.1s-25.4,7.4-25.4,18.6,15.2,15.5,33,20c24.7,6.3,54.1,13.9,54.1,46.4s-17.5,46.2-57.9,46.2-47.5-9.6-60.8-23.8l14.6-20.2h0Z"/>
  <path class="cls-3" d="M536.8,127.6h26.2v149.6h-26.2V127.6Z"/>
  <path class="cls-3" d="M599.8,235.9c10.3,11,26.5,20.6,47.3,20.6s30.1-10.5,30.1-20.4-15.9-17.5-34.1-22.2c-24.5-6.1-53.2-13.2-53.2-44.9s21.8-43.7,54.5-43.7,42.2,7.4,56.1,20.9l-15,19.5c-11.7-11.7-27.6-17.1-43.3-17.1s-25.3,7.4-25.3,18.6,15.2,15.5,33,20c24.7,6.3,54.1,13.9,54.1,46.4s-17.5,46.2-57.9,46.2-47.5-9.6-60.8-23.8l14.6-20.2h0Z"/>
  <path class="cls-1" d="M746,115.5v26h-15.6v-26h-22.6v-14.1h22.6v-24.9h15.6v24.9h22.6v14.1s-22.6,0-22.6,0Z"/>
  <path class="cls-1" d="M682.5,92.8c-78.1-27.6-162.1-33.6-240.1-12.9-38.9,10.2-75.4,28.1-108.3,52.2l-2.6-7.1h-4.2c46.2-33.4,101.5-53.6,169.4-59.1,62.1-5,125.8,4.1,185.8,26.9h0Z"/>
  <path class="cls-3" d="M224.5,130.6c-21.3-16.4-49.9-25.4-76.6-20.1-21.7,4.4-41,18.5-52.4,37.5-24.3,40.1-12.5,91.4,27.6,116.3,4.1,2.8,9.4,5.7,13.2,7.8-14.1-1.5-27.8-6.2-39.7-14.4-38.8-27.9-46.2-82.3-21.6-122.1,14.8-24.7,41.6-42.4,70.5-44.3,31-2.2,63.1,13.1,79,39.4h0Z"/>
  <path class="cls-1" d="M829.5,340.2v170H0v-80.6c269.5-58.9,546-88.7,829.5-89.4h0Z"/>
  <g class="cls-4">
    <g class="cls-4">
      <path class="cls-2" d="M670.8,403.5c-2-.8-3.4-2-4.3-3.5-.9-1.5-1.4-3.1-1.4-4.8,0-3,1-5.5,3.1-7.4,2.1-2,5.1-2.9,8.9-2.9s6.8,1,8.9,2.9c2.1,2,3.2,4.4,3.2,7.4s-.5,3.5-1.4,5c-1,1.4-2.3,2.6-4.1,3.3,2.2.9,3.9,2.2,5.1,3.9,1.2,1.7,1.7,3.7,1.7,5.9,0,3.7-1.2,6.7-3.5,9-2.4,2.3-5.5,3.5-9.4,3.5s-6.7-1-9.1-2.9c-2.9-2.3-4.3-5.4-4.3-9.3s.5-4.2,1.6-6c1.1-1.8,2.8-3.2,5.1-4.2ZM671.7,413c0,2.1.5,3.8,1.6,4.9,1.1,1.2,2.4,1.8,4.1,1.8s2.9-.6,3.9-1.7c1-1.1,1.6-2.8,1.6-4.9s-.5-3.4-1.6-4.5c-1.1-1.1-2.4-1.7-4-1.7s-3.3.6-4.2,1.9c-.9,1.3-1.4,2.7-1.4,4.2ZM672.4,395.8c0,1.5.4,2.7,1.3,3.6.9.9,2,1.3,3.5,1.3s2.6-.4,3.5-1.3c.9-.9,1.3-2.1,1.3-3.6s-.4-2.6-1.3-3.5c-.9-.9-2-1.3-3.4-1.3s-2.7.4-3.5,1.3-1.3,2-1.3,3.5Z"/>
      <path class="cls-2" d="M709.7,436.9h-5.3c-2.8-4.2-4.9-8.6-6.4-13.1-1.5-4.5-2.2-8.9-2.2-13.2s.9-10.3,2.7-15c1.6-4.1,3.6-7.8,6-11.3h5.2c-2.5,5.5-4.2,10.2-5.2,14.1-.9,3.9-1.4,8-1.4,12.3s.3,6.1.8,9.2c.6,3.1,1.3,6.1,2.3,8.9.6,1.9,1.8,4.5,3.4,8Z"/>
      <path class="cls-2" d="M721.4,405l-7-1.3c.8-2.8,2.1-4.9,4-6.2,1.9-1.3,4.8-2,8.5-2s6,.4,7.7,1.2c1.7.8,2.9,1.8,3.5,3.1.7,1.2,1,3.5,1,6.9v9c0,2.6,0,4.4.3,5.6.2,1.2.7,2.5,1.4,3.9h-7.6c-.2-.5-.4-1.3-.7-2.3-.1-.5-.2-.8-.3-.9-1.3,1.3-2.7,2.2-4.2,2.9-1.5.6-3.1,1-4.8,1-3,0-5.3-.8-7.1-2.4-1.7-1.6-2.6-3.7-2.6-6.2s.4-3.1,1.2-4.4c.8-1.3,1.9-2.3,3.3-3,1.4-.7,3.4-1.3,6.1-1.8,3.6-.7,6.1-1.3,7.5-1.9v-.8c0-1.5-.4-2.5-1.1-3.2-.7-.6-2.1-.9-4.1-.9s-2.4.3-3.2.8c-.8.5-1.4,1.5-1.9,2.8ZM731.7,411.2c-1,.3-2.5.7-4.7,1.2-2.1.5-3.5.9-4.2,1.3-1,.7-1.5,1.6-1.5,2.7s.4,2,1.2,2.8c.8.8,1.8,1.2,3.1,1.2s2.7-.5,4-1.4c.9-.7,1.5-1.5,1.8-2.5.2-.7.3-1.9.3-3.7v-1.5Z"/>
      <path class="cls-2" d="M744.7,436.9c1.5-3.2,2.6-5.7,3.2-7.5.6-1.7,1.2-3.7,1.7-6,.5-2.3.9-4.4,1.2-6.4.3-2,.4-4.1.4-6.2,0-4.3-.5-8.4-1.4-12.3-.9-3.9-2.6-8.6-5.1-14.1h5.2c2.8,3.9,4.9,8.1,6.4,12.5,1.5,4.4,2.3,8.9,2.3,13.4s-.6,7.9-1.8,12.2c-1.4,4.9-3.6,9.7-6.8,14.5h-5.3Z"/>
    </g>
    <g class="cls-4">
      <path class="cls-2" d="M504.7,477.6l7.8,2.5c-1.2,4.4-3.2,7.6-6,9.7-2.8,2.1-6.3,3.2-10.7,3.2s-9.7-1.8-13.1-5.5c-3.4-3.6-5.1-8.6-5.1-14.9s1.7-11.9,5.2-15.5,8-5.5,13.6-5.5,8.9,1.4,11.9,4.3c1.8,1.7,3.2,4.2,4.1,7.4l-8,1.9c-.5-2.1-1.5-3.7-3-4.9s-3.3-1.8-5.5-1.8-5.4,1.1-7.2,3.2c-1.9,2.1-2.8,5.6-2.8,10.4s.9,8.7,2.7,10.8c1.8,2.2,4.2,3.2,7.1,3.2s4-.7,5.6-2.1c1.5-1.4,2.7-3.5,3.3-6.5Z"/>
    </g>
    <g class="cls-4">
      <path class="cls-2" d="M519.3,492.4v-40.1h29.7v6.8h-21.6v8.9h20.1v6.8h-20.1v10.9h22.4v6.8h-30.5Z"/>
    </g>
    <g class="cls-4">
      <path class="cls-2" d="M555,492.4v-40.1h17c4.3,0,7.4.4,9.3,1.1,1.9.7,3.5,2,4.7,3.8,1.2,1.8,1.8,3.9,1.8,6.3s-.9,5.5-2.7,7.5c-1.8,2-4.4,3.2-7.9,3.7,1.8,1,3.2,2.1,4.3,3.4,1.1,1.2,2.7,3.4,4.6,6.5l4.9,7.8h-9.7l-5.9-8.7c-2.1-3.1-3.5-5.1-4.3-5.9-.8-.8-1.6-1.4-2.4-1.7s-2.2-.5-4.1-.5h-1.6v16.7h-8.1ZM563.1,469.2h6c3.9,0,6.3-.2,7.3-.5s1.7-.9,2.3-1.7c.5-.8.8-1.8.8-3s-.4-2.4-1.1-3.3c-.7-.8-1.7-1.4-3-1.6-.7,0-2.6-.1-5.9-.1h-6.3v10.2Z"/>
    </g>
    <g class="cls-4">
      <path class="cls-2" d="M602.4,492.4v-33.3h-11.9v-6.8h31.9v6.8h-11.9v33.3h-8.1Z"/>
      <path class="cls-2" d="M627.3,492.4v-40.1h8.1v40.1h-8.1Z"/>
      <path class="cls-2" d="M643.2,492.4v-40.1h27.5v6.8h-19.4v9.5h16.7v6.8h-16.7v17h-8.1Z"/>
      <path class="cls-2" d="M677.1,492.4v-40.1h8.1v40.1h-8.1Z"/>
    </g>
    <g class="cls-4">
      <path class="cls-2" d="M696.7,492.4v-40.1h29.7v6.8h-21.6v8.9h20.1v6.8h-20.1v10.9h22.4v6.8h-30.5Z"/>
    </g>
    <g class="cls-4">
      <path class="cls-2" d="M732.3,452.3h14.8c3.3,0,5.9.3,7.6.8,2.4.7,4.4,1.9,6,3.7,1.7,1.8,3,3.9,3.8,6.5.9,2.6,1.3,5.7,1.3,9.5s-.4,6.1-1.2,8.5c-1,2.9-2.4,5.3-4.3,7.1-1.4,1.4-3.3,2.4-5.7,3.2-1.8.6-4.2.8-7.2.8h-15.2v-40.1ZM740.4,459.1v26.6h6c2.3,0,3.9-.1,4.9-.4,1.3-.3,2.4-.9,3.3-1.7.9-.8,1.6-2.1,2.1-3.9.5-1.8.8-4.2.8-7.3s-.3-5.5-.8-7.1c-.5-1.7-1.3-3-2.3-3.9s-2.2-1.6-3.7-1.9c-1.1-.3-3.3-.4-6.6-.4h-3.6Z"/>
    </g>
  </g>
</svg>