<?xml version="1.0" encoding="UTF-8"?>
<svg id="Layer_1" data-name="Layer 1" xmlns="http://www.w3.org/2000/svg" version="1.1" viewBox="0 0 829.5 510.2">
  <defs>
    <style>
      .cls-1 {
        fill: #1d75bc;
      }

      .cls-1, .cls-2, .cls-3 {
        stroke-width: 0px;
      }

      .cls-4 {
        isolation: isolate;
      }

      .cls-2 {
        fill: #fff;
      }

      .cls-3 {
        fill: #231f20;
      }
    </style>
  </defs>
  <rect class="cls-2" x="2.5" y="2.5" width="824.5" height="505.2"/>
  <path class="cls-1" d="M824.5,5v500.2H5V5h819.5M829.5,0H0v510.2h829.5V0h0Z"/>
  <path class="cls-1" d="M301,140.9l-10.2,27.6c-19.2,21.3-36.6,44.8-51.8,70.2h0c-5,8.5-11.9,16.2-20.7,22.8-2.9,2.1-5.8,4-8.9,5.7-18.6,10.2-40.3,12.7-61.2,9.3h0c12.4,1.4,25.3-.3,36.7-5,47.3-19,75.3-83.3,46.7-127.5,0,0,0-.1.1-.1,12.3,17.5,18.6,38.2,17.8,58.2,15.9-22.4,32.9-42.8,51.3-61h0l.2-.2Z"/>
  <polygon class="cls-3" points="341.2 276.3 291.5 276.3 300.1 251.4 332.6 251.4 341.2 276.3"/>
  <polygon class="cls-3" points="387.5 276.3 359.6 276.3 351 251.4 316.4 152.3 316 152.3 281.8 251.4 273.2 276.3 245.1 276.3 280.3 181.1 289 157.7 301.1 125.1 331.5 125.1 334.1 132.2 387.5 276.3"/>
  <path class="cls-3" d="M408.5,235.9c10.3,11,26.5,20.6,47.3,20.6s30.1-10.5,30.1-20.4-15.9-17.5-34.1-22.2c-24.5-6.1-53.2-13.2-53.2-44.9s21.8-43.7,54.5-43.7,42.2,7.4,56.1,20.9l-15,19.5c-11.7-11.7-27.6-17.1-43.3-17.1s-25.4,7.4-25.4,18.6,15.2,15.5,33,20c24.7,6.3,54.1,13.9,54.1,46.4s-17.5,46.2-57.9,46.2-47.5-9.6-60.8-23.8l14.6-20.2h0Z"/>
  <path class="cls-3" d="M536.8,127.6h26.2v149.6h-26.2V127.6Z"/>
  <path class="cls-3" d="M599.8,235.9c10.3,11,26.5,20.6,47.3,20.6s30.1-10.5,30.1-20.4-15.9-17.5-34.1-22.2c-24.5-6.1-53.2-13.2-53.2-44.9s21.8-43.7,54.5-43.7,42.2,7.4,56.1,20.9l-15,19.5c-11.7-11.7-27.6-17.1-43.3-17.1s-25.3,7.4-25.3,18.6,15.2,15.5,33,20c24.7,6.3,54.1,13.9,54.1,46.4s-17.5,46.2-57.9,46.2-47.5-9.6-60.8-23.8l14.6-20.2h0Z"/>
  <path class="cls-1" d="M746,115.5v26h-15.6v-26h-22.6v-14.1h22.6v-24.9h15.6v24.9h22.6v14.1h-22.6Z"/>
  <path class="cls-1" d="M682.5,92.8c-78.1-27.6-162.1-33.6-240.1-12.9-38.9,10.2-75.4,28.1-108.3,52.2l-2.6-7.1h-4.2c46.2-33.4,101.5-53.6,169.4-59.1,62.1-5,125.8,4.1,185.8,26.9h0Z"/>
  <path class="cls-3" d="M224.5,130.6c-21.3-16.4-49.9-25.4-76.6-20.1-21.7,4.4-41,18.5-52.4,37.5-24.3,40.1-12.5,91.4,27.6,116.3,4.1,2.8,9.4,5.7,13.2,7.8-14.1-1.5-27.8-6.2-39.7-14.4-38.8-27.9-46.2-82.3-21.6-122.1,14.8-24.7,41.6-42.4,70.5-44.3,31-2.2,63.1,13.1,79,39.4h0Z"/>
  <path class="cls-1" d="M829.5,338.2v170H0v-80.6c269.5-58.9,546-88.7,829.5-89.4h0Z"/>
  <g class="cls-4">
    <g class="cls-4">
      <path class="cls-2" d="M285.8,415.1l7.7-.8c.5,2.6,1.4,4.5,2.8,5.7s3.3,1.8,5.8,1.8,4.5-.5,5.8-1.6,1.9-2.3,1.9-3.8-.3-1.7-.8-2.4c-.5-.7-1.5-1.2-2.9-1.7-.9-.3-3.1-.9-6.4-1.7-4.3-1.1-7.3-2.4-9-3.9-2.4-2.2-3.6-4.8-3.6-7.9s.6-3.9,1.7-5.6,2.8-3.1,4.9-4,4.7-1.4,7.7-1.4c4.9,0,8.7,1.1,11.2,3.2,2.5,2.2,3.8,5.1,3.9,8.7l-7.9.3c-.3-2-1.1-3.5-2.2-4.4s-2.8-1.3-5-1.3-4.1.5-5.4,1.4c-.8.6-1.3,1.4-1.3,2.4s.4,1.7,1.2,2.4c1,.8,3.4,1.7,7.3,2.6s6.7,1.9,8.6,2.8c1.9,1,3.3,2.3,4.4,4,1,1.7,1.6,3.8,1.6,6.3s-.6,4.4-1.9,6.3c-1.3,2-3,3.4-5.3,4.4s-5.1,1.4-8.6,1.4c-5,0-8.8-1.2-11.5-3.5s-4.3-5.7-4.8-10.1v.4Z"/>
    </g>
    <g class="cls-4">
      <path class="cls-2" d="M325.8,427.9v-39.4h29.2v6.7h-21.2v8.7h19.8v6.6h-19.8v10.7h22v6.6h-30Z"/>
    </g>
    <g class="cls-4">
      <path class="cls-2" d="M360.9,427.9v-39.4h16.7c4.2,0,7.3.4,9.2,1.1,1.9.7,3.4,2,4.6,3.8,1.1,1.8,1.7,3.9,1.7,6.2s-.9,5.4-2.6,7.3-4.3,3.1-7.8,3.6c1.7,1,3.1,2.1,4.3,3.3,1.1,1.2,2.6,3.3,4.5,6.4l4.8,7.7h-9.5l-5.7-8.6c-2-3.1-3.4-5-4.2-5.8-.8-.8-1.5-1.3-2.4-1.6-.8-.3-2.2-.4-4-.4h-1.6v16.4h-8ZM368.9,405.2h5.9c3.8,0,6.2-.2,7.1-.5s1.7-.9,2.2-1.7.8-1.8.8-3-.4-2.4-1.1-3.2c-.7-.8-1.7-1.3-3-1.5-.6,0-2.6-.1-5.8-.1h-6.2v10h.1Z"/>
    </g>
    <g class="cls-4">
      <path class="cls-2" d="M407.4,427.9l-14.1-39.4h8.6l10,29.1,9.6-29.1h8.4l-14.1,39.4h-8.5.1Z"/>
      <path class="cls-2" d="M433.8,427.9v-39.4h7.9v39.4h-7.9Z"/>
      <path class="cls-2" d="M474.6,413.4l7.7,2.4c-1.2,4.3-3.1,7.5-5.9,9.6s-6.2,3.1-10.5,3.1-9.5-1.8-12.9-5.4-5-8.5-5-14.6,1.7-11.6,5.1-15.3c3.4-3.6,7.8-5.4,13.3-5.4s8.7,1.4,11.7,4.3c1.8,1.7,3.1,4.1,4,7.3l-7.9,1.9c-.5-2-1.4-3.7-2.9-4.8-1.5-1.2-3.3-1.8-5.4-1.8s-5.3,1-7.1,3.1c-1.8,2.1-2.7,5.5-2.7,10.2s.9,8.5,2.7,10.6,4.1,3.2,7,3.2,3.9-.7,5.5-2c1.5-1.3,2.6-3.5,3.3-6.3h0Z"/>
    </g>
    <g class="cls-4">
      <path class="cls-2" d="M492.5,427.9v-39.4h29.2v6.7h-21.2v8.7h19.8v6.6h-19.8v10.7h22v6.6h-30Z"/>
    </g>
    <g class="cls-4">
      <path class="cls-2" d="M525.4,417.4v-7.5h14.8v7.5h-14.8Z"/>
      <path class="cls-2" d="M544.6,388.5h14.5c3.3,0,5.8.3,7.5.8,2.3.7,4.3,1.9,5.9,3.6,1.6,1.7,2.9,3.9,3.8,6.4s1.3,5.6,1.3,9.3-.4,6-1.2,8.4c-1,2.9-2.4,5.2-4.2,7-1.4,1.3-3.2,2.4-5.6,3.1-1.8.6-4.1.8-7,.8h-15v-39.4h0ZM552.5,395.2v26.1h5.9c2.2,0,3.8-.1,4.8-.4,1.3-.3,2.4-.9,3.2-1.6.9-.8,1.5-2,2.1-3.8s.8-4.2.8-7.2-.3-5.4-.8-7-1.3-2.9-2.3-3.8-2.2-1.5-3.7-1.9c-1.1-.3-3.3-.4-6.5-.4h-3.6,0Z"/>
      <path class="cls-2" d="M584.1,427.9v-39.4h7.9v39.4h-7.9Z"/>
    </g>
    <g class="cls-4">
      <path class="cls-2" d="M602.4,415.1l7.7-.8c.5,2.6,1.4,4.5,2.8,5.7,1.4,1.2,3.3,1.8,5.8,1.8s4.5-.5,5.8-1.6,1.9-2.3,1.9-3.8-.3-1.7-.8-2.4c-.5-.7-1.5-1.2-2.9-1.7-.9-.3-3.1-.9-6.4-1.7-4.3-1.1-7.3-2.4-9-3.9-2.4-2.2-3.6-4.8-3.6-7.9s.6-3.9,1.7-5.6c1.1-1.7,2.8-3.1,4.9-4s4.7-1.4,7.7-1.4c4.9,0,8.7,1.1,11.2,3.2,2.5,2.2,3.8,5.1,3.9,8.7l-7.9.3c-.3-2-1.1-3.5-2.2-4.4-1.1-.9-2.8-1.3-5-1.3s-4.1.5-5.4,1.4c-.8.6-1.3,1.4-1.3,2.4s.4,1.7,1.2,2.4c1,.8,3.4,1.7,7.3,2.6,3.9.9,6.7,1.9,8.6,2.8,1.9,1,3.3,2.3,4.4,4,1,1.7,1.6,3.8,1.6,6.3s-.6,4.4-1.9,6.3c-1.3,2-3,3.4-5.3,4.4s-5.1,1.4-8.6,1.4c-5,0-8.8-1.2-11.5-3.5s-4.3-5.7-4.8-10.1v.4Z"/>
    </g>
    <g class="cls-4">
      <path class="cls-2" d="M677.3,427.9h-8.6l-3.4-8.9h-15.7l-3.2,8.9h-8.4l15.3-39.4h8.4l15.8,39.4h-.2ZM662.6,412.3l-5.4-14.6-5.3,14.6h10.7Z"/>
    </g>
    <g class="cls-4">
      <path class="cls-2" d="M681.7,388.5h15.7c3.1,0,5.4.1,7,.4,1.5.3,2.9.8,4.1,1.6,1.2.8,2.2,1.9,3,3.3s1.2,2.9,1.2,4.6-.5,3.5-1.5,5.1c-1,1.5-2.3,2.7-4,3.5,2.4.7,4.2,1.9,5.5,3.6s1.9,3.7,1.9,5.9-.4,3.5-1.2,5.2-2,3-3.4,4.1-3.2,1.6-5.3,1.9c-1.3.1-4.5.2-9.6.3h-13.4v-39.4h0ZM689.7,395.1v9.1h5.2c3.1,0,5,0,5.8-.1,1.4-.2,2.4-.6,3.2-1.4s1.2-1.8,1.2-3.1-.3-2.2-1-3-1.7-1.2-3-1.4c-.8,0-3.1-.1-6.8-.1h-4.6ZM689.7,410.7v10.5h7.4c2.9,0,4.7,0,5.5-.2,1.2-.2,2.1-.7,2.9-1.6.7-.8,1.1-1.9,1.1-3.3s-.3-2.2-.9-3c-.6-.8-1.4-1.4-2.5-1.8s-3.4-.6-7-.6h-6.5Z"/>
    </g>
    <g class="cls-4">
      <path class="cls-2" d="M720.3,427.9v-39h7.9v32.4h19.8v6.6h-27.7Z"/>
    </g>
    <g class="cls-4">
      <path class="cls-2" d="M751.9,427.9v-39.4h29.2v6.7h-21.2v8.7h19.8v6.6h-19.8v10.7h22v6.6h-30Z"/>
    </g>
    <g class="cls-4">
      <path class="cls-2" d="M786.9,388.5h14.5c3.3,0,5.8.3,7.5.8,2.3.7,4.3,1.9,5.9,3.6,1.6,1.7,2.9,3.9,3.8,6.4s1.3,5.6,1.3,9.3-.4,6-1.2,8.4c-1,2.9-2.4,5.2-4.2,7-1.4,1.3-3.2,2.4-5.6,3.1-1.8.6-4.1.8-7,.8h-15v-39.4h0ZM794.9,395.2v26.1h5.9c2.2,0,3.8-.1,4.8-.4,1.3-.3,2.4-.9,3.2-1.6s1.5-2,2.1-3.8.8-4.2.8-7.2-.3-5.4-.8-7-1.3-2.9-2.3-3.8-2.2-1.5-3.7-1.9c-1.1-.3-3.3-.4-6.5-.4h-3.6,0Z"/>
    </g>
    <g class="cls-4">
      <path class="cls-2" d="M37.7,493.9l-14.1-39.4h8.6l10,29.1,9.6-29.1h8.4l-14.1,39.4h-8.5,0Z"/>
    </g>
    <g class="cls-4">
      <path class="cls-2" d="M66.3,493.9v-39.4h29.2v6.7h-21.2v8.7h19.8v6.6h-19.8v10.7h22v6.6h-30Z"/>
    </g>
    <g class="cls-4">
      <path class="cls-2" d="M111.4,493.9v-32.7h-11.7v-6.7h31.3v6.7h-11.7v32.7h-7.9Z"/>
    </g>
    <g class="cls-4">
      <path class="cls-2" d="M136.4,493.9v-39.4h29.2v6.7h-21.2v8.7h19.8v6.6h-19.8v10.7h22v6.6h-30Z"/>
    </g>
    <g class="cls-4">
      <path class="cls-2" d="M171.5,493.9v-39.4h16.7c4.2,0,7.3.4,9.2,1.1s3.4,2,4.6,3.8c1.1,1.8,1.7,3.9,1.7,6.2s-.9,5.4-2.6,7.3c-1.7,1.9-4.3,3.1-7.8,3.6,1.7,1,3.1,2.1,4.3,3.3,1.1,1.2,2.6,3.3,4.5,6.4l4.8,7.7h-9.5l-5.7-8.6c-2-3.1-3.4-5-4.2-5.8s-1.5-1.3-2.4-1.6c-.8-.3-2.2-.4-4-.4h-1.6v16.4h-8ZM179.4,471.2h5.9c3.8,0,6.2-.2,7.1-.5.9-.3,1.7-.9,2.2-1.7s.8-1.8.8-3-.4-2.4-1.1-3.2c-.7-.8-1.7-1.3-3-1.5-.6,0-2.6-.1-5.8-.1h-6.2v10h.1Z"/>
    </g>
    <g class="cls-4">
      <path class="cls-2" d="M245.6,493.9h-8.6l-3.4-8.9h-15.7l-3.2,8.9h-8.4l15.3-39.4h8.4l15.8,39.4h-.2ZM231,478.3l-5.4-14.6-5.3,14.6h10.7Z"/>
      <path class="cls-2" d="M249.9,493.9v-39.4h7.7l16.1,26.3v-26.3h7.4v39.4h-8l-15.9-25.7v25.7h-7.4,0Z"/>
      <path class="cls-2" d="M288.7,483.4v-7.5h14.8v7.5h-14.8Z"/>
    </g>
    <g class="cls-4">
      <path class="cls-2" d="M313.1,474.4c0-4,.6-7.4,1.8-10.1.9-2,2.1-3.8,3.7-5.4,1.5-1.6,3.2-2.8,5.1-3.5,2.5-1,5.3-1.6,8.5-1.6,5.8,0,10.4,1.8,13.9,5.4s5.2,8.6,5.2,15-1.7,11.3-5.2,14.9-8.1,5.4-13.9,5.4-10.5-1.8-14-5.4-5.2-8.5-5.2-14.8h.1ZM321.3,474.2c0,4.5,1,7.8,3.1,10.1,2.1,2.3,4.7,3.5,7.8,3.5s5.8-1.1,7.8-3.4,3-5.7,3-10.3-1-7.9-3-10.1-4.6-3.3-7.9-3.3-5.9,1.1-7.9,3.4c-2,2.2-3,5.6-3,10.2h.1Z"/>
    </g>
    <g class="cls-4">
      <path class="cls-2" d="M360.4,493.9l-9.4-39.4h8.1l5.9,27,7.2-27h9.5l6.9,27.5,6-27.5h8l-9.6,39.4h-8.4l-7.8-29.4-7.8,29.4h-8.6Z"/>
      <path class="cls-2" d="M406.8,493.9v-39.4h7.7l16.1,26.3v-26.3h7.4v39.4h-8l-15.9-25.7v25.7h-7.4,0Z"/>
    </g>
    <g class="cls-4">
      <path class="cls-2" d="M451.1,493.9v-39.4h29.2v6.7h-21.2v8.7h19.8v6.6h-19.8v10.7h22v6.6h-30Z"/>
    </g>
    <g class="cls-4">
      <path class="cls-2" d="M486.1,454.5h14.5c3.3,0,5.8.3,7.5.8,2.3.7,4.3,1.9,5.9,3.6s2.9,3.9,3.8,6.4,1.3,5.6,1.3,9.3-.4,6-1.2,8.4c-1,2.9-2.4,5.2-4.2,7-1.4,1.3-3.2,2.4-5.6,3.1-1.8.6-4.1.8-7,.8h-15v-39.4h0ZM494.1,461.2v26.1h5.9c2.2,0,3.8-.1,4.8-.4,1.3-.3,2.4-.9,3.2-1.6.9-.8,1.5-2,2.1-3.8s.8-4.2.8-7.2-.3-5.4-.8-7-1.3-2.9-2.3-3.8-2.2-1.5-3.7-1.9c-1.1-.3-3.3-.4-6.5-.4h-3.6.1Z"/>
      <path class="cls-2" d="M566.4,479.4l7.7,2.4c-1.2,4.3-3.1,7.5-5.9,9.6-2.7,2.1-6.2,3.1-10.5,3.1s-9.5-1.8-12.9-5.4-5-8.5-5-14.6,1.7-11.6,5.1-15.3c3.4-3.6,7.8-5.4,13.3-5.4s8.7,1.4,11.7,4.3c1.8,1.7,3.1,4.1,4,7.3l-7.9,1.9c-.5-2-1.4-3.7-2.9-4.8-1.5-1.2-3.3-1.8-5.4-1.8s-5.3,1-7.1,3.1-2.7,5.5-2.7,10.2.9,8.5,2.7,10.6,4.1,3.2,7,3.2,3.9-.7,5.5-2c1.5-1.3,2.6-3.5,3.3-6.3h0Z"/>
    </g>
    <g class="cls-4">
      <path class="cls-2" d="M577.7,493.9v-39.4h29.2v6.7h-21.2v8.7h19.8v6.6h-19.8v10.7h22v6.6h-30Z"/>
    </g>
    <g class="cls-4">
      <path class="cls-2" d="M612.7,493.9v-39.4h16.7c4.2,0,7.3.4,9.2,1.1s3.4,2,4.6,3.8c1.1,1.8,1.7,3.9,1.7,6.2s-.9,5.4-2.6,7.3c-1.7,1.9-4.3,3.1-7.8,3.6,1.7,1,3.1,2.1,4.3,3.3s2.6,3.3,4.5,6.4l4.8,7.7h-9.5l-5.7-8.6c-2-3.1-3.4-5-4.2-5.8s-1.5-1.3-2.4-1.6c-.8-.3-2.2-.4-4-.4h-1.6v16.4h-8ZM620.7,471.2h5.9c3.8,0,6.2-.2,7.1-.5.9-.3,1.7-.9,2.2-1.7s.8-1.8.8-3-.4-2.4-1.1-3.2-1.7-1.3-3-1.5c-.6,0-2.6-.1-5.8-.1h-6.2v10h0Z"/>
    </g>
    <g class="cls-4">
      <path class="cls-2" d="M659.3,493.9v-32.7h-11.7v-6.7h31.3v6.7h-11.7v32.7h-7.9,0Z"/>
      <path class="cls-2" d="M683.8,493.9v-39.4h7.9v39.4h-7.9Z"/>
      <path class="cls-2" d="M699.4,493.9v-39.4h27v6.7h-19v9.3h16.4v6.7h-16.4v16.7h-8Z"/>
      <path class="cls-2" d="M732.7,493.9v-39.4h7.9v39.4h-7.9Z"/>
    </g>
    <g class="cls-4">
      <path class="cls-2" d="M751.9,493.9v-39.4h29.2v6.7h-21.2v8.7h19.8v6.6h-19.8v10.7h22v6.6h-30Z"/>
    </g>
    <g class="cls-4">
      <path class="cls-2" d="M786.9,454.5h14.5c3.3,0,5.8.3,7.5.8,2.3.7,4.3,1.9,5.9,3.6,1.6,1.7,2.9,3.9,3.8,6.4s1.3,5.6,1.3,9.3-.4,6-1.2,8.4c-1,2.9-2.4,5.2-4.2,7-1.4,1.3-3.2,2.4-5.6,3.1-1.8.6-4.1.8-7,.8h-15v-39.4h0ZM794.9,461.2v26.1h5.9c2.2,0,3.8-.1,4.8-.4,1.3-.3,2.4-.9,3.2-1.6s1.5-2,2.1-3.8.8-4.2.8-7.2-.3-5.4-.8-7-1.3-2.9-2.3-3.8-2.2-1.5-3.7-1.9c-1.1-.3-3.3-.4-6.5-.4h-3.6,0Z"/>
    </g>
  </g>
</svg>