<?xml version="1.0" encoding="utf-8"?>
<!-- Generator: Adobe Illustrator 28.2.0, SVG Export Plug-In . SVG Version: 6.00 Build 0)  -->
<svg version="1.1" id="Layer_1" xmlns="http://www.w3.org/2000/svg" xmlns:xlink="http://www.w3.org/1999/xlink" x="0px" y="0px"
	 viewBox="0 0 287.31 359.21" style="enable-background:new 0 0 287.31 359.21;" xml:space="preserve">
<style type="text/css">
	.st0{fill:#FFFFFF;stroke:#003363;stroke-width:2;stroke-miterlimit:10;}
	.st1{fill:#003363;}
	.st2{fill:#CC0000;}
	.st3{fill:#002E6D;}
	.st4{fill:#FFFFFF;}
</style>
<g>
	<polygon class="st0" points="286.31,1 1,1 1,358.21 268.91,358.21 286.31,341.81 	"/>
	<polygon class="st1" points="0.44,257.67 286.01,257.67 286.01,341.18 268.98,358.21 1,358.21 	"/>
	<g>
		<polygon class="st2" points="200.94,159.33 86.52,159.33 85.44,159.33 85.44,158.26 85.44,142.88 75.63,142.88 75.63,169.14 
			200.94,169.14 		"/>
		<polygon class="st3" points="75.8,60.42 85.61,60.42 85.61,45.04 85.61,43.96 86.69,43.96 199.98,43.96 201.05,43.96 
			201.05,45.04 201.05,60.42 210.87,60.42 210.87,34.16 75.8,34.16 		"/>
		<path class="st3" d="M67.9,113.75c0.08,3.42,1.73,9.91,12.5,9.91c5.84,0,12.34-1.45,12.34-7.95c0-4.79-4.44-6.06-10.69-7.6
			l-6.34-1.54c-9.54-2.31-18.76-4.53-18.76-18.03c0-6.83,3.54-18.88,22.7-18.88c18.1,0,22.95,12.3,23.04,19.82H90.85
			c-0.33-2.73-1.32-9.23-12.09-9.23c-4.69,0-10.28,1.8-10.28,7.35c0,4.79,3.78,5.81,6.25,6.41l14.4,3.68
			c8.06,2.05,15.47,5.46,15.47,16.48c0,18.46-18.1,20.08-23.28,20.08c-21.55,0-25.26-12.9-25.26-20.5H67.9z"/>
		<path class="st3" d="M120.2,71.28h29.82c15.04,0,18.88,9.4,18.88,15.72c0,8.8-4.96,11.28-7.52,12.56
			c7.52,2.82,9.49,8.8,9.49,14.87c0,4.87-2.05,9.48-5.3,12.65c-3.5,3.42-6.84,5.55-19.4,5.55H120.2V71.28z M132.5,95.3h15.04
			c5.04,0,9.06-1.96,9.06-6.84c0-5.04-3.59-6.58-9.4-6.58h-14.7V95.3z M132.5,122.04h15.72c6.24,0,9.83-2.73,9.83-8.97
			c0-5.38-4.62-7.44-9.23-7.44H132.5V122.04z"/>
		<polygon class="st3" points="210.77,71.27 201.04,71.27 181.55,132.66 193.85,132.66 205.79,92.35 217.93,132.66 230.23,132.66 		
			"/>
		<polygon class="st3" points="210.69,159.28 200.94,169.14 200.94,132.81 210.69,132.81 		"/>
		<g>
			<g>
				<path class="st3" d="M75.63,194.06h1.36v6.36c0,0.65,0.07,1.19,0.2,1.63c0.13,0.44,0.31,0.79,0.53,1.05
					c0.22,0.26,0.49,0.45,0.8,0.57c0.31,0.12,0.63,0.17,0.98,0.17c0.36,0,0.7-0.06,1-0.17c0.31-0.12,0.57-0.3,0.8-0.57
					c0.23-0.26,0.41-0.61,0.54-1.05c0.13-0.44,0.2-0.98,0.2-1.63v-6.36h1.31v6.32c0,0.86-0.1,1.59-0.3,2.18
					c-0.2,0.59-0.47,1.07-0.81,1.44c-0.34,0.37-0.75,0.63-1.22,0.79c-0.47,0.16-0.98,0.24-1.53,0.24s-1.06-0.08-1.54-0.24
					c-0.48-0.16-0.89-0.42-1.23-0.79c-0.34-0.37-0.62-0.85-0.81-1.44c-0.2-0.59-0.3-1.32-0.3-2.18V194.06z"/>
				<path class="st3" d="M84.37,204.01c0-0.32,0.1-0.57,0.29-0.76c0.19-0.19,0.42-0.29,0.7-0.29c0.26,0,0.49,0.1,0.68,0.29
					c0.19,0.19,0.29,0.45,0.29,0.76c0,0.3-0.1,0.54-0.29,0.73c-0.19,0.19-0.42,0.29-0.68,0.29c-0.27,0-0.51-0.1-0.7-0.29
					C84.46,204.55,84.37,204.3,84.37,204.01z"/>
				<path class="st3" d="M88.65,202.48c0.38,0.41,0.83,0.73,1.35,0.98c0.52,0.25,1.06,0.37,1.62,0.37c0.71,0,1.26-0.16,1.66-0.48
					c0.39-0.32,0.59-0.75,0.59-1.27c0-0.27-0.05-0.51-0.14-0.7c-0.09-0.19-0.22-0.36-0.38-0.49c-0.16-0.14-0.35-0.26-0.57-0.37
					c-0.22-0.11-0.45-0.22-0.71-0.34l-1.54-0.67c-0.25-0.11-0.51-0.24-0.77-0.39c-0.26-0.15-0.5-0.34-0.71-0.56
					c-0.21-0.22-0.38-0.48-0.51-0.78c-0.13-0.3-0.2-0.65-0.2-1.04c0-0.4,0.09-0.78,0.26-1.13c0.17-0.35,0.4-0.65,0.71-0.91
					c0.3-0.26,0.66-0.46,1.07-0.6c0.41-0.14,0.86-0.21,1.35-0.21c0.65,0,1.24,0.12,1.79,0.37s1.01,0.57,1.4,0.96l-0.74,0.89
					c-0.33-0.32-0.69-0.57-1.09-0.75c-0.4-0.18-0.85-0.27-1.35-0.27c-0.6,0-1.09,0.14-1.45,0.42c-0.37,0.28-0.55,0.67-0.55,1.16
					c0,0.26,0.05,0.48,0.16,0.67c0.1,0.18,0.24,0.34,0.42,0.48c0.18,0.14,0.37,0.26,0.57,0.36c0.21,0.1,0.42,0.2,0.64,0.29
					l1.53,0.66c0.31,0.13,0.6,0.28,0.87,0.45c0.27,0.17,0.51,0.37,0.71,0.59c0.2,0.23,0.35,0.49,0.47,0.79
					c0.12,0.3,0.17,0.65,0.17,1.04c0,0.43-0.09,0.83-0.25,1.2c-0.17,0.37-0.41,0.7-0.73,0.98c-0.32,0.28-0.7,0.5-1.15,0.66
					c-0.45,0.16-0.96,0.24-1.53,0.24c-0.76,0-1.46-0.14-2.1-0.43c-0.65-0.28-1.2-0.67-1.68-1.17L88.65,202.48z"/>
				<path class="st3" d="M96.73,204.01c0-0.32,0.1-0.57,0.29-0.76c0.19-0.19,0.42-0.29,0.7-0.29c0.26,0,0.49,0.1,0.68,0.29
					c0.19,0.19,0.29,0.45,0.29,0.76c0,0.3-0.1,0.54-0.29,0.73c-0.19,0.19-0.42,0.29-0.68,0.29c-0.27,0-0.51-0.1-0.7-0.29
					C96.83,204.55,96.73,204.3,96.73,204.01z"/>
				<path class="st3" d="M105.07,202.48c0.38,0.41,0.83,0.73,1.35,0.98c0.52,0.25,1.06,0.37,1.62,0.37c0.71,0,1.26-0.16,1.66-0.48
					c0.39-0.32,0.59-0.75,0.59-1.27c0-0.27-0.05-0.51-0.14-0.7c-0.09-0.19-0.22-0.36-0.38-0.49c-0.16-0.14-0.35-0.26-0.57-0.37
					c-0.22-0.11-0.45-0.22-0.71-0.34l-1.54-0.67c-0.25-0.11-0.51-0.24-0.77-0.39c-0.26-0.15-0.5-0.34-0.71-0.56
					c-0.21-0.22-0.38-0.48-0.51-0.78c-0.13-0.3-0.2-0.65-0.2-1.04c0-0.4,0.09-0.78,0.26-1.13c0.17-0.35,0.4-0.65,0.71-0.91
					c0.3-0.26,0.66-0.46,1.07-0.6c0.41-0.14,0.86-0.21,1.35-0.21c0.65,0,1.24,0.12,1.79,0.37c0.55,0.25,1.01,0.57,1.4,0.96
					l-0.74,0.89c-0.33-0.32-0.69-0.57-1.09-0.75c-0.4-0.18-0.85-0.27-1.35-0.27c-0.6,0-1.09,0.14-1.45,0.42
					c-0.37,0.28-0.55,0.67-0.55,1.16c0,0.26,0.05,0.48,0.16,0.67c0.1,0.18,0.24,0.34,0.42,0.48c0.18,0.14,0.37,0.26,0.57,0.36
					c0.21,0.1,0.42,0.2,0.64,0.29l1.53,0.66c0.31,0.13,0.6,0.28,0.87,0.45c0.27,0.17,0.51,0.37,0.71,0.59
					c0.2,0.23,0.35,0.49,0.47,0.79c0.12,0.3,0.17,0.65,0.17,1.04c0,0.43-0.09,0.83-0.25,1.2c-0.17,0.37-0.41,0.7-0.73,0.98
					c-0.32,0.28-0.7,0.5-1.15,0.66c-0.45,0.16-0.96,0.24-1.53,0.24c-0.76,0-1.46-0.14-2.1-0.43c-0.65-0.28-1.2-0.67-1.68-1.17
					L105.07,202.48z"/>
				<path class="st3" d="M114.09,196.85h1.12l0.12,1.15h0.05c0.35-0.38,0.73-0.7,1.14-0.96c0.41-0.26,0.86-0.39,1.34-0.39
					c0.61,0,1.09,0.13,1.44,0.4c0.35,0.27,0.6,0.64,0.76,1.12c0.42-0.46,0.83-0.83,1.26-1.11c0.42-0.28,0.88-0.42,1.37-0.42
					c0.82,0,1.43,0.26,1.83,0.79c0.4,0.53,0.6,1.3,0.6,2.33v5.06h-1.35v-4.88c0-0.76-0.12-1.3-0.36-1.63
					c-0.24-0.33-0.61-0.5-1.12-0.5c-0.6,0-1.27,0.41-2,1.23v5.78h-1.35v-4.88c0-0.76-0.12-1.3-0.36-1.63
					c-0.24-0.33-0.62-0.5-1.13-0.5c-0.6,0-1.27,0.41-2,1.23v5.78h-1.35V196.85z"/>
				<path class="st3" d="M127.39,202.76c0-0.88,0.39-1.55,1.17-2.01c0.78-0.47,2.03-0.79,3.74-0.98c0-0.25-0.03-0.5-0.07-0.74
					c-0.05-0.24-0.14-0.45-0.26-0.64c-0.13-0.19-0.29-0.34-0.5-0.45c-0.21-0.12-0.48-0.17-0.8-0.17c-0.47,0-0.91,0.09-1.31,0.26
					c-0.4,0.18-0.76,0.37-1.08,0.59l-0.54-0.94c0.37-0.24,0.83-0.47,1.36-0.7c0.54-0.22,1.13-0.34,1.77-0.34
					c0.97,0,1.68,0.3,2.12,0.9c0.44,0.6,0.66,1.39,0.66,2.39v4.89h-1.12l-0.12-0.95h-0.03c-0.38,0.32-0.8,0.59-1.24,0.81
					c-0.44,0.22-0.91,0.34-1.4,0.34c-0.68,0-1.24-0.2-1.68-0.59C127.61,204.04,127.39,203.48,127.39,202.76z M128.72,202.66
					c0,0.46,0.13,0.79,0.4,0.99c0.27,0.2,0.6,0.3,0.99,0.3c0.38,0,0.75-0.09,1.09-0.27c0.35-0.18,0.71-0.45,1.09-0.8v-2.22
					c-0.67,0.09-1.23,0.19-1.69,0.31c-0.46,0.12-0.83,0.26-1.11,0.43c-0.28,0.16-0.48,0.35-0.6,0.57
					C128.78,202.18,128.72,202.41,128.72,202.66z"/>
				<path class="st3" d="M136.6,193.14h1.35v10.18c0,0.22,0.04,0.37,0.11,0.46c0.08,0.09,0.16,0.13,0.26,0.13c0.04,0,0.09,0,0.12,0
					c0.04,0,0.1-0.01,0.17-0.03l0.18,1.02c-0.09,0.04-0.19,0.08-0.31,0.1c-0.12,0.02-0.27,0.03-0.46,0.03
					c-0.51,0-0.88-0.15-1.1-0.46c-0.22-0.31-0.33-0.76-0.33-1.35V193.14z"/>
				<path class="st3" d="M141.2,193.14h1.35v10.18c0,0.22,0.04,0.37,0.11,0.46c0.08,0.09,0.16,0.13,0.26,0.13c0.04,0,0.09,0,0.12,0
					c0.04,0,0.1-0.01,0.17-0.03l0.18,1.02c-0.09,0.04-0.19,0.08-0.31,0.1c-0.12,0.02-0.27,0.03-0.46,0.03
					c-0.51,0-0.88-0.15-1.1-0.46c-0.22-0.31-0.33-0.76-0.33-1.35V193.14z"/>
				<path class="st3" d="M149.66,194.06h3.2c0.55,0,1.05,0.05,1.5,0.15c0.45,0.1,0.84,0.25,1.17,0.46c0.32,0.21,0.57,0.48,0.76,0.81
					c0.18,0.33,0.27,0.74,0.27,1.21c0,0.54-0.15,1.02-0.46,1.45c-0.31,0.43-0.78,0.73-1.41,0.89v0.07c0.79,0.12,1.4,0.39,1.84,0.82
					c0.44,0.43,0.66,1.01,0.66,1.76c0,0.53-0.1,0.99-0.3,1.38c-0.2,0.39-0.48,0.72-0.84,0.99c-0.36,0.26-0.79,0.46-1.3,0.59
					c-0.5,0.13-1.06,0.2-1.66,0.2h-3.43V194.06z M152.61,198.65c0.93,0,1.6-0.16,2-0.48c0.4-0.32,0.6-0.78,0.6-1.38
					c0-0.59-0.21-1.02-0.63-1.27c-0.42-0.26-1.05-0.39-1.9-0.39h-1.66v3.51H152.61z M152.89,203.74c0.93,0,1.65-0.17,2.17-0.52
					c0.51-0.35,0.77-0.88,0.77-1.62c0-0.67-0.25-1.16-0.76-1.47c-0.5-0.31-1.23-0.47-2.18-0.47h-1.87v4.07H152.89z"/>
				<path class="st3" d="M159.15,196.85h1.36v4.88c0,0.76,0.12,1.3,0.35,1.63c0.24,0.33,0.62,0.5,1.14,0.5
					c0.42,0,0.78-0.11,1.1-0.32c0.32-0.21,0.67-0.56,1.05-1.03v-5.67h1.35v7.98h-1.12l-0.12-1.25h-0.05
					c-0.37,0.44-0.76,0.79-1.17,1.05c-0.41,0.26-0.89,0.39-1.45,0.39c-0.85,0-1.47-0.26-1.86-0.79c-0.39-0.53-0.58-1.3-0.58-2.33
					V196.85z"/>
				<path class="st3" d="M168.4,203.02c0.35,0.29,0.71,0.52,1.08,0.69c0.37,0.18,0.79,0.26,1.27,0.26c0.53,0,0.92-0.12,1.18-0.36
					c0.26-0.24,0.39-0.54,0.39-0.89c0-0.21-0.06-0.39-0.16-0.54c-0.11-0.15-0.25-0.29-0.42-0.4c-0.17-0.11-0.36-0.22-0.58-0.3
					c-0.22-0.09-0.44-0.18-0.66-0.26c-0.29-0.1-0.57-0.21-0.85-0.34c-0.29-0.13-0.54-0.28-0.76-0.46c-0.22-0.18-0.41-0.39-0.55-0.63
					c-0.14-0.24-0.21-0.53-0.21-0.87c0-0.32,0.06-0.62,0.19-0.9c0.13-0.28,0.31-0.52,0.54-0.72c0.24-0.2,0.52-0.36,0.86-0.48
					s0.72-0.17,1.15-0.17c0.5,0,0.97,0.09,1.39,0.26s0.79,0.39,1.09,0.64l-0.64,0.85c-0.27-0.21-0.56-0.38-0.85-0.51
					c-0.3-0.13-0.62-0.2-0.97-0.2c-0.5,0-0.87,0.12-1.11,0.35c-0.24,0.23-0.35,0.5-0.35,0.8c0,0.19,0.05,0.35,0.15,0.48
					c0.1,0.14,0.23,0.26,0.39,0.36c0.16,0.1,0.35,0.2,0.57,0.28c0.21,0.08,0.44,0.17,0.67,0.25c0.28,0.11,0.57,0.22,0.86,0.34
					c0.29,0.12,0.55,0.27,0.78,0.45c0.23,0.18,0.42,0.4,0.57,0.67c0.15,0.26,0.22,0.58,0.22,0.95c0,0.33-0.06,0.63-0.19,0.92
					c-0.13,0.28-0.31,0.54-0.56,0.76c-0.25,0.22-0.55,0.39-0.92,0.52c-0.37,0.13-0.79,0.19-1.26,0.19c-0.57,0-1.11-0.1-1.63-0.31
					c-0.52-0.21-0.96-0.47-1.35-0.79L168.4,203.02z"/>
				<path class="st3" d="M176.59,195.2c-0.26,0-0.48-0.08-0.66-0.25c-0.18-0.16-0.27-0.37-0.27-0.62c0-0.26,0.09-0.47,0.27-0.63
					s0.4-0.24,0.66-0.24c0.26,0,0.48,0.08,0.67,0.24s0.27,0.37,0.27,0.63c0,0.25-0.09,0.46-0.27,0.62
					C177.07,195.12,176.85,195.2,176.59,195.2z M175.9,196.85h1.35v7.98h-1.35V196.85z"/>
				<path class="st3" d="M180.35,196.85h1.12l0.12,1.15h0.05c0.38-0.38,0.79-0.7,1.21-0.96c0.42-0.26,0.91-0.39,1.47-0.39
					c0.84,0,1.46,0.26,1.85,0.79c0.39,0.53,0.58,1.3,0.58,2.33v5.06h-1.35v-4.88c0-0.76-0.12-1.3-0.36-1.63s-0.62-0.5-1.15-0.5
					c-0.42,0-0.78,0.1-1.1,0.31c-0.32,0.21-0.68,0.52-1.08,0.92v5.78h-1.35V196.85z"/>
				<path class="st3" d="M189.15,200.85c0-0.66,0.1-1.24,0.3-1.77c0.2-0.52,0.47-0.96,0.8-1.32c0.33-0.36,0.71-0.64,1.14-0.83
					c0.43-0.19,0.87-0.29,1.33-0.29c0.5,0,0.96,0.09,1.35,0.26s0.73,0.43,1,0.76c0.27,0.33,0.47,0.72,0.62,1.18
					c0.14,0.46,0.21,0.97,0.21,1.54c0,0.3-0.02,0.54-0.05,0.74h-5.39c0.06,0.86,0.32,1.55,0.8,2.05c0.48,0.5,1.1,0.76,1.86,0.76
					c0.38,0,0.74-0.06,1.06-0.17c0.32-0.12,0.63-0.27,0.93-0.45l0.48,0.89c-0.35,0.22-0.74,0.41-1.17,0.57
					c-0.43,0.16-0.91,0.25-1.46,0.25c-0.54,0-1.04-0.1-1.5-0.29c-0.47-0.19-0.87-0.47-1.22-0.82c-0.34-0.36-0.62-0.79-0.81-1.31
					C189.25,202.1,189.15,201.51,189.15,200.85z M194.74,200.25c0-0.82-0.17-1.45-0.52-1.88c-0.34-0.43-0.83-0.65-1.45-0.65
					c-0.28,0-0.56,0.06-0.81,0.17c-0.26,0.12-0.49,0.28-0.7,0.49c-0.21,0.21-0.38,0.48-0.52,0.79c-0.14,0.31-0.23,0.67-0.27,1.08
					H194.74z"/>
				<path class="st3" d="M198.08,203.02c0.35,0.29,0.71,0.52,1.08,0.69c0.37,0.18,0.79,0.26,1.27,0.26c0.53,0,0.92-0.12,1.18-0.36
					s0.39-0.54,0.39-0.89c0-0.21-0.06-0.39-0.16-0.54c-0.11-0.15-0.25-0.29-0.42-0.4c-0.17-0.11-0.36-0.22-0.58-0.3
					c-0.22-0.09-0.44-0.18-0.66-0.26c-0.29-0.1-0.57-0.21-0.85-0.34c-0.29-0.13-0.54-0.28-0.76-0.46c-0.22-0.18-0.41-0.39-0.55-0.63
					c-0.14-0.24-0.21-0.53-0.21-0.87c0-0.32,0.06-0.62,0.19-0.9c0.13-0.28,0.31-0.52,0.54-0.72c0.24-0.2,0.52-0.36,0.86-0.48
					s0.72-0.17,1.15-0.17c0.5,0,0.97,0.09,1.39,0.26c0.42,0.18,0.79,0.39,1.09,0.64l-0.64,0.85c-0.27-0.21-0.56-0.38-0.85-0.51
					c-0.3-0.13-0.62-0.2-0.97-0.2c-0.5,0-0.87,0.12-1.11,0.35c-0.24,0.23-0.35,0.5-0.35,0.8c0,0.19,0.05,0.35,0.15,0.48
					c0.1,0.14,0.23,0.26,0.39,0.36c0.16,0.1,0.35,0.2,0.57,0.28c0.21,0.08,0.44,0.17,0.67,0.25c0.28,0.11,0.57,0.22,0.86,0.34
					c0.29,0.12,0.55,0.27,0.78,0.45c0.23,0.18,0.42,0.4,0.57,0.67c0.15,0.26,0.22,0.58,0.22,0.95c0,0.33-0.06,0.63-0.19,0.92
					c-0.13,0.28-0.31,0.54-0.56,0.76c-0.25,0.22-0.55,0.39-0.92,0.52c-0.37,0.13-0.79,0.19-1.26,0.19c-0.57,0-1.11-0.1-1.63-0.31
					c-0.52-0.21-0.96-0.47-1.35-0.79L198.08,203.02z"/>
				<path class="st3" d="M205.38,203.02c0.35,0.29,0.71,0.52,1.08,0.69c0.37,0.18,0.79,0.26,1.27,0.26c0.53,0,0.92-0.12,1.18-0.36
					c0.26-0.24,0.39-0.54,0.39-0.89c0-0.21-0.06-0.39-0.16-0.54c-0.11-0.15-0.25-0.29-0.42-0.4c-0.17-0.11-0.36-0.22-0.58-0.3
					c-0.22-0.09-0.44-0.18-0.66-0.26c-0.29-0.1-0.57-0.21-0.85-0.34c-0.29-0.13-0.54-0.28-0.76-0.46c-0.22-0.18-0.41-0.39-0.55-0.63
					c-0.14-0.24-0.21-0.53-0.21-0.87c0-0.32,0.06-0.62,0.19-0.9c0.13-0.28,0.31-0.52,0.54-0.72c0.24-0.2,0.52-0.36,0.86-0.48
					s0.72-0.17,1.15-0.17c0.5,0,0.97,0.09,1.39,0.26s0.79,0.39,1.09,0.64l-0.64,0.85c-0.27-0.21-0.56-0.38-0.85-0.51
					c-0.3-0.13-0.62-0.2-0.97-0.2c-0.5,0-0.87,0.12-1.11,0.35c-0.24,0.23-0.35,0.5-0.35,0.8c0,0.19,0.05,0.35,0.15,0.48
					c0.1,0.14,0.23,0.26,0.39,0.36c0.16,0.1,0.35,0.2,0.57,0.28c0.21,0.08,0.44,0.17,0.67,0.25c0.28,0.11,0.57,0.22,0.86,0.34
					c0.29,0.12,0.55,0.27,0.78,0.45c0.23,0.18,0.42,0.4,0.57,0.67c0.15,0.26,0.22,0.58,0.22,0.95c0,0.33-0.06,0.63-0.19,0.92
					c-0.13,0.28-0.31,0.54-0.56,0.76c-0.25,0.22-0.55,0.39-0.92,0.52c-0.37,0.13-0.79,0.19-1.26,0.19c-0.57,0-1.11-0.1-1.63-0.31
					c-0.52-0.21-0.96-0.47-1.35-0.79L205.38,203.02z"/>
			</g>
			<g>
				<path class="st3" d="M96.62,220.02h-3.92l-1.03,3.28h-1.4l3.65-10.77h1.54l3.65,10.77h-1.46L96.62,220.02z M96.27,218.92
					l-0.51-1.64c-0.2-0.6-0.38-1.2-0.56-1.8c-0.18-0.6-0.35-1.21-0.53-1.83h-0.07c-0.16,0.62-0.33,1.23-0.51,1.83
					c-0.18,0.6-0.36,1.2-0.56,1.8l-0.51,1.64H96.27z"/>
				<path class="st3" d="M100.33,219.33c0-0.65,0.1-1.23,0.29-1.75c0.19-0.52,0.45-0.96,0.76-1.32c0.32-0.36,0.68-0.64,1.1-0.84
					s0.85-0.3,1.31-0.3c0.46,0,0.86,0.08,1.2,0.25s0.68,0.39,1.03,0.67l-0.07-1.36v-3.07h1.36v11.69h-1.12l-0.12-0.94h-0.05
					c-0.32,0.31-0.68,0.57-1.09,0.8c-0.41,0.22-0.85,0.34-1.32,0.34c-1.01,0-1.81-0.36-2.41-1.08
					C100.63,221.69,100.33,220.66,100.33,219.33z M101.73,219.31c0,0.96,0.19,1.71,0.58,2.25c0.38,0.54,0.92,0.8,1.63,0.8
					c0.37,0,0.72-0.09,1.05-0.27c0.33-0.18,0.66-0.46,0.99-0.83v-4.17c-0.34-0.31-0.67-0.52-0.98-0.65
					c-0.31-0.13-0.63-0.19-0.96-0.19c-0.32,0-0.62,0.07-0.89,0.22c-0.28,0.15-0.52,0.36-0.73,0.62c-0.21,0.27-0.37,0.59-0.49,0.96
					C101.79,218.44,101.73,218.85,101.73,219.31z"/>
				<path class="st3" d="M110.1,215.32h1.12l0.12,1.15h0.05c0.35-0.38,0.73-0.7,1.14-0.96c0.41-0.26,0.86-0.39,1.34-0.39
					c0.61,0,1.09,0.13,1.44,0.4c0.35,0.27,0.6,0.64,0.76,1.12c0.42-0.46,0.83-0.83,1.26-1.11c0.42-0.28,0.88-0.42,1.37-0.42
					c0.82,0,1.43,0.26,1.83,0.79c0.4,0.53,0.6,1.3,0.6,2.33v5.06h-1.35v-4.88c0-0.76-0.12-1.3-0.36-1.63
					c-0.24-0.33-0.61-0.5-1.12-0.5c-0.6,0-1.27,0.41-2,1.23v5.78h-1.35v-4.88c0-0.76-0.12-1.3-0.36-1.63
					c-0.24-0.33-0.62-0.5-1.13-0.5c-0.6,0-1.27,0.41-2,1.23v5.78h-1.35V215.32z"/>
				<path class="st3" d="M124.81,213.68c-0.26,0-0.48-0.08-0.66-0.25c-0.18-0.16-0.27-0.37-0.27-0.62c0-0.26,0.09-0.47,0.27-0.63
					c0.18-0.16,0.4-0.24,0.66-0.24c0.26,0,0.48,0.08,0.67,0.24c0.18,0.16,0.27,0.37,0.27,0.63c0,0.25-0.09,0.46-0.27,0.62
					C125.3,213.6,125.08,213.68,124.81,213.68z M124.12,215.32h1.35v7.98h-1.35V215.32z"/>
				<path class="st3" d="M128.57,215.32h1.12l0.12,1.15h0.05c0.38-0.38,0.79-0.7,1.21-0.96c0.42-0.26,0.91-0.39,1.47-0.39
					c0.84,0,1.46,0.26,1.85,0.79c0.39,0.53,0.58,1.3,0.58,2.33v5.06h-1.35v-4.88c0-0.76-0.12-1.3-0.36-1.63s-0.62-0.5-1.15-0.5
					c-0.42,0-0.78,0.1-1.1,0.31c-0.32,0.21-0.68,0.52-1.08,0.92v5.78h-1.35V215.32z"/>
				<path class="st3" d="M138.66,213.68c-0.26,0-0.48-0.08-0.66-0.25c-0.18-0.16-0.27-0.37-0.27-0.62c0-0.26,0.09-0.47,0.27-0.63
					c0.18-0.16,0.4-0.24,0.66-0.24c0.26,0,0.48,0.08,0.67,0.24c0.18,0.16,0.27,0.37,0.27,0.63c0,0.25-0.09,0.46-0.27,0.62
					C139.14,213.6,138.92,213.68,138.66,213.68z M137.97,215.32h1.35v7.98h-1.35V215.32z"/>
				<path class="st3" d="M142.2,221.5c0.35,0.29,0.71,0.52,1.08,0.69c0.37,0.18,0.79,0.26,1.27,0.26c0.53,0,0.92-0.12,1.18-0.36
					s0.39-0.54,0.39-0.89c0-0.21-0.06-0.39-0.16-0.54c-0.11-0.15-0.25-0.29-0.42-0.4c-0.17-0.11-0.36-0.22-0.58-0.3
					c-0.22-0.09-0.44-0.18-0.66-0.26c-0.29-0.1-0.57-0.21-0.85-0.34c-0.29-0.13-0.54-0.28-0.76-0.46s-0.41-0.39-0.55-0.63
					c-0.14-0.24-0.21-0.53-0.21-0.87c0-0.32,0.06-0.62,0.19-0.9s0.31-0.52,0.54-0.72c0.24-0.2,0.52-0.36,0.86-0.48
					s0.72-0.17,1.15-0.17c0.5,0,0.97,0.09,1.39,0.26s0.79,0.39,1.09,0.64l-0.64,0.85c-0.27-0.21-0.56-0.38-0.85-0.51
					c-0.3-0.13-0.62-0.2-0.97-0.2c-0.5,0-0.87,0.12-1.11,0.35c-0.24,0.23-0.35,0.5-0.35,0.8c0,0.19,0.05,0.35,0.15,0.48
					c0.1,0.14,0.23,0.26,0.39,0.36c0.16,0.1,0.35,0.2,0.57,0.28c0.21,0.08,0.44,0.17,0.67,0.25c0.28,0.11,0.57,0.22,0.86,0.34
					c0.29,0.12,0.55,0.27,0.78,0.45c0.23,0.18,0.42,0.4,0.57,0.67c0.15,0.26,0.22,0.58,0.22,0.95c0,0.33-0.06,0.63-0.19,0.92
					c-0.13,0.28-0.31,0.54-0.56,0.76c-0.25,0.22-0.55,0.39-0.92,0.52c-0.37,0.13-0.79,0.19-1.26,0.19c-0.57,0-1.11-0.1-1.63-0.31
					c-0.52-0.21-0.96-0.47-1.35-0.79L142.2,221.5z"/>
				<path class="st3" d="M149.94,216.42h-1.18v-1.02l1.25-0.08l0.16-2.23h1.13v2.23h2.15v1.1h-2.15v4.43c0,0.49,0.09,0.87,0.27,1.14
					c0.18,0.27,0.5,0.4,0.96,0.4c0.14,0,0.3-0.02,0.46-0.07c0.16-0.04,0.31-0.09,0.44-0.15l0.26,1.02
					c-0.22,0.08-0.46,0.15-0.71,0.21c-0.26,0.06-0.51,0.09-0.76,0.09c-0.43,0-0.79-0.07-1.08-0.2c-0.29-0.13-0.53-0.31-0.71-0.54
					c-0.18-0.23-0.31-0.51-0.39-0.84c-0.08-0.33-0.12-0.69-0.12-1.08V216.42z"/>
				<path class="st3" d="M155.67,215.32h1.12l0.12,1.44h0.05c0.27-0.5,0.6-0.9,0.99-1.2c0.39-0.3,0.81-0.44,1.27-0.44
					c0.32,0,0.6,0.06,0.85,0.16l-0.26,1.18c-0.13-0.04-0.25-0.08-0.36-0.1c-0.11-0.02-0.25-0.03-0.41-0.03
					c-0.34,0-0.69,0.14-1.06,0.41c-0.37,0.27-0.69,0.75-0.96,1.43v5.12h-1.35V215.32z"/>
				<path class="st3" d="M160.97,221.23c0-0.88,0.39-1.55,1.17-2.01c0.78-0.47,2.03-0.79,3.74-0.98c0-0.25-0.03-0.5-0.07-0.74
					c-0.05-0.24-0.14-0.45-0.26-0.64c-0.13-0.19-0.29-0.34-0.5-0.45c-0.21-0.12-0.48-0.17-0.8-0.17c-0.47,0-0.91,0.09-1.31,0.26
					c-0.4,0.18-0.76,0.37-1.08,0.59l-0.54-0.94c0.37-0.24,0.83-0.47,1.36-0.7c0.54-0.22,1.13-0.34,1.77-0.34
					c0.97,0,1.68,0.3,2.12,0.9c0.44,0.6,0.66,1.39,0.66,2.39v4.89h-1.12l-0.12-0.95h-0.03c-0.38,0.32-0.8,0.59-1.24,0.81
					c-0.44,0.22-0.91,0.34-1.4,0.34c-0.68,0-1.24-0.2-1.68-0.59C161.19,222.51,160.97,221.96,160.97,221.23z M162.3,221.13
					c0,0.46,0.13,0.79,0.4,0.99c0.27,0.2,0.6,0.3,0.99,0.3c0.38,0,0.75-0.09,1.09-0.27c0.35-0.18,0.71-0.45,1.09-0.8v-2.22
					c-0.67,0.09-1.23,0.19-1.69,0.31c-0.46,0.12-0.83,0.26-1.11,0.43c-0.28,0.16-0.48,0.35-0.6,0.57
					C162.36,220.65,162.3,220.88,162.3,221.13z"/>
				<path class="st3" d="M170.41,216.42h-1.18v-1.02l1.25-0.08l0.16-2.23h1.13v2.23h2.15v1.1h-2.15v4.43c0,0.49,0.09,0.87,0.27,1.14
					c0.18,0.27,0.5,0.4,0.96,0.4c0.14,0,0.3-0.02,0.46-0.07c0.16-0.04,0.31-0.09,0.44-0.15l0.26,1.02
					c-0.22,0.08-0.46,0.15-0.71,0.21c-0.26,0.06-0.51,0.09-0.76,0.09c-0.43,0-0.79-0.07-1.08-0.2c-0.29-0.13-0.53-0.31-0.71-0.54
					c-0.18-0.23-0.31-0.51-0.39-0.84c-0.08-0.33-0.12-0.69-0.12-1.08V216.42z"/>
				<path class="st3" d="M176.84,213.68c-0.26,0-0.48-0.08-0.66-0.25c-0.18-0.16-0.27-0.37-0.27-0.62c0-0.26,0.09-0.47,0.27-0.63
					c0.18-0.16,0.4-0.24,0.66-0.24c0.26,0,0.48,0.08,0.67,0.24c0.18,0.16,0.27,0.37,0.27,0.63c0,0.25-0.09,0.46-0.27,0.62
					C177.32,213.6,177.1,213.68,176.84,213.68z M176.15,215.32h1.35v7.98h-1.35V215.32z"/>
				<path class="st3" d="M180.01,219.33c0-0.67,0.1-1.26,0.3-1.78s0.47-0.96,0.81-1.32c0.34-0.36,0.73-0.63,1.17-0.82
					c0.44-0.19,0.91-0.28,1.4-0.28c0.49,0,0.96,0.09,1.4,0.28c0.44,0.19,0.83,0.46,1.17,0.82s0.61,0.8,0.81,1.32
					c0.2,0.52,0.3,1.11,0.3,1.78c0,0.66-0.1,1.25-0.3,1.77c-0.2,0.52-0.47,0.96-0.81,1.31s-0.73,0.63-1.17,0.81
					c-0.44,0.19-0.91,0.28-1.4,0.28c-0.49,0-0.96-0.09-1.4-0.28c-0.44-0.19-0.84-0.46-1.17-0.81c-0.34-0.36-0.61-0.79-0.81-1.31
					C180.11,220.57,180.01,219.99,180.01,219.33z M181.4,219.33c0,0.46,0.06,0.88,0.16,1.25c0.11,0.37,0.27,0.69,0.47,0.96
					c0.2,0.27,0.45,0.48,0.73,0.62c0.28,0.15,0.6,0.22,0.94,0.22s0.65-0.07,0.94-0.22c0.28-0.15,0.53-0.36,0.73-0.62
					c0.2-0.27,0.36-0.59,0.47-0.96c0.11-0.37,0.16-0.79,0.16-1.25s-0.05-0.88-0.16-1.26c-0.11-0.38-0.27-0.7-0.47-0.98
					c-0.2-0.27-0.45-0.48-0.73-0.63c-0.28-0.15-0.6-0.22-0.94-0.22s-0.65,0.07-0.94,0.22c-0.29,0.15-0.53,0.36-0.73,0.63
					c-0.2,0.27-0.36,0.6-0.47,0.98C181.46,218.45,181.4,218.87,181.4,219.33z"/>
				<path class="st3" d="M189.58,215.32h1.12l0.12,1.15h0.05c0.38-0.38,0.79-0.7,1.21-0.96c0.42-0.26,0.91-0.39,1.47-0.39
					c0.84,0,1.46,0.26,1.85,0.79c0.39,0.53,0.58,1.3,0.58,2.33v5.06h-1.35v-4.88c0-0.76-0.12-1.3-0.36-1.63s-0.62-0.5-1.15-0.5
					c-0.42,0-0.78,0.1-1.1,0.31c-0.32,0.21-0.68,0.52-1.08,0.92v5.78h-1.35V215.32z"/>
			</g>
		</g>
	</g>
	<g>
		<path class="st4" d="M13.16,287.94l2.62-3.23c1.47,1.28,3.49,1.98,5.25,1.98c1.89,0,2.75-0.7,2.75-1.82c0-1.22-1.12-1.6-2.94-2.34
			l-2.66-1.15c-2.21-0.86-4.22-2.69-4.22-5.7c0-3.49,3.14-6.3,7.55-6.3c2.5,0,4.96,0.93,6.75,2.59l-2.59,3.23
			c-1.41-0.99-2.85-1.54-4.16-1.54c-1.54,0-2.53,0.61-2.53,1.7c0,1.22,1.31,1.63,3.17,2.37l2.59,1.06c2.59,1.02,4.13,2.75,4.13,5.66
			c0,3.49-2.91,6.53-7.94,6.53C18.12,290.98,15.33,290.02,13.16,287.94z"/>
		<path class="st4" d="M31.69,269.77h13.18v4.16h-8.19v3.9h7.01v4.16h-7.01v4.45h8.51v4.16h-13.5V269.77z"/>
		<path class="st4" d="M48.65,269.77h7.65c4.42,0,8.13,1.54,8.13,6.56c0,3.04-1.44,4.99-3.58,6.01l4.64,8.26h-5.57l-3.84-7.33h-2.43
			v7.33h-4.99V269.77z M55.91,279.34c2.37,0,3.65-1.02,3.65-3.01c0-1.98-1.28-2.62-3.65-2.62h-2.27v5.63H55.91z"/>
		<path class="st4" d="M64.65,269.77h5.25l2.27,9.5c0.58,2.27,1.02,4.38,1.63,6.66h0.13c0.61-2.27,1.06-4.38,1.63-6.66l2.5-9.5h5.06
			l-6.37,20.83h-5.98L64.65,269.77z"/>
		<path class="st4" d="M84.61,269.77h4.99v20.83h-4.99V269.77z"/>
		<path class="st4" d="M92.81,280.33c0-6.94,4.67-10.94,9.92-10.94c2.72,0,4.9,1.22,6.34,2.72l-2.62,3.01
			c-1.02-0.96-2.11-1.44-3.58-1.44c-2.75,0-4.96,2.43-4.96,6.46c0,4.16,1.95,6.56,4.86,6.56c1.7,0,3.01-0.67,4-1.73l2.59,2.94
			c-1.82,2.08-4.13,3.07-6.75,3.07C97.28,290.98,92.81,287.37,92.81,280.33z"/>
		<path class="st4" d="M111.78,269.77h13.18v4.16h-8.19v3.9h7.01v4.16h-7.01v4.45h8.51v4.16h-13.5V269.77z"/>
		<path class="st4" d="M127.75,280.74h7.9v3.49h-7.9V280.74z"/>
		<path class="st4" d="M138.79,269.77h5.98c6.37,0,10.56,3.1,10.56,10.33c0,7.2-4.19,10.5-10.27,10.5h-6.27V269.77z M144.48,286.6
			c3.36,0,5.76-1.57,5.76-6.5c0-4.96-2.4-6.34-5.76-6.34h-0.7v12.83H144.48z"/>
		<path class="st4" d="M158.53,269.77h4.99v20.83h-4.99V269.77z"/>
		<path class="st4" d="M166.37,287.94l2.62-3.23c1.47,1.28,3.49,1.98,5.25,1.98c1.89,0,2.75-0.7,2.75-1.82
			c0-1.22-1.12-1.6-2.94-2.34l-2.66-1.15c-2.21-0.86-4.22-2.69-4.22-5.7c0-3.49,3.14-6.3,7.55-6.3c2.5,0,4.96,0.93,6.75,2.59
			l-2.59,3.23c-1.41-0.99-2.85-1.54-4.16-1.54c-1.54,0-2.53,0.61-2.53,1.7c0,1.22,1.31,1.63,3.17,2.37l2.59,1.06
			c2.59,1.02,4.13,2.75,4.13,5.66c0,3.49-2.91,6.53-7.94,6.53C171.33,290.98,168.55,290.02,166.37,287.94z"/>
		<path class="st4" d="M188.74,269.77h5.95l6.5,20.83h-5.25l-1.22-4.8h-6.18l-1.22,4.8h-5.09L188.74,269.77z M189.51,281.96h4.26
			l-0.45-1.79c-0.54-2.05-1.09-4.51-1.63-6.69h-0.13c-0.51,2.18-1.06,4.64-1.6,6.69L189.51,281.96z"/>
		<path class="st4" d="M202.69,269.77h7.26c4.32,0,7.74,1.15,7.74,5.18c0,1.82-1.02,3.84-2.72,4.48v0.13
			c2.11,0.58,3.74,2.11,3.74,4.9c0,4.26-3.65,6.14-8.16,6.14h-7.87V269.77z M209.76,278.06c2.14,0,3.07-0.93,3.07-2.37
			c0-1.5-0.99-2.11-3.04-2.11h-2.11v4.48H209.76z M210.18,286.79c2.43,0,3.68-0.9,3.68-2.66s-1.22-2.43-3.68-2.43h-2.5v5.09H210.18z
			"/>
		<path class="st4" d="M221.48,269.77h4.99v16.67h8.1v4.16h-13.09V269.77z"/>
		<path class="st4" d="M237.54,269.77h13.18v4.16h-8.19v3.9h7.01v4.16h-7.01v4.45h8.51v4.16h-13.5V269.77z"/>
		<path class="st4" d="M254.5,269.77h5.98c6.37,0,10.56,3.1,10.56,10.33c0,7.2-4.19,10.5-10.27,10.5h-6.27V269.77z M260.2,286.6
			c3.36,0,5.76-1.57,5.76-6.5c0-4.96-2.4-6.34-5.76-6.34h-0.7v12.83H260.2z"/>
		<path class="st4" d="M24.53,298.27h5.25l2.27,9.5c0.58,2.27,1.02,4.38,1.63,6.66h0.13c0.61-2.27,1.06-4.38,1.63-6.66l2.5-9.5H43
			l-6.37,20.83h-5.98L24.53,298.27z"/>
		<path class="st4" d="M44.5,298.27h13.18v4.16h-8.19v3.9h7.01v4.16h-7.01v4.45H58v4.16H44.5V298.27z"/>
		<path class="st4" d="M65.53,302.43h-5.66v-4.16h16.29v4.16h-5.66v16.67h-4.96V302.43z"/>
		<path class="st4" d="M78.71,298.27h13.18v4.16H83.7v3.9h7.01v4.16H83.7v4.45h8.51v4.16h-13.5V298.27z"/>
		<path class="st4" d="M95.67,298.27h7.65c4.42,0,8.13,1.54,8.13,6.56c0,3.04-1.44,4.99-3.58,6.01l4.64,8.26h-5.57l-3.84-7.33h-2.43
			v7.33h-4.99V298.27z M102.93,307.84c2.37,0,3.65-1.02,3.65-3.01c0-1.98-1.28-2.62-3.65-2.62h-2.27v5.63H102.93z"/>
		<path class="st4" d="M118.36,298.27h5.95l6.5,20.83h-5.25l-1.22-4.8h-6.18l-1.22,4.8h-5.09L118.36,298.27z M119.13,310.46h4.26
			l-0.45-1.79c-0.54-2.05-1.09-4.51-1.63-6.69h-0.13c-0.51,2.18-1.06,4.64-1.6,6.69L119.13,310.46z"/>
		<path class="st4" d="M132.31,298.27h5.15l5.12,9.98c0.74,1.41,1.41,3.07,2.05,4.7h0.13c-0.26-2.24-0.64-5.22-0.64-7.68v-7.01h4.7
			v20.83h-5.12l-5.15-9.98c-0.7-1.41-1.38-3.07-2.02-4.7h-0.13c0.26,2.3,0.64,5.18,0.64,7.68v7.01h-4.74V298.27z"/>
		<path class="st4" d="M152.02,309.24h7.9v3.49h-7.9V309.24z"/>
		<path class="st4" d="M162.1,308.6c0-6.85,3.87-10.72,9.54-10.72c5.66,0,9.54,3.9,9.54,10.72s-3.87,10.88-9.54,10.88
			C165.97,319.48,162.1,315.42,162.1,308.6z M176.08,308.6c0-4.06-1.7-6.43-4.45-6.43c-2.72,0-4.45,2.37-4.45,6.43
			c0,4.03,1.73,6.59,4.45,6.59C174.39,315.2,176.08,312.64,176.08,308.6z"/>
		<path class="st4" d="M182.42,298.27h5.06l1.31,9.54c0.29,2.21,0.54,4.38,0.77,6.66h0.13c0.38-2.27,0.8-4.48,1.22-6.66l2.18-9.54
			h4.29l2.11,9.54c0.42,2.11,0.83,4.35,1.22,6.66h0.13c0.22-2.3,0.51-4.51,0.77-6.66l1.41-9.54h4.74l-3.68,20.83h-6.3l-1.89-9.12
			c-0.35-1.63-0.58-3.26-0.77-4.93h-0.13c-0.22,1.66-0.45,3.3-0.8,4.93l-1.79,9.12h-6.21L182.42,298.27z"/>
		<path class="st4" d="M209.88,298.27h5.15l5.12,9.98c0.74,1.41,1.41,3.07,2.05,4.7h0.13c-0.26-2.24-0.64-5.22-0.64-7.68v-7.01h4.7
			v20.83h-5.12l-5.15-9.98c-0.7-1.41-1.38-3.07-2.02-4.7h-0.13c0.26,2.3,0.64,5.18,0.64,7.68v7.01h-4.74V298.27z"/>
		<path class="st4" d="M230.58,298.27h13.18v4.16h-8.19v3.9h7.01v4.16h-7.01v4.45h8.51v4.16h-13.5V298.27z"/>
		<path class="st4" d="M247.54,298.27h5.98c6.37,0,10.56,3.1,10.56,10.33c0,7.2-4.19,10.5-10.27,10.5h-6.27V298.27z M253.24,315.1
			c3.36,0,5.76-1.57,5.76-6.5c0-4.96-2.4-6.34-5.76-6.34h-0.7v12.83H253.24z"/>
		<path class="st4" d="M75.27,337.33c0-6.94,4.67-10.94,9.92-10.94c2.72,0,4.9,1.22,6.34,2.72l-2.62,3.01
			c-1.02-0.96-2.11-1.44-3.58-1.44c-2.75,0-4.96,2.43-4.96,6.46c0,4.16,1.95,6.56,4.86,6.56c1.7,0,3.01-0.67,4-1.73l2.59,2.94
			c-1.82,2.08-4.13,3.07-6.75,3.07C79.75,347.98,75.27,344.37,75.27,337.33z"/>
		<path class="st4" d="M94.25,326.77h13.18v4.16h-8.19v3.9h7.01v4.16h-7.01v4.45h8.51v4.16h-13.5V326.77z"/>
		<path class="st4" d="M111.21,326.77h7.65c4.42,0,8.13,1.54,8.13,6.56c0,3.04-1.44,4.99-3.58,6.01l4.64,8.26h-5.57l-3.84-7.33
			h-2.43v7.33h-4.99V326.77z M118.47,336.34c2.37,0,3.65-1.02,3.65-3.01c0-1.98-1.28-2.62-3.65-2.62h-2.27v5.63H118.47z"/>
		<path class="st4" d="M133.8,330.93h-5.66v-4.16h16.29v4.16h-5.66v16.67h-4.96V330.93z"/>
		<path class="st4" d="M146.98,326.77h4.99v20.83h-4.99V326.77z"/>
		<path class="st4" d="M156.13,326.77h13.31v4.16h-8.32v4.54h7.1v4.16h-7.1v7.97h-4.99V326.77z"/>
		<path class="st4" d="M172.39,326.77h4.99v20.83h-4.99V326.77z"/>
		<path class="st4" d="M181.54,326.77h13.18v4.16h-8.19v3.9h7.01v4.16h-7.01v4.45h8.51v4.16h-13.5V326.77z"/>
		<path class="st4" d="M198.5,326.77h5.98c6.37,0,10.56,3.1,10.56,10.33c0,7.2-4.19,10.5-10.27,10.5h-6.27V326.77z M204.2,343.6
			c3.36,0,5.76-1.57,5.76-6.5c0-4.96-2.4-6.34-5.76-6.34h-0.7v12.83H204.2z"/>
	</g>
</g>
</svg>
