<svg width="120" height="151" viewBox="0 0 120 151" fill="none" xmlns="http://www.w3.org/2000/svg">
<g clip-path="url(#clip0_2389_11837)">
<rect width="119" height="150" transform="translate(0.407715 0.5)" fill="white"/>
<rect width="120" height="150" transform="translate(0.407715 0.5)" fill="#003363"/>
<path d="M19.2756 117.791V116.101H26.7961V117.791H24.0206V125.5H22.1161V117.791H19.2756ZM31.3108 125.63C30.4224 125.63 29.6533 125.437 29.0033 125.051C28.3576 124.661 27.8571 124.109 27.5018 123.394C27.1508 122.675 26.9753 121.817 26.9753 120.82C26.9753 119.819 27.1529 118.957 27.5083 118.233C27.8679 117.509 28.3728 116.952 29.0228 116.562C29.6728 116.168 30.4354 115.971 31.3108 115.971C32.1818 115.971 32.9401 116.166 33.5858 116.556C34.2314 116.946 34.7298 117.503 35.0808 118.226C35.4361 118.95 35.6138 119.815 35.6138 120.82C35.6138 121.812 35.4383 122.668 35.0873 123.387C34.7406 124.107 34.2444 124.661 33.5988 125.051C32.9531 125.437 32.1904 125.63 31.3108 125.63ZM31.3108 124.07C31.7701 124.07 32.1666 123.962 32.5003 123.745C32.8383 123.524 33.0983 123.177 33.2803 122.705C33.4623 122.228 33.5533 121.609 33.5533 120.846C33.5533 120.062 33.4601 119.427 33.2738 118.941C33.0918 118.456 32.8318 118.101 32.4938 117.875C32.1601 117.646 31.7658 117.531 31.3108 117.531C30.8558 117.531 30.4593 117.646 30.1213 117.875C29.7833 118.101 29.5211 118.458 29.3348 118.948C29.1484 119.433 29.0553 120.066 29.0553 120.846C29.0553 121.613 29.1484 122.233 29.3348 122.705C29.5211 123.177 29.7833 123.524 30.1213 123.745C30.4593 123.962 30.8558 124.07 31.3108 124.07ZM35.8887 117.791V116.101H43.4092V117.791H40.6337V125.5H38.7292V117.791H35.8887ZM42.2554 125.5L45.6224 116.101H47.6244L50.985 125.5H49.0934L48.3264 123.322H44.9464L44.1599 125.5H42.2554ZM45.3689 121.665H47.8714L46.6299 117.934L45.3689 121.665ZM51.7463 116.101H53.6573V123.894H57.7393V125.5H51.7463V116.101ZM64.2336 125.63C63.7699 125.63 63.3149 125.572 62.8686 125.454C62.4222 125.337 62.0149 125.162 61.6466 124.928C61.2782 124.694 60.9727 124.401 60.7301 124.05C60.4917 123.699 60.3487 123.288 60.3011 122.815H62.2446C62.3096 123.101 62.4331 123.342 62.6151 123.537C62.7971 123.732 63.0267 123.881 63.3041 123.985C63.5814 124.089 63.8891 124.141 64.2271 124.141C64.5737 124.141 64.8901 124.098 65.1761 124.011C65.4621 123.925 65.6917 123.795 65.8651 123.621C66.0384 123.444 66.1251 123.223 66.1251 122.958C66.1251 122.72 66.0536 122.525 65.9106 122.373C65.7719 122.222 65.5834 122.098 65.3451 122.003C65.1067 121.908 64.8359 121.83 64.5326 121.769L62.9076 121.438C62.1969 121.303 61.6336 121.021 61.2176 120.592C60.8016 120.159 60.5871 119.583 60.5741 118.863C60.5697 118.274 60.7257 117.765 61.0421 117.336C61.3627 116.903 61.7961 116.569 62.3421 116.335C62.8924 116.101 63.5077 115.984 64.1881 115.984C64.9984 115.984 65.6787 116.112 66.2291 116.367C66.7837 116.619 67.2041 116.961 67.4901 117.394C67.7804 117.823 67.9299 118.302 67.9386 118.831H66.0341C65.9994 118.502 65.8997 118.239 65.7351 118.044C65.5704 117.849 65.3581 117.709 65.0981 117.622C64.8424 117.535 64.5499 117.492 64.2206 117.492C63.9692 117.492 63.7396 117.52 63.5316 117.576C63.3279 117.633 63.1546 117.713 63.0116 117.817C62.8686 117.917 62.7581 118.036 62.6801 118.174C62.6021 118.313 62.5631 118.469 62.5631 118.642C62.5631 118.915 62.6541 119.136 62.8361 119.305C63.0181 119.474 63.3582 119.613 63.8566 119.721L65.4686 120.053C66.0449 120.166 66.5021 120.332 66.8401 120.553C67.1824 120.774 67.4381 121.024 67.6071 121.301C67.7804 121.578 67.8931 121.862 67.9451 122.152C68.0014 122.438 68.0296 122.703 68.0296 122.945C68.0296 123.452 67.8692 123.91 67.5486 124.317C67.2322 124.72 66.7902 125.041 66.2226 125.279C65.6549 125.513 64.9919 125.63 64.2336 125.63ZM69.0551 125.5V116.101H71.8111L73.9626 122.802L76.1336 116.101H78.8831V125.5H76.9656V118.311L74.7036 125.5H73.2151L70.9661 118.343V125.5H69.0551ZM79.6431 125.5L83.0101 116.101H85.0121L88.3726 125.5H86.4811L85.7141 123.322H82.3341L81.5476 125.5H79.6431ZM82.7566 121.665H85.2591L84.0176 117.934L82.7566 121.665ZM89.134 116.101H91.045V123.894H95.127V125.5H89.134V116.101ZM95.9869 116.101H97.8979V123.894H101.98V125.5H95.9869V116.101ZM29.7567 138.5V129.101H33.1627C34.3934 129.101 35.3055 129.313 35.8992 129.738C36.4972 130.158 36.7962 130.767 36.7962 131.564C36.7962 132.032 36.677 132.44 36.4387 132.786C36.2004 133.129 35.7757 133.428 35.1647 133.683C35.559 133.783 35.8775 133.917 36.1202 134.086C36.3629 134.255 36.5492 134.444 36.6792 134.652C36.8092 134.856 36.898 135.07 36.9457 135.295C36.9934 135.516 37.0172 135.735 37.0172 135.952C37.0172 136.819 36.7225 137.46 36.1332 137.876C35.5439 138.292 34.6057 138.5 33.3187 138.5H29.7567ZM31.6482 137.031H33.3577C33.9297 137.031 34.3609 136.916 34.6512 136.686C34.9459 136.457 35.0932 136.149 35.0932 135.763C35.0932 135.486 35.0217 135.254 34.8787 135.068C34.7357 134.877 34.5407 134.734 34.2937 134.639C34.051 134.544 33.7737 134.496 33.4617 134.496H31.6482V137.031ZM31.6482 132.988H33.4617C33.6567 132.988 33.843 132.966 34.0207 132.923C34.2027 132.875 34.363 132.804 34.5017 132.708C34.6447 132.613 34.7574 132.492 34.8397 132.344C34.922 132.193 34.9632 132.015 34.9632 131.811C34.9632 131.404 34.8094 131.096 34.5017 130.888C34.1984 130.676 33.8084 130.57 33.3317 130.57H31.6482V132.988ZM45.5266 134.919C45.5266 135.677 45.4031 136.335 45.1561 136.894C44.9091 137.449 44.5083 137.878 43.9536 138.181C43.4033 138.481 42.6731 138.63 41.7631 138.63C40.8488 138.63 40.1165 138.478 39.5661 138.175C39.0158 137.867 38.6171 137.432 38.3701 136.868C38.1275 136.305 38.0061 135.633 38.0061 134.853V129.101H39.9366V134.996C39.9366 135.698 40.1056 136.212 40.4436 136.537C40.7816 136.858 41.2215 137.018 41.7631 137.018C42.1228 137.018 42.4413 136.949 42.7186 136.81C42.996 136.667 43.2126 136.448 43.3686 136.153C43.529 135.854 43.6091 135.469 43.6091 134.996V129.101H45.5266V134.919ZM50.2929 138.63C49.8292 138.63 49.3742 138.572 48.9279 138.454C48.4815 138.337 48.0742 138.162 47.7059 137.928C47.3375 137.694 47.032 137.401 46.7894 137.05C46.551 136.699 46.408 136.288 46.3604 135.815H48.3039C48.3689 136.101 48.4924 136.342 48.6744 136.537C48.8564 136.732 49.086 136.881 49.3634 136.985C49.6407 137.089 49.9484 137.141 50.2864 137.141C50.633 137.141 50.9494 137.098 51.2354 137.011C51.5214 136.925 51.751 136.795 51.9244 136.621C52.0977 136.444 52.1844 136.223 52.1844 135.958C52.1844 135.72 52.1129 135.525 51.9699 135.373C51.8312 135.222 51.6427 135.098 51.4044 135.003C51.166 134.908 50.8952 134.83 50.5919 134.769L48.9669 134.438C48.2562 134.303 47.6929 134.021 47.2769 133.592C46.8609 133.159 46.6464 132.583 46.6334 131.863C46.629 131.274 46.785 130.765 47.1014 130.336C47.422 129.903 47.8554 129.569 48.4014 129.335C48.9517 129.101 49.567 128.984 50.2474 128.984C51.0577 128.984 51.738 129.112 52.2884 129.367C52.843 129.619 53.2634 129.961 53.5494 130.394C53.8397 130.823 53.9892 131.302 53.9979 131.831H52.0934C52.0587 131.502 51.959 131.239 51.7944 131.044C51.6297 130.849 51.4174 130.709 51.1574 130.622C50.9017 130.535 50.6092 130.492 50.2799 130.492C50.0285 130.492 49.7989 130.52 49.5909 130.576C49.3872 130.633 49.2139 130.713 49.0709 130.817C48.9279 130.917 48.8174 131.036 48.7394 131.174C48.6614 131.313 48.6224 131.469 48.6224 131.642C48.6224 131.915 48.7134 132.136 48.8954 132.305C49.0774 132.474 49.4175 132.613 49.9159 132.721L51.5279 133.053C52.1042 133.166 52.5614 133.332 52.8994 133.553C53.2417 133.774 53.4974 134.024 53.6664 134.301C53.8397 134.578 53.9524 134.862 54.0044 135.152C54.0607 135.438 54.0889 135.703 54.0889 135.945C54.0889 136.452 53.9285 136.91 53.6079 137.317C53.2915 137.72 52.8495 138.041 52.2819 138.279C51.7142 138.513 51.0512 138.63 50.2929 138.63ZM55.1143 129.101H57.0058V138.5H55.1143V129.101ZM64.6319 129.101H66.5299V138.5H64.8204L60.3549 132.032V138.5H58.4634V129.101H60.3419L64.6319 135.321V129.101ZM67.9823 138.5V129.101H74.4368L74.4303 130.7H69.8868V132.981H73.8323V134.548H69.8738V136.881L74.5018 136.888V138.5H67.9823ZM79.2026 138.63C78.739 138.63 78.284 138.572 77.8376 138.454C77.3913 138.337 76.984 138.162 76.6156 137.928C76.2473 137.694 75.9418 137.401 75.6991 137.05C75.4608 136.699 75.3178 136.288 75.2701 135.815H77.2136C77.2786 136.101 77.4021 136.342 77.5841 136.537C77.7661 136.732 77.9958 136.881 78.2731 136.985C78.5505 137.089 78.8581 137.141 79.1961 137.141C79.5428 137.141 79.8591 137.098 80.1451 137.011C80.4311 136.925 80.6608 136.795 80.8341 136.621C81.0075 136.444 81.0941 136.223 81.0941 135.958C81.0941 135.72 81.0226 135.525 80.8796 135.373C80.741 135.222 80.5525 135.098 80.3141 135.003C80.0758 134.908 79.805 134.83 79.5016 134.769L77.8766 134.438C77.166 134.303 76.6026 134.021 76.1866 133.592C75.7706 133.159 75.5561 132.583 75.5431 131.863C75.5388 131.274 75.6948 130.765 76.0111 130.336C76.3318 129.903 76.7651 129.569 77.3111 129.335C77.8615 129.101 78.4768 128.984 79.1571 128.984C79.9675 128.984 80.6478 129.112 81.1981 129.367C81.7528 129.619 82.1731 129.961 82.4591 130.394C82.7495 130.823 82.899 131.302 82.9076 131.831H81.0031C80.9685 131.502 80.8688 131.239 80.7041 131.044C80.5395 130.849 80.3271 130.709 80.0671 130.622C79.8115 130.535 79.519 130.492 79.1896 130.492C78.9383 130.492 78.7086 130.52 78.5006 130.576C78.297 130.633 78.1236 130.713 77.9806 130.817C77.8376 130.917 77.7271 131.036 77.6491 131.174C77.5711 131.313 77.5321 131.469 77.5321 131.642C77.5321 131.915 77.6231 132.136 77.8051 132.305C77.9871 132.474 78.3273 132.613 78.8256 132.721L80.4376 133.053C81.014 133.166 81.4711 133.332 81.8091 133.553C82.1515 133.774 82.4071 134.024 82.5761 134.301C82.7495 134.578 82.8621 134.862 82.9141 135.152C82.9705 135.438 82.9986 135.703 82.9986 135.945C82.9986 136.452 82.8383 136.91 82.5176 137.317C82.2013 137.72 81.7593 138.041 81.1916 138.279C80.624 138.513 79.961 138.63 79.2026 138.63ZM87.6805 138.63C87.2169 138.63 86.7619 138.572 86.3155 138.454C85.8692 138.337 85.4619 138.162 85.0935 137.928C84.7252 137.694 84.4197 137.401 84.177 137.05C83.9387 136.699 83.7957 136.288 83.748 135.815H85.6915C85.7565 136.101 85.88 136.342 86.062 136.537C86.244 136.732 86.4737 136.881 86.751 136.985C87.0284 137.089 87.336 137.141 87.674 137.141C88.0207 137.141 88.337 137.098 88.623 137.011C88.909 136.925 89.1387 136.795 89.312 136.621C89.4854 136.444 89.572 136.223 89.572 135.958C89.572 135.72 89.5005 135.525 89.3575 135.373C89.2189 135.222 89.0304 135.098 88.792 135.003C88.5537 134.908 88.2829 134.83 87.9795 134.769L86.3545 134.438C85.6439 134.303 85.0805 134.021 84.6645 133.592C84.2485 133.159 84.034 132.583 84.021 131.863C84.0167 131.274 84.1727 130.765 84.489 130.336C84.8097 129.903 85.243 129.569 85.789 129.335C86.3394 129.101 86.9547 128.984 87.635 128.984C88.4454 128.984 89.1257 129.112 89.676 129.367C90.2307 129.619 90.651 129.961 90.937 130.394C91.2274 130.823 91.3769 131.302 91.3855 131.831H89.481C89.4464 131.502 89.3467 131.239 89.182 131.044C89.0174 130.849 88.805 130.709 88.545 130.622C88.2894 130.535 87.9969 130.492 87.6675 130.492C87.4162 130.492 87.1865 130.52 86.9785 130.576C86.7749 130.633 86.6015 130.713 86.4585 130.817C86.3155 130.917 86.205 131.036 86.127 131.174C86.049 131.313 86.01 131.469 86.01 131.642C86.01 131.915 86.101 132.136 86.283 132.305C86.465 132.474 86.8052 132.613 87.3035 132.721L88.9155 133.053C89.4919 133.166 89.949 133.332 90.287 133.553C90.6294 133.774 90.885 134.024 91.054 134.301C91.2274 134.578 91.34 134.862 91.392 135.152C91.4484 135.438 91.4765 135.703 91.4765 135.945C91.4765 136.452 91.3162 136.91 90.9955 137.317C90.6792 137.72 90.2372 138.041 89.6695 138.279C89.1019 138.513 88.4389 138.63 87.6805 138.63Z" fill="white"/>
<mask id="path-2-inside-1_2389_11837" fill="white">
<path d="M21.4077 12.5H97.4077V75.5H21.4077V12.5Z"/>
</mask>
<path d="M21.4077 15.5H97.4077V9.5H21.4077V15.5ZM97.4077 72.5H21.4077V78.5H97.4077V72.5Z" fill="#F0F0F0" mask="url(#path-2-inside-1_2389_11837)"/>
<path d="M45.9687 58.9C44.542 58.9 43.142 58.72 41.7687 58.36C40.3953 58 39.142 57.46 38.0087 56.74C36.8753 56.02 35.9353 55.12 35.1887 54.04C34.4553 52.96 34.0153 51.6933 33.8687 50.24H39.8487C40.0487 51.12 40.4287 51.86 40.9887 52.46C41.5487 53.06 42.2553 53.52 43.1087 53.84C43.962 54.16 44.9087 54.32 45.9487 54.32C47.0153 54.32 47.9887 54.1867 48.8687 53.92C49.7487 53.6533 50.4553 53.2533 50.9887 52.72C51.522 52.1733 51.7887 51.4933 51.7887 50.68C51.7887 49.9467 51.5687 49.3467 51.1287 48.88C50.702 48.4133 50.122 48.0333 49.3887 47.74C48.6553 47.4467 47.822 47.2067 46.8887 47.02L41.8887 46C39.702 45.5867 37.9687 44.72 36.6887 43.4C35.4087 42.0667 34.7487 40.2933 34.7087 38.08C34.6953 36.2667 35.1753 34.7 36.1487 33.38C37.1353 32.0467 38.4687 31.02 40.1487 30.3C41.842 29.58 43.7353 29.22 45.8287 29.22C48.322 29.22 50.4153 29.6133 52.1087 30.4C53.8153 31.1733 55.1087 32.2267 55.9887 33.56C56.882 34.88 57.342 36.3533 57.3687 37.98H51.5087C51.402 36.9667 51.0953 36.16 50.5887 35.56C50.082 34.96 49.4287 34.5267 48.6287 34.26C47.842 33.9933 46.942 33.86 45.9287 33.86C45.1553 33.86 44.4487 33.9467 43.8087 34.12C43.182 34.2933 42.6487 34.54 42.2087 34.86C41.7687 35.1667 41.4287 35.5333 41.1887 35.96C40.9487 36.3867 40.8287 36.8667 40.8287 37.4C40.8287 38.24 41.1087 38.92 41.6687 39.44C42.2287 39.96 43.2753 40.3867 44.8087 40.72L49.7687 41.74C51.542 42.0867 52.9487 42.6 53.9887 43.28C55.042 43.96 55.8287 44.7267 56.3487 45.58C56.882 46.4333 57.2287 47.3067 57.3887 48.2C57.562 49.08 57.6487 49.8933 57.6487 50.64C57.6487 52.2 57.1553 53.6067 56.1687 54.86C55.1953 56.1 53.8353 57.0867 52.0887 57.82C50.342 58.54 48.302 58.9 45.9687 58.9ZM62.804 58.5V29.58H73.284C77.0706 29.58 79.8773 30.2333 81.704 31.54C83.544 32.8333 84.464 34.7067 84.464 37.16C84.464 38.6 84.0973 39.8533 83.364 40.92C82.6306 41.9733 81.324 42.8933 79.444 43.68C80.6573 43.9867 81.6373 44.4 82.384 44.92C83.1306 45.44 83.704 46.02 84.104 46.66C84.504 47.2867 84.7773 47.9467 84.924 48.64C85.0706 49.32 85.144 49.9933 85.144 50.66C85.144 53.3267 84.2373 55.3 82.424 56.58C80.6106 57.86 77.724 58.5 73.764 58.5H62.804ZM68.624 53.98H73.884C75.644 53.98 76.9706 53.6267 77.864 52.92C78.7706 52.2133 79.224 51.2667 79.224 50.08C79.224 49.2267 79.004 48.5133 78.564 47.94C78.124 47.3533 77.524 46.9133 76.764 46.62C76.0173 46.3267 75.164 46.18 74.204 46.18H68.624V53.98ZM68.624 41.54H74.204C74.804 41.54 75.3773 41.4733 75.924 41.34C76.484 41.1933 76.9773 40.9733 77.404 40.68C77.844 40.3867 78.1906 40.0133 78.444 39.56C78.6973 39.0933 78.824 38.5467 78.824 37.92C78.824 36.6667 78.3506 35.72 77.404 35.08C76.4706 34.4267 75.2706 34.1 73.804 34.1H68.624V41.54Z" fill="white"/>
</g>
<defs>
<clipPath id="clip0_2389_11837">
<rect width="119" height="150" fill="white" transform="translate(0.407715 0.5)"/>
</clipPath>
</defs>
</svg>
