<?xml version="1.0" encoding="UTF-8"?><svg id="Layer_1" xmlns="http://www.w3.org/2000/svg" viewBox="0 0 829.47 510.17"><defs><style>.cls-1{letter-spacing:0em;}.cls-2{fill:#1d75bc;}.cls-2,.cls-3,.cls-4{stroke-width:0px;}.cls-5{font-family:PublicSans-Bold, 'Public Sans';font-size:56px;font-weight:700;}.cls-5,.cls-4{fill:#fff;}.cls-3{fill:#231f20;}.cls-6{letter-spacing:0em;}.cls-7{letter-spacing:-.01em;}.cls-8{letter-spacing:0em;}.cls-9{letter-spacing:0em;}</style></defs><rect class="cls-4" x="2.5" y="2.5" width="824.47" height="505.17"/><path class="cls-2" d="M824.47,5v500.17H5V5h819.47M829.47,0H0v510.17h829.47V0h0Z"/><path class="cls-2" d="M301.01,140.92l-10.23,27.61c-19.19,21.32-36.55,44.84-51.75,70.2-.03.03-.06.08-.08.13-5.03,8.42-11.89,16.13-20.67,22.69-2.86,2.1-5.82,3.99-8.86,5.66-18.55,10.23-40.31,12.7-61.15,9.28.02-.05.03-.1.05-.14,12.43,1.51,25.32-.21,36.71-4.93,47.32-18.98,75.26-83.32,46.7-127.49.05-.05.08-.1.13-.14,12.32,17.47,18.65,38.16,17.84,58.17,15.9-22.42,32.92-42.8,51.32-61.04Z"/><polygon class="cls-3" points="341.24 276.3 291.52 276.3 300.11 251.4 332.56 251.4 341.24 276.3"/><polygon class="cls-3" points="387.49 276.3 359.63 276.3 350.96 251.4 316.42 152.31 315.99 152.31 281.8 251.4 273.21 276.3 245.09 276.3 280.33 181.08 289.01 157.66 301.07 125.06 331.52 125.06 334.15 132.17 387.49 276.3"/><path class="cls-3" d="M408.46,235.95c10.32,10.99,26.47,20.64,47.33,20.64s30.06-10.54,30.06-20.41c0-13.46-15.93-17.5-34.1-22.21-24.45-6.06-53.16-13.23-53.16-44.86,0-24.67,21.76-43.74,54.51-43.74,23.33,0,42.17,7.4,56.08,20.86l-15.03,19.51c-11.66-11.66-27.59-17.05-43.29-17.05s-25.35,7.4-25.35,18.62,15.25,15.48,32.97,19.96c24.67,6.28,54.06,13.91,54.06,46.43,0,24.9-17.5,46.21-57.87,46.21-27.59,0-47.55-9.64-60.79-23.78l14.58-20.19Z"/><path class="cls-3" d="M536.76,127.61h26.24v149.61h-26.24V127.61Z"/><path class="cls-3" d="M599.78,235.95c10.32,10.99,26.47,20.64,47.33,20.64s30.06-10.54,30.06-20.41c0-13.46-15.93-17.5-34.1-22.21-24.45-6.06-53.16-13.23-53.16-44.86,0-24.67,21.76-43.74,54.51-43.74,23.33,0,42.17,7.4,56.08,20.86l-15.03,19.51c-11.66-11.66-27.59-17.05-43.29-17.05s-25.35,7.4-25.35,18.62,15.25,15.48,32.97,19.96c24.67,6.28,54.06,13.91,54.06,46.43,0,24.9-17.5,46.21-57.87,46.21-27.59,0-47.55-9.64-60.79-23.78l14.58-20.19Z"/><path class="cls-2" d="M746,115.49v25.98h-15.62v-25.98h-22.62v-14.14h22.62v-24.91h15.62v24.91h22.62v14.14h-22.62Z"/><path class="cls-2" d="M682.51,92.81c-78.07-27.63-162.11-33.6-240.1-12.87-38.89,10.22-75.45,28.1-108.26,52.23l-2.63-7.12h-4.23c46.22-33.4,101.51-53.64,169.38-59.12,62.09-4.98,125.83,4.05,185.84,26.87Z"/><path class="cls-3" d="M224.52,130.58c-21.27-16.41-49.87-25.37-76.59-20.11-21.73,4.37-41.04,18.52-52.39,37.47-24.3,40.09-12.51,91.45,27.55,116.28,4.12,2.79,9.38,5.66,13.22,7.8-14.07-1.48-27.83-6.17-39.66-14.42-38.75-27.87-46.19-82.26-21.62-122.12,14.78-24.67,41.64-42.36,70.51-44.3,31.04-2.15,63.12,13.1,78.97,39.41h0Z"/><path class="cls-2" d="M829.47,340.21v170.01H0v-80.62q404.29-88.33,829.47-89.39Z"/><text class="cls-5" transform="translate(329.98 455.32)"><tspan x="0" y="0">UNR</tspan><tspan class="cls-1" x="123.31" y="0">E</tspan><tspan class="cls-9" x="159.23" y="0">S</tspan><tspan class="cls-6" x="197.85" y="0">TRI</tspan><tspan class="cls-7" x="288.54" y="0">C</tspan><tspan class="cls-6" x="328.13" y="0">T</tspan><tspan class="cls-8" x="362.63" y="0">E</tspan><tspan x="398.32" y="0">D</tspan></text></svg>